SplineFontDB: 3.0
FontName: FrankRuehlCLM-Bold-Expanded
FullName: Frank Ruehl CLM Bold Expanded
FamilyName: Frank Ruehl CLM
Weight: Bold
Copyright: Copyright (c) 2002-2011 by Maxim Iorsh (iorsh@users.sourceforge.net).\nDistributed under the terms of GNU General Public License version 2(http://www.gnu.org/licenses/gpl.html). \nLatin glyphs, digits and punctuation: portions of Century Schoolbook L Bold ver. 1.06 Copyright (URW)++,Copyright 1999 by (URW)++ Design & Development.\nAll rights reserved.
Version: 0.121
ItalicAngle: 0
UnderlinePosition: -210
UnderlineWidth: 70
Ascent: 960
Descent: 240
InvalidEm: 0
sfntRevision: 0x00001ef9
LayerCount: 2
Layer: 0 1 "Back" 1
Layer: 1 1 "Fore" 0
XUID: [1021 239 -1752255070 9753982]
StyleMap: 0x0020
FSType: 0
OS2Version: 1
OS2_WeightWidthSlopeOnly: 0
OS2_UseTypoMetrics: 0
CreationTime: 1163025782
ModificationTime: 1572980666
PfmFamily: 17
TTFWeight: 700
TTFWidth: 7
LineGap: 90
VLineGap: 0
Panose: 2 0 6 3 0 0 0 0 0 0
OS2TypoAscent: 960
OS2TypoAOffset: 0
OS2TypoDescent: -240
OS2TypoDOffset: 0
OS2TypoLinegap: 0
OS2WinAscent: 960
OS2WinAOffset: 0
OS2WinDescent: 300
OS2WinDOffset: 0
HheadAscent: 960
HheadAOffset: 0
HheadDescent: -300
HheadDOffset: 0
OS2SubXSize: 780
OS2SubYSize: 840
OS2SubXOff: 0
OS2SubYOff: 168
OS2SupXSize: 780
OS2SupYSize: 840
OS2SupXOff: 0
OS2SupYOff: 576
OS2StrikeYSize: 59
OS2StrikeYPos: 310
OS2Vendor: 'CLM '
OS2CodePages: 00000020.00000000
OS2UnicodeRanges: 80000803.50002802.00000000.00000000
Lookup: 4 8 0 "'hlig' Historic Ligatures in Hebrew lookup 0" { "'hlig' Historic Ligatures in Hebrew lookup 0 subtable"  } ['hlig' ('hebr' <'dflt' > ) ]
Lookup: 6 1 0 "'ccmp' Glyph Composition/Decomposition in Hebrew lookup 1" { "'ccmp' Glyph Composition/Decomposition in Hebrew lookup 1 subtable"  } ['ccmp' ('hebr' <'dflt' > ) ]
Lookup: 1 1 0 "Single Substitution lookup 2" { "Single Substitution lookup 2 subtable"  } []

StartChar: .notdef
Encoding: 65536 -1 0
Width: 620
Flags: W
LayerCount: 2
Fore
SplineSet
150 0 m 1,0,-1
 150 800 l 1,1,-1
 470 800 l 1,2,-1
 470 0 l 1,3,-1
 150 0 l 1,0,-1
190 40 m 1,4,-1
 430 40 l 1,5,-1
 430 760 l 1,6,-1
 190 760 l 1,7,-1
 190 40 l 1,4,-1
EndSplineSet
Validated: 1
EndChar

StartChar: uni0000
Encoding: 0 -1 1
AltUni2: 000000.ffffffff.0
Width: 800
GlyphClass: 2
Flags: W
LayerCount: 2
Fore
SplineSet
180 620 m 1,0,-1
 180 -20 l 1,1,-1
 620 -20 l 1,2,-1
 620 620 l 1,3,-1
 180 620 l 1,0,-1
100 700 m 1,4,-1
 700 700 l 1,5,-1
 700 -100 l 1,6,-1
 100 -100 l 1,7,-1
 100 700 l 1,4,-1
EndSplineSet
Validated: 1
EndChar

StartChar: exclam
Encoding: 33 33 4
Width: 326
GlyphClass: 2
Flags: W
LayerCount: 2
Fore
SplineSet
83 129 m 2,0,-1
 149 228 l 2,1,2
 158 241 158 241 163 241 c 128,-1,3
 168 241 168 241 177 228 c 2,4,-1
 244 129 l 2,5,6
 257 110 257 110 244 91 c 2,7,-1
 177 -8 l 2,8,9
 169 -21 169 -21 163.5 -21 c 128,-1,10
 158 -21 158 -21 149 -8 c 2,11,-1
 83 91 l 2,12,13
 75 103 75 103 75 110.5 c 128,-1,14
 75 118 75 118 83 129 c 2,0,-1
196 324 m 2,15,-1
 249 566 l 2,16,17
 257 601 257 601 257 632 c 0,18,19
 257 737 257 737 164 737 c 0,20,21
 70 737 70 737 70 634 c 0,22,23
 70 599 70 599 77 566 c 2,24,-1
 130 324 l 2,25,26
 133 311 133 311 143 300 c 0,27,28
 157 284 157 284 164 284 c 128,-1,29
 171 284 171 284 184 300 c 0,30,31
 194 312 194 312 196 324 c 2,15,-1
EndSplineSet
Validated: 41
EndChar

StartChar: quotedbl
Encoding: 34 34 5
Width: 479
GlyphClass: 2
Flags: W
LayerCount: 2
Fore
SplineSet
50 378 m 1,0,-1
 67 624 l 2,1,2
 68 632 68 632 72 645 c 0,3,4
 81 673 81 673 107 688.5 c 128,-1,5
 133 704 133 704 170 704 c 0,6,7
 209 704 209 704 225 689 c 128,-1,8
 241 674 241 674 232 645 c 0,9,10
 227 631 227 631 224 624 c 2,11,-1
 83 378 l 1,12,-1
 50 378 l 1,0,-1
277 378 m 1,13,-1
 295 624 l 2,14,15
 296 632 296 632 300 645 c 0,16,17
 309 673 309 673 335.5 688.5 c 128,-1,18
 362 704 362 704 399.5 704 c 128,-1,19
 437 704 437 704 453.5 688.5 c 128,-1,20
 470 673 470 673 461 646 c 0,21,22
 459 640 459 640 451 624 c 2,23,-1
 310 378 l 1,24,-1
 277 378 l 1,13,-1
EndSplineSet
Validated: 33
EndChar

StartChar: numbersign
Encoding: 35 35 6
Width: 754
GlyphClass: 2
Flags: W
LayerCount: 2
Fore
SplineSet
225 220 m 1,0,-1
 131 220 l 1,1,-1
 131 303 l 1,2,-1
 237 303 l 1,3,-1
 253 411 l 1,4,-1
 157 411 l 1,5,-1
 157 494 l 1,6,-1
 264 494 l 1,7,-1
 294 700 l 1,8,-1
 384 700 l 1,9,-1
 354 494 l 1,10,-1
 440 494 l 1,11,-1
 469 700 l 1,12,-1
 559 700 l 1,13,-1
 530 494 l 1,14,-1
 623 494 l 1,15,-1
 623 411 l 1,16,-1
 518 411 l 1,17,-1
 503 303 l 1,18,-1
 597 303 l 1,19,-1
 597 220 l 1,20,-1
 491 220 l 1,21,-1
 459 0 l 1,22,-1
 369 0 l 1,23,-1
 401 220 l 1,24,-1
 315 220 l 1,25,-1
 283 0 l 1,26,-1
 193 0 l 1,27,-1
 225 220 l 1,0,-1
343 411 m 1,28,-1
 327 303 l 1,29,-1
 412 303 l 1,30,-1
 428 411 l 1,31,-1
 343 411 l 1,28,-1
EndSplineSet
Validated: 1
EndChar

StartChar: dollar
Encoding: 36 36 7
Width: 754
GlyphClass: 2
Flags: W
LayerCount: 2
Fore
SplineSet
409 433 m 1,0,-1
 435 425 l 2,1,2
 543 392 543 392 591 341.5 c 128,-1,3
 639 291 639 291 639 211 c 0,4,5
 639 117 639 117 579 59 c 128,-1,6
 519 1 519 1 409 -12 c 1,7,-1
 409 -137 l 1,8,-1
 351 -137 l 1,9,-1
 351 -14 l 1,10,11
 312 -11 312 -11 296 -7 c 0,12,13
 209 10 209 10 162 51.5 c 128,-1,14
 115 93 115 93 115 153 c 0,15,16
 115 194 115 194 139 220.5 c 128,-1,17
 163 247 163 247 201 247 c 0,18,19
 236 247 236 247 259 226 c 128,-1,20
 282 205 282 205 282 174 c 0,21,22
 282 128 282 128 247 100 c 0,23,24
 240 93 240 93 240 89 c 0,25,26
 240 73 240 73 273.5 58.5 c 128,-1,27
 307 44 307 44 351 41 c 1,28,-1
 351 279 l 1,29,-1
 317 290 l 2,30,31
 222 319 222 319 178.5 364.5 c 128,-1,32
 135 410 135 410 135 480 c 0,33,34
 135 544 135 544 167.5 595.5 c 128,-1,35
 200 647 200 647 258 675 c 0,36,37
 291 692 291 692 351 699 c 1,38,-1
 351 801 l 1,39,-1
 409 801 l 1,40,-1
 409 700 l 1,41,42
 510 693 510 693 569 654.5 c 128,-1,43
 628 616 628 616 628 557 c 0,44,45
 628 518 628 518 603.5 492.5 c 128,-1,46
 579 467 579 467 541 467 c 0,47,48
 509 467 509 467 487 487.5 c 128,-1,49
 465 508 465 508 465 538 c 0,50,51
 465 564 465 564 482 592 c 0,52,53
 488 600 488 600 488 607 c 0,54,55
 488 638 488 638 409 646 c 1,56,-1
 409 433 l 1,0,-1
351 451 m 1,57,-1
 351 645 l 1,58,59
 255 628 255 628 255 549 c 0,60,61
 255 480 255 480 338 455 c 2,62,-1
 351 451 l 1,57,-1
409 261 m 1,63,-1
 409 44 l 1,64,65
 434 46 434 46 452 54 c 0,66,67
 480 65 480 65 497 91 c 128,-1,68
 514 117 514 117 514 149 c 0,69,70
 514 229 514 229 419 258 c 2,71,-1
 409 261 l 1,63,-1
EndSplineSet
Validated: 1
EndChar

StartChar: percent
Encoding: 37 37 8
Width: 1013
GlyphClass: 2
Flags: W
LayerCount: 2
Fore
SplineSet
773.5 722 m 1,0,-1
 359.5 0 l 1,1,-1
 273.5 0 l 1,2,-1
 603.5 579 l 1,3,4
 574.5 570 574.5 570 529 568.5 c 128,-1,5
 483.5 567 483.5 567 457.5 573 c 1,6,7
 457.5 529 457.5 529 438 479.5 c 128,-1,8
 418.5 430 418.5 430 386.5 392 c 0,9,10
 322.5 315 322.5 315 237.5 315 c 0,11,12
 179.5 315 179.5 315 142 351 c 128,-1,13
 104.5 387 104.5 387 104.5 443 c 0,14,15
 104.5 495 104.5 495 135 555.5 c 128,-1,16
 165.5 616 165.5 616 210.5 655 c 0,17,18
 272.5 708 272.5 708 339.5 708 c 0,19,20
 396.5 708 396.5 708 433.5 660 c 1,21,22
 472.5 641 472.5 641 525.5 641 c 0,23,24
 581.5 641 581.5 641 620.5 660 c 128,-1,25
 659.5 679 659.5 679 692.5 722 c 1,26,-1
 773.5 722 l 1,0,-1
345.5 628 m 1,27,28
 323.5 621 323.5 621 311 608 c 128,-1,29
 298.5 595 298.5 595 277.5 557 c 0,30,31
 229.5 473 229.5 473 229.5 435 c 0,32,33
 229.5 416 229.5 416 241 404 c 128,-1,34
 252.5 392 252.5 392 270.5 392 c 0,35,36
 315.5 392 315.5 392 356 448 c 128,-1,37
 396.5 504 396.5 504 396.5 567 c 0,38,39
 396.5 581 396.5 581 391.5 598 c 1,40,41
 363.5 608 363.5 608 345.5 628 c 1,27,28
786.5 407 m 0,42,43
 839.5 407 839.5 407 874 372 c 128,-1,44
 908.5 337 908.5 337 908.5 283 c 0,45,46
 908.5 238 908.5 238 888 185.5 c 128,-1,47
 867.5 133 867.5 133 832.5 89 c 0,48,49
 771.5 14 771.5 14 688.5 14 c 0,50,51
 629.5 14 629.5 14 591.5 49.5 c 128,-1,52
 553.5 85 553.5 85 553.5 140 c 0,53,54
 553.5 232 553.5 232 622.5 319 c 0,55,56
 695.5 407 695.5 407 786.5 407 c 0,42,43
801.5 326 m 0,57,58
 769.5 326 769.5 326 735.5 270 c 0,59,60
 677.5 176 677.5 176 677.5 133 c 0,61,62
 677.5 115 677.5 115 689.5 102.5 c 128,-1,63
 701.5 90 701.5 90 718.5 90 c 0,64,65
 764.5 90 764.5 90 806 146 c 128,-1,66
 847.5 202 847.5 202 847.5 265 c 0,67,68
 847.5 290 847.5 290 834 308 c 128,-1,69
 820.5 326 820.5 326 801.5 326 c 0,57,58
EndSplineSet
Validated: 524321
EndChar

StartChar: ampersand
Encoding: 38 38 9
Width: 1032
GlyphClass: 2
Flags: W
LayerCount: 2
Fore
SplineSet
882.5 408 m 1,0,-1
 882.5 354 l 1,1,2
 829.5 352 829.5 352 804 334.5 c 128,-1,3
 778.5 317 778.5 317 749.5 260 c 0,4,5
 715.5 199 715.5 199 686.5 159 c 1,6,7
 736.5 93 736.5 93 788.5 93 c 0,8,9
 839.5 93 839.5 93 857.5 177 c 1,10,-1
 907.5 166 l 1,11,12
 902.5 116 902.5 116 877.5 74 c 0,13,14
 849.5 27 849.5 27 813 6 c 128,-1,15
 776.5 -15 776.5 -15 723.5 -15 c 0,16,17
 631.5 -15 631.5 -15 565.5 51 c 1,18,19
 471.5 -16 471.5 -16 354.5 -16 c 0,20,21
 238.5 -16 238.5 -16 178.5 47 c 0,22,23
 124.5 104 124.5 104 124.5 179 c 0,24,25
 124.5 294 124.5 294 243.5 365 c 0,26,27
 275.5 384 275.5 384 326.5 407 c 1,28,29
 287.5 488 287.5 488 287.5 551 c 0,30,31
 287.5 630 287.5 630 346.5 684 c 0,32,33
 405.5 737 405.5 737 503.5 737 c 0,34,35
 585.5 737 585.5 737 635.5 697.5 c 128,-1,36
 685.5 658 685.5 658 685.5 594 c 0,37,38
 685.5 527 685.5 527 628.5 481 c 0,39,40
 586.5 448 586.5 448 510.5 417 c 1,41,42
 548.5 352 548.5 352 590.5 288.5 c 128,-1,43
 632.5 225 632.5 225 650.5 206 c 1,44,45
 698.5 264 698.5 264 698.5 305 c 0,46,47
 698.5 330 698.5 330 677.5 341.5 c 128,-1,48
 656.5 353 656.5 353 609.5 354 c 1,49,-1
 609.5 408 l 1,50,-1
 882.5 408 l 1,0,-1
350.5 357 m 1,51,52
 294.5 322 294.5 322 294.5 258 c 0,53,54
 294.5 217 294.5 217 317.5 171 c 0,55,56
 368.5 67 368.5 67 459.5 67 c 0,57,58
 494.5 67 494.5 67 525.5 89 c 1,59,60
 415.5 223 415.5 223 350.5 357 c 1,51,52
482.5 464 m 1,61,62
 496.5 470 496.5 470 498.5 471 c 0,63,64
 575.5 510 575.5 510 575.5 589 c 0,65,66
 575.5 630 575.5 630 553.5 657.5 c 128,-1,67
 531.5 685 531.5 685 497.5 685 c 0,68,69
 467.5 685 467.5 685 447.5 663.5 c 128,-1,70
 427.5 642 427.5 642 427.5 610 c 0,71,72
 427.5 559 427.5 559 482.5 464 c 1,61,62
EndSplineSet
Validated: 524289
EndChar

StartChar: quotesingle
Encoding: 39 39 10
Width: 252
GlyphClass: 2
Flags: W
LayerCount: 2
Fore
SplineSet
50 378 m 1,0,-1
 67 624 l 2,1,2
 68 632 68 632 72 645 c 0,3,4
 81 673 81 673 107 688.5 c 128,-1,5
 133 704 133 704 170 704 c 0,6,7
 209 704 209 704 225 689 c 128,-1,8
 241 674 241 674 232 645 c 0,9,10
 227 631 227 631 224 624 c 2,11,-1
 83 378 l 1,12,-1
 50 378 l 1,0,-1
EndSplineSet
Validated: 33
EndChar

StartChar: parenleft
Encoding: 40 40 11
Width: 389
GlyphClass: 2
Flags: W
LayerCount: 2
Fore
SplineSet
338 -68 m 1,0,-1
 338 -118 l 1,1,2
 238 -66 238 -66 173 17 c 0,3,4
 72 146 72 146 72 310 c 0,5,6
 72 485 72 485 188 621 c 0,7,8
 247 690 247 690 338 737 c 1,9,-1
 338 687 l 1,10,11
 297 658 297 658 275 630.5 c 128,-1,12
 253 603 253 603 236 558 c 0,13,14
 197 460 197 460 197 309 c 0,15,16
 197 146 197 146 244 41 c 0,17,18
 275 -25 275 -25 338 -68 c 1,0,-1
EndSplineSet
Validated: 1
EndChar

StartChar: parenright
Encoding: 41 41 12
Width: 389
GlyphClass: 2
Flags: W
LayerCount: 2
Fore
SplineSet
50 687 m 1,0,-1
 50 737 l 1,1,2
 150 685 150 685 215 602 c 0,3,4
 316 473 316 473 316 309 c 0,5,6
 316 134 316 134 200 -2 c 0,7,8
 141 -71 141 -71 50 -118 c 1,9,-1
 50 -68 l 1,10,11
 91 -39 91 -39 113 -11.5 c 128,-1,12
 135 16 135 16 152 61 c 0,13,14
 191 158 191 158 191 310 c 0,15,16
 191 473 191 473 144 578 c 0,17,18
 113 644 113 644 50 687 c 1,0,-1
EndSplineSet
Validated: 1
EndChar

StartChar: asterisk
Encoding: 42 42 13
Width: 500
GlyphClass: 2
Flags: W
LayerCount: 2
Fore
SplineSet
239 495 m 1,0,-1
 223 485 l 2,1,2
 202 472 202 472 191 461 c 128,-1,3
 180 450 180 450 159 419 c 0,4,5
 136 384 136 384 103 384 c 0,6,7
 84 384 84 384 70 397.5 c 128,-1,8
 56 411 56 411 56 430 c 0,9,10
 56 464 56 464 89 479 c 0,11,12
 105 485 105 485 144 487 c 0,13,14
 180 490 180 490 210 507 c 2,15,-1
 226 517 l 1,16,-1
 210 526 l 2,17,18
 187 539 187 539 172.5 542.5 c 128,-1,19
 158 546 158 546 120 548 c 0,20,21
 91 550 91 550 73.5 565.5 c 128,-1,22
 56 581 56 581 56 604 c 0,23,24
 56 623 56 623 70 636.5 c 128,-1,25
 84 650 84 650 104 650 c 0,26,27
 126 650 126 650 144 634 c 0,28,29
 152 626 152 626 172 596 c 0,30,31
 194 566 194 566 223 549 c 2,32,-1
 239 539 l 1,33,-1
 239 558 l 2,34,35
 239 582 239 582 235 596 c 128,-1,36
 231 610 231 610 213 647 c 0,37,38
 203 666 203 666 203 684 c 0,39,40
 203 706 203 706 217 721.5 c 128,-1,41
 231 737 231 737 251 737 c 128,-1,42
 271 737 271 737 285.5 721 c 128,-1,43
 300 705 300 705 300 683 c 0,44,45
 300 667 300 667 280 625 c 0,46,47
 264 594 264 594 264 558 c 2,48,-1
 264 539 l 1,49,-1
 280 549 l 2,50,51
 303 563 303 563 313 573.5 c 128,-1,52
 323 584 323 584 344 615 c 0,53,54
 367 650 367 650 400 650 c 0,55,56
 420 650 420 650 433.5 636.5 c 128,-1,57
 447 623 447 623 447 604 c 0,58,59
 447 572 447 572 414 555 c 0,60,61
 403 550 403 550 359 546 c 0,62,63
 326 545 326 545 293 526 c 2,64,-1
 277 517 l 1,65,-1
 293 508 l 2,66,67
 316 495 316 495 330.5 491.5 c 128,-1,68
 345 488 345 488 382 486 c 0,69,70
 411 484 411 484 429 468 c 128,-1,71
 447 452 447 452 447 429 c 0,72,73
 447 410 447 410 434 397.5 c 128,-1,74
 421 385 421 385 402 385 c 0,75,76
 382 385 382 385 369 395 c 128,-1,77
 356 405 356 405 331 439 c 0,78,79
 311 467 311 467 280 485 c 2,80,-1
 264 495 l 1,81,-1
 264 476 l 2,82,83
 264 452 264 452 268 437.5 c 128,-1,84
 272 423 272 423 289 387 c 0,85,86
 299 368 299 368 299 351 c 0,87,88
 299 328 299 328 285 312.5 c 128,-1,89
 271 297 271 297 251 297 c 128,-1,90
 231 297 231 297 217 312.5 c 128,-1,91
 203 328 203 328 203 350 c 0,92,93
 203 366 203 366 223 409 c 0,94,95
 239 440 239 440 239 476 c 2,96,-1
 239 495 l 1,0,-1
EndSplineSet
Validated: 1
EndChar

StartChar: plus
Encoding: 43 43 14
Width: 606
GlyphClass: 2
Flags: W
LayerCount: 2
Fore
SplineSet
246 195 m 1,0,-1
 51 195 l 1,1,-1
 51 310 l 1,2,-1
 246 310 l 1,3,-1
 246 505 l 1,4,-1
 361 505 l 1,5,-1
 361 310 l 1,6,-1
 555 310 l 1,7,-1
 555 195 l 1,8,-1
 361 195 l 1,9,-1
 361 0 l 1,10,-1
 246 0 l 1,11,-1
 246 195 l 1,0,-1
EndSplineSet
Validated: 1
Substitution2: "'salt' Stylistic Alternatives in Hebrew lookup 4 subtable" uniFB29
EndChar

StartChar: comma
Encoding: 44 44 15
Width: 329
GlyphClass: 2
Flags: W
LayerCount: 2
Fore
SplineSet
89 92 m 2,0,1
 80 103 80 103 80 110 c 128,-1,2
 80 117 80 117 89 128 c 2,3,-1
 168 225 l 2,4,5
 178 237 178 237 184 237 c 128,-1,6
 190 237 190 237 200 225 c 2,7,-1
 276 128 l 2,8,9
 284 118 284 118 284.5 110.5 c 128,-1,10
 285 103 285 103 279 92 c 2,11,-1
 140 -142 l 2,12,13
 127 -164 127 -164 110 -157 c 128,-1,14
 93 -150 93 -150 99 -126 c 2,15,-1
 133 12 l 2,16,17
 138 32 138 32 128 44 c 2,18,-1
 89 92 l 2,0,1
EndSplineSet
Validated: 1
EndChar

StartChar: hyphen
Encoding: 45 45 16
Width: 422
GlyphClass: 2
Flags: W
LayerCount: 2
Fore
SplineSet
381 353 m 2,0,-1
 353 239 l 2,1,2
 350 230 350 230 347 227 c 128,-1,3
 344 224 344 224 334 224 c 2,4,-1
 50 224 l 2,5,6
 36 224 36 224 33.5 228.5 c 128,-1,7
 31 233 31 233 35 244 c 2,8,-1
 64 358 l 2,9,10
 66 367 66 367 69 370 c 128,-1,11
 72 373 72 373 82 373 c 2,12,-1
 366 373 l 2,13,14
 381 373 381 373 383 368.5 c 128,-1,15
 385 364 385 364 381 353 c 2,0,-1
EndSplineSet
Validated: 1
PairPos2: "'kern' Horizontal Kerning in Hebrew lookup 7 subtable" uniFB4E dx=45 dy=0 dh=45 dv=0 dx=0 dy=0 dh=0 dv=0
PairPos2: "'kern' Horizontal Kerning in Hebrew lookup 7 subtable" uniFB4D dx=50 dy=0 dh=50 dv=0 dx=0 dy=0 dh=0 dv=0
PairPos2: "'kern' Horizontal Kerning in Hebrew lookup 7 subtable" uniFB4C dx=20 dy=0 dh=20 dv=0 dx=0 dy=0 dh=0 dv=0
PairPos2: "'kern' Horizontal Kerning in Hebrew lookup 7 subtable" afii57700 dx=40 dy=0 dh=40 dv=0 dx=0 dy=0 dh=0 dv=0
PairPos2: "'kern' Horizontal Kerning in Hebrew lookup 7 subtable" uniFB4A dx=45 dy=0 dh=45 dv=0 dx=0 dy=0 dh=0 dv=0
PairPos2: "'kern' Horizontal Kerning in Hebrew lookup 7 subtable" uniFB48 dx=45 dy=0 dh=45 dv=0 dx=0 dy=0 dh=0 dv=0
PairPos2: "'kern' Horizontal Kerning in Hebrew lookup 7 subtable" uniFB47 dx=40 dy=0 dh=40 dv=0 dx=0 dy=0 dh=0 dv=0
PairPos2: "'kern' Horizontal Kerning in Hebrew lookup 7 subtable" uniFB46 dx=10 dy=0 dh=10 dv=0 dx=0 dy=0 dh=0 dv=0
PairPos2: "'kern' Horizontal Kerning in Hebrew lookup 7 subtable" uniFB44 dx=45 dy=0 dh=45 dv=0 dx=0 dy=0 dh=0 dv=0
PairPos2: "'kern' Horizontal Kerning in Hebrew lookup 7 subtable" uniFB43 dx=25 dy=0 dh=25 dv=0 dx=0 dy=0 dh=0 dv=0
PairPos2: "'kern' Horizontal Kerning in Hebrew lookup 7 subtable" uniFB42 dx=-5 dy=0 dh=-5 dv=0 dx=0 dy=0 dh=0 dv=0
PairPos2: "'kern' Horizontal Kerning in Hebrew lookup 7 subtable" uniFB41 dx=60 dy=0 dh=60 dv=0 dx=0 dy=0 dh=0 dv=0
PairPos2: "'kern' Horizontal Kerning in Hebrew lookup 7 subtable" uniFB3E dx=45 dy=0 dh=45 dv=0 dx=0 dy=0 dh=0 dv=0
PairPos2: "'kern' Horizontal Kerning in Hebrew lookup 7 subtable" uniFB3D dx=25 dy=0 dh=25 dv=0 dx=0 dy=0 dh=0 dv=0
PairPos2: "'kern' Horizontal Kerning in Hebrew lookup 7 subtable" uniFB3C dx=35 dy=0 dh=35 dv=0 dx=0 dy=0 dh=0 dv=0
PairPos2: "'kern' Horizontal Kerning in Hebrew lookup 7 subtable" uniFB3B dx=50 dy=0 dh=50 dv=0 dx=0 dy=0 dh=0 dv=0
PairPos2: "'kern' Horizontal Kerning in Hebrew lookup 7 subtable" uniFB3A dx=5 dy=0 dh=5 dv=0 dx=0 dy=0 dh=0 dv=0
PairPos2: "'kern' Horizontal Kerning in Hebrew lookup 7 subtable" uniFB39 dx=20 dy=0 dh=20 dv=0 dx=0 dy=0 dh=0 dv=0
PairPos2: "'kern' Horizontal Kerning in Hebrew lookup 7 subtable" uniFB38 dx=60 dy=0 dh=60 dv=0 dx=0 dy=0 dh=0 dv=0
PairPos2: "'kern' Horizontal Kerning in Hebrew lookup 7 subtable" uniFB37 dx=20 dy=0 dh=20 dv=0 dx=0 dy=0 dh=0 dv=0
PairPos2: "'kern' Horizontal Kerning in Hebrew lookup 7 subtable" afii57723 dx=40 dy=0 dh=40 dv=0 dx=0 dy=0 dh=0 dv=0
PairPos2: "'kern' Horizontal Kerning in Hebrew lookup 7 subtable" uniFB34 dx=5 dy=0 dh=5 dv=0 dx=0 dy=0 dh=0 dv=0
PairPos2: "'kern' Horizontal Kerning in Hebrew lookup 7 subtable" uniFB33 dx=15 dy=0 dh=15 dv=0 dx=0 dy=0 dh=0 dv=0
PairPos2: "'kern' Horizontal Kerning in Hebrew lookup 7 subtable" uniFB32 dx=20 dy=0 dh=20 dv=0 dx=0 dy=0 dh=0 dv=0
PairPos2: "'kern' Horizontal Kerning in Hebrew lookup 7 subtable" uniFB31 dx=20 dy=0 dh=20 dv=0 dx=0 dy=0 dh=0 dv=0
PairPos2: "'kern' Horizontal Kerning in Hebrew lookup 7 subtable" uniFB28 dx=45 dy=0 dh=45 dv=0 dx=0 dy=0 dh=0 dv=0
PairPos2: "'kern' Horizontal Kerning in Hebrew lookup 7 subtable" uniFB26 dx=25 dy=0 dh=25 dv=0 dx=0 dy=0 dh=0 dv=0
PairPos2: "'kern' Horizontal Kerning in Hebrew lookup 7 subtable" uniFB25 dx=35 dy=0 dh=35 dv=0 dx=0 dy=0 dh=0 dv=0
PairPos2: "'kern' Horizontal Kerning in Hebrew lookup 7 subtable" uniFB24 dx=50 dy=0 dh=50 dv=0 dx=0 dy=0 dh=0 dv=0
PairPos2: "'kern' Horizontal Kerning in Hebrew lookup 7 subtable" uniFB23 dx=5 dy=0 dh=5 dv=0 dx=0 dy=0 dh=0 dv=0
PairPos2: "'kern' Horizontal Kerning in Hebrew lookup 7 subtable" uniFB22 dx=15 dy=0 dh=15 dv=0 dx=0 dy=0 dh=0 dv=0
PairPos2: "'kern' Horizontal Kerning in Hebrew lookup 7 subtable" afii57705 dx=20 dy=0 dh=20 dv=0 dx=0 dy=0 dh=0 dv=0
PairPos2: "'kern' Horizontal Kerning in Hebrew lookup 7 subtable" uniFB1D dx=20 dy=0 dh=20 dv=0 dx=0 dy=0 dh=0 dv=0
PairPos2: "'kern' Horizontal Kerning in Hebrew lookup 7 subtable" uniE804 dx=20 dy=0 dh=20 dv=0 dx=0 dy=0 dh=0 dv=0
PairPos2: "'kern' Horizontal Kerning in Hebrew lookup 7 subtable" uniE803 dx=5 dy=0 dh=5 dv=0 dx=0 dy=0 dh=0 dv=0
PairPos2: "'kern' Horizontal Kerning in Hebrew lookup 7 subtable" uniE802 dx=5 dy=0 dh=5 dv=0 dx=0 dy=0 dh=0 dv=0
PairPos2: "'kern' Horizontal Kerning in Hebrew lookup 7 subtable" uniE801 dx=40 dy=0 dh=40 dv=0 dx=0 dy=0 dh=0 dv=0
PairPos2: "'kern' Horizontal Kerning in Hebrew lookup 7 subtable" afii57718 dx=20 dy=0 dh=20 dv=0 dx=0 dy=0 dh=0 dv=0
PairPos2: "'kern' Horizontal Kerning in Hebrew lookup 7 subtable" afii57717 dx=20 dy=0 dh=20 dv=0 dx=0 dy=0 dh=0 dv=0
PairPos2: "'kern' Horizontal Kerning in Hebrew lookup 7 subtable" afii57716 dx=40 dy=0 dh=40 dv=0 dx=0 dy=0 dh=0 dv=0
PairPos2: "'kern' Horizontal Kerning in Hebrew lookup 7 subtable" afii57690 dx=45 dy=0 dh=45 dv=0 dx=0 dy=0 dh=0 dv=0
PairPos2: "'kern' Horizontal Kerning in Hebrew lookup 7 subtable" afii57688 dx=45 dy=0 dh=45 dv=0 dx=0 dy=0 dh=0 dv=0
PairPos2: "'kern' Horizontal Kerning in Hebrew lookup 7 subtable" afii57687 dx=40 dy=0 dh=40 dv=0 dx=0 dy=0 dh=0 dv=0
PairPos2: "'kern' Horizontal Kerning in Hebrew lookup 7 subtable" afii57686 dx=10 dy=0 dh=10 dv=0 dx=0 dy=0 dh=0 dv=0
PairPos2: "'kern' Horizontal Kerning in Hebrew lookup 7 subtable" afii57684 dx=45 dy=0 dh=45 dv=0 dx=0 dy=0 dh=0 dv=0
PairPos2: "'kern' Horizontal Kerning in Hebrew lookup 7 subtable" afii57683 dx=25 dy=0 dh=25 dv=0 dx=0 dy=0 dh=0 dv=0
PairPos2: "'kern' Horizontal Kerning in Hebrew lookup 7 subtable" afii57682 dx=-5 dy=0 dh=-5 dv=0 dx=0 dy=0 dh=0 dv=0
PairPos2: "'kern' Horizontal Kerning in Hebrew lookup 7 subtable" afii57681 dx=60 dy=0 dh=60 dv=0 dx=0 dy=0 dh=0 dv=0
PairPos2: "'kern' Horizontal Kerning in Hebrew lookup 7 subtable" afii57678 dx=45 dy=0 dh=45 dv=0 dx=0 dy=0 dh=0 dv=0
PairPos2: "'kern' Horizontal Kerning in Hebrew lookup 7 subtable" afii57677 dx=25 dy=0 dh=25 dv=0 dx=0 dy=0 dh=0 dv=0
PairPos2: "'kern' Horizontal Kerning in Hebrew lookup 7 subtable" afii57676 dx=35 dy=0 dh=35 dv=0 dx=0 dy=0 dh=0 dv=0
PairPos2: "'kern' Horizontal Kerning in Hebrew lookup 7 subtable" afii57675 dx=50 dy=0 dh=50 dv=0 dx=0 dy=0 dh=0 dv=0
PairPos2: "'kern' Horizontal Kerning in Hebrew lookup 7 subtable" afii57674 dx=5 dy=0 dh=5 dv=0 dx=0 dy=0 dh=0 dv=0
PairPos2: "'kern' Horizontal Kerning in Hebrew lookup 7 subtable" afii57673 dx=20 dy=0 dh=20 dv=0 dx=0 dy=0 dh=0 dv=0
PairPos2: "'kern' Horizontal Kerning in Hebrew lookup 7 subtable" afii57672 dx=60 dy=0 dh=60 dv=0 dx=0 dy=0 dh=0 dv=0
PairPos2: "'kern' Horizontal Kerning in Hebrew lookup 7 subtable" afii57671 dx=20 dy=0 dh=20 dv=0 dx=0 dy=0 dh=0 dv=0
PairPos2: "'kern' Horizontal Kerning in Hebrew lookup 7 subtable" afii57669 dx=40 dy=0 dh=40 dv=0 dx=0 dy=0 dh=0 dv=0
PairPos2: "'kern' Horizontal Kerning in Hebrew lookup 7 subtable" afii57668 dx=5 dy=0 dh=5 dv=0 dx=0 dy=0 dh=0 dv=0
PairPos2: "'kern' Horizontal Kerning in Hebrew lookup 7 subtable" afii57667 dx=15 dy=0 dh=15 dv=0 dx=0 dy=0 dh=0 dv=0
PairPos2: "'kern' Horizontal Kerning in Hebrew lookup 7 subtable" afii57666 dx=20 dy=0 dh=20 dv=0 dx=0 dy=0 dh=0 dv=0
PairPos2: "'kern' Horizontal Kerning in Hebrew lookup 7 subtable" afii57665 dx=20 dy=0 dh=20 dv=0 dx=0 dy=0 dh=0 dv=0
PairPos2: "'kern' Horizontal Kerning in Hebrew lookup 7 subtable" Y dx=0 dy=0 dh=-72 dv=0 dx=0 dy=0 dh=0 dv=0
PairPos2: "'kern' Horizontal Kerning in Hebrew lookup 7 subtable" W dx=0 dy=0 dh=-40 dv=0 dx=0 dy=0 dh=0 dv=0
PairPos2: "'kern' Horizontal Kerning in Hebrew lookup 7 subtable" V dx=0 dy=0 dh=-50 dv=0 dx=0 dy=0 dh=0 dv=0
PairPos2: "'kern' Horizontal Kerning in Hebrew lookup 7 subtable" T dx=0 dy=0 dh=-74 dv=0 dx=0 dy=0 dh=0 dv=0
PairPos2: "'kern' Horizontal Kerning in Hebrew lookup 7 subtable" A dx=0 dy=0 dh=-7 dv=0 dx=0 dy=0 dh=0 dv=0
EndChar

StartChar: period
Encoding: 46 46 17
Width: 332
GlyphClass: 2
Flags: W
LayerCount: 2
Fore
SplineSet
89 128 m 2,0,-1
 168 225 l 2,1,2
 178 237 178 237 184 237 c 128,-1,3
 190 237 190 237 200 225 c 2,4,-1
 279 128 l 2,5,6
 294 110 294 110 279 92 c 2,7,-1
 200 -5 l 2,8,9
 190 -17 190 -17 184 -17 c 128,-1,10
 178 -17 178 -17 168 -5 c 2,11,-1
 89 92 l 2,12,13
 80 103 80 103 80 110 c 128,-1,14
 80 117 80 117 89 128 c 2,0,-1
EndSplineSet
Validated: 1
EndChar

StartChar: slash
Encoding: 47 47 18
Width: 278
GlyphClass: 2
Flags: W
LayerCount: 2
Fore
SplineSet
228 737 m 1,0,-1
 302 737 l 1,1,-1
 51 -15 l 1,2,-1
 -23 -15 l 1,3,-1
 228 737 l 1,0,-1
EndSplineSet
Validated: 1
EndChar

StartChar: zero
Encoding: 48 48 19
Width: 754
GlyphClass: 2
Flags: W
LayerCount: 2
Fore
SplineSet
377.5 708 m 0,0,1
 478.5 708 478.5 708 550.5 621 c 0,2,3
 636.5 513 636.5 513 636.5 342 c 0,4,5
 636.5 190 636.5 190 562 88 c 128,-1,6
 487.5 -14 487.5 -14 377.5 -14 c 0,7,8
 265.5 -14 265.5 -14 191.5 88.5 c 128,-1,9
 117.5 191 117.5 191 117.5 347 c 128,-1,10
 117.5 503 117.5 503 191.5 605.5 c 128,-1,11
 265.5 708 265.5 708 377.5 708 c 0,0,1
376.5 656 m 0,12,13
 323.5 656 323.5 656 306.5 595 c 0,14,15
 289.5 531 289.5 531 289.5 347 c 0,16,17
 289.5 146 289.5 146 310.5 88 c 0,18,19
 329.5 38 329.5 38 376.5 38 c 0,20,21
 428.5 38 428.5 38 445.5 99 c 0,22,23
 462.5 163 462.5 163 462.5 345 c 0,24,25
 462.5 553 462.5 553 441.5 606 c 0,26,27
 424.5 656 424.5 656 376.5 656 c 0,12,13
EndSplineSet
Validated: 524289
EndChar

StartChar: one
Encoding: 49 49 20
Width: 754
GlyphClass: 2
Flags: W
LayerCount: 2
Fore
SplineSet
461 708 m 1,0,-1
 461 144 l 2,1,2
 461 96 461 96 462 85.5 c 128,-1,3
 463 75 463 75 468 69 c 0,4,5
 479 54 479 54 549 54 c 2,6,-1
 581 54 l 1,7,-1
 581 0 l 1,8,-1
 182 0 l 1,9,-1
 182 54 l 1,10,-1
 214 54 l 2,11,12
 285 54 285 54 297 69 c 0,13,14
 302 75 302 75 303 85.5 c 128,-1,15
 304 96 304 96 304 144 c 2,16,-1
 304 499 l 2,17,18
 304 561 304 561 293 571.5 c 128,-1,19
 282 582 282 582 215 583 c 2,20,-1
 173 583 l 1,21,-1
 173 639 l 1,22,23
 339 642 339 642 426 708 c 1,24,-1
 461 708 l 1,0,-1
EndSplineSet
Validated: 1
EndChar

StartChar: two
Encoding: 50 50 21
Width: 754
GlyphClass: 2
Flags: W
LayerCount: 2
Fore
SplineSet
579 266 m 1,0,-1
 633 266 l 1,1,-1
 610 -4 l 1,2,3
 570 0 570 0 549 0 c 2,4,-1
 173 0 l 2,5,6
 156 0 156 0 121 -4 c 1,7,-1
 121 43 l 1,8,9
 159 97 159 97 198.5 144 c 128,-1,10
 238 191 238 191 322 279 c 0,11,12
 402 364 402 364 431 418 c 128,-1,13
 460 472 460 472 460 534 c 0,14,15
 460 590 460 590 431 620.5 c 128,-1,16
 402 651 402 651 350 651 c 0,17,18
 312 651 312 651 279 630 c 128,-1,19
 246 609 246 609 246 585 c 0,20,21
 246 573 246 573 262 566 c 0,22,23
 297 549 297 549 312 528.5 c 128,-1,24
 327 508 327 508 327 476 c 0,25,26
 327 437 327 437 304 414 c 128,-1,27
 281 391 281 391 242 391 c 0,28,29
 197 391 197 391 170 422.5 c 128,-1,30
 143 454 143 454 143 506 c 0,31,32
 143 591 143 591 212.5 649.5 c 128,-1,33
 282 708 282 708 384 708 c 0,34,35
 490 708 490 708 560 654 c 128,-1,36
 630 600 630 600 630 520 c 0,37,38
 630 446 630 446 576 375 c 0,39,40
 554 347 554 347 518 320 c 128,-1,41
 482 293 482 293 377 225 c 0,42,43
 321 187 321 187 277 150 c 1,44,-1
 470 150 l 2,45,46
 518 151 518 151 528 152 c 128,-1,47
 538 153 538 153 545 158 c 0,48,49
 557 165 557 165 568 216 c 2,50,-1
 579 266 l 1,0,-1
EndSplineSet
Validated: 1
EndChar

StartChar: three
Encoding: 51 51 22
Width: 754
GlyphClass: 2
Flags: W
LayerCount: 2
Fore
SplineSet
451 368 m 1,0,1
 519 359 519 359 556 338 c 0,2,3
 590 318 590 318 610 279 c 128,-1,4
 630 240 630 240 630 193 c 0,5,6
 630 145 630 145 609.5 102.5 c 128,-1,7
 589 60 589 60 554 36 c 0,8,9
 482 -14 482 -14 366 -14 c 0,10,11
 258 -14 258 -14 191 33 c 128,-1,12
 124 80 124 80 124 156 c 0,13,14
 124 198 124 198 149 224.5 c 128,-1,15
 174 251 174 251 214 251 c 0,16,17
 251 251 251 251 276 227 c 128,-1,18
 301 203 301 203 301 168 c 0,19,20
 301 147 301 147 294 133.5 c 128,-1,21
 287 120 287 120 264 98 c 0,22,23
 254 89 254 89 254 80 c 0,24,25
 254 64 254 64 281 51 c 128,-1,26
 308 38 308 38 340 38 c 0,27,28
 395 38 395 38 425.5 79.5 c 128,-1,29
 456 121 456 121 456 196 c 0,30,31
 456 338 456 338 363 338 c 1,32,-1
 313 333 l 2,33,34
 307 332 307 332 297 332 c 0,35,36
 281 332 281 332 271 342.5 c 128,-1,37
 261 353 261 353 261 370 c 0,38,39
 261 403 261 403 297 403 c 0,40,41
 310 403 310 403 338 397 c 0,42,43
 365 392 365 392 373 392 c 0,44,45
 408 392 408 392 429 430 c 128,-1,46
 450 468 450 468 450 532 c 0,47,48
 450 591 450 591 423.5 623.5 c 128,-1,49
 397 656 397 656 350 656 c 0,50,51
 322 656 322 656 298 644 c 128,-1,52
 274 632 274 632 274 618 c 0,53,54
 274 613 274 613 281 606 c 0,55,56
 321 569 321 569 321 531 c 0,57,58
 321 496 321 496 298.5 474 c 128,-1,59
 276 452 276 452 240 452 c 0,60,61
 201 452 201 452 175 478 c 128,-1,62
 149 504 149 504 149 543 c 0,63,64
 149 604 149 604 202 652 c 0,65,66
 266 708 266 708 376 708 c 0,67,68
 482 708 482 708 547 659.5 c 128,-1,69
 612 611 612 611 612 531 c 0,70,71
 612 413 612 413 477 375 c 0,72,73
 463 371 463 371 451 368 c 1,0,1
EndSplineSet
Validated: 1
EndChar

StartChar: four
Encoding: 52 52 23
Width: 754
GlyphClass: 2
Flags: W
LayerCount: 2
Fore
SplineSet
540.5 248 m 1,0,-1
 640.5 248 l 1,1,-1
 640.5 181 l 1,2,-1
 540.5 181 l 1,3,-1
 540.5 144 l 2,4,5
 540.5 96 540.5 96 541.5 85.5 c 128,-1,6
 542.5 75 542.5 75 547.5 68 c 0,7,8
 559.5 54 559.5 54 619.5 54 c 2,9,-1
 630.5 54 l 1,10,-1
 630.5 0 l 1,11,-1
 289.5 0 l 1,12,-1
 289.5 54 l 1,13,-1
 300.5 54 l 2,14,15
 365.5 54 365.5 54 376.5 68 c 0,16,17
 381.5 75 381.5 75 382.5 85.5 c 128,-1,18
 383.5 96 383.5 96 383.5 144 c 2,19,-1
 383.5 181 l 1,20,-1
 113.5 181 l 1,21,-1
 113.5 255 l 1,22,-1
 477.5 708 l 1,23,-1
 546.5 708 l 1,24,25
 540.5 597 540.5 597 540.5 556 c 2,26,-1
 540.5 248 l 1,0,-1
383.5 248 m 1,27,-1
 383.5 498 l 1,28,-1
 186.5 248 l 1,29,-1
 383.5 248 l 1,27,-1
EndSplineSet
Validated: 524289
EndChar

StartChar: five
Encoding: 53 53 24
Width: 754
GlyphClass: 2
Flags: W
LayerCount: 2
Fore
SplineSet
251 551 m 1,0,-1
 236 422 l 1,1,2
 320 460 320 460 380 460 c 0,3,4
 488 460 488 460 558.5 396 c 128,-1,5
 629 332 629 332 629 234 c 0,6,7
 629 124 629 124 552.5 55 c 128,-1,8
 476 -14 476 -14 353 -14 c 0,9,10
 249 -14 249 -14 187 31 c 128,-1,11
 125 76 125 76 125 151 c 0,12,13
 125 197 125 197 151 225 c 128,-1,14
 177 253 177 253 221 253 c 0,15,16
 259 253 259 253 282.5 230.5 c 128,-1,17
 306 208 306 208 306 171 c 0,18,19
 306 146 306 146 293.5 129.5 c 128,-1,20
 281 113 281 113 252 99 c 0,21,22
 240 92 240 92 240 85 c 0,23,24
 240 69 240 69 267 56 c 128,-1,25
 294 43 294 43 328 43 c 0,26,27
 388 43 388 43 419.5 90.5 c 128,-1,28
 451 138 451 138 451 229 c 0,29,30
 451 392 451 392 338 392 c 0,31,32
 273 392 273 392 227 354 c 1,33,34
 229 342 229 342 229 338 c 0,35,36
 229 322 229 322 217 310 c 128,-1,37
 205 298 205 298 188 298 c 0,38,39
 172 298 172 298 161.5 308.5 c 128,-1,40
 151 319 151 319 151 335 c 0,41,42
 151 354 151 354 177 380 c 1,43,44
 197 642 197 642 200 708 c 1,45,46
 281 691 281 691 395 691 c 0,47,48
 518 691 518 691 576 705 c 0,49,50
 585 708 585 708 592 708 c 0,51,52
 600 708 600 708 600 697 c 0,53,54
 600 658 600 658 566 613 c 0,55,56
 506 536 506 536 377 536 c 0,57,58
 322 536 322 536 251 551 c 1,0,-1
EndSplineSet
Validated: 1
EndChar

StartChar: six
Encoding: 54 54 25
Width: 754
GlyphClass: 2
Flags: W
LayerCount: 2
Fore
SplineSet
290 361 m 1,0,1
 321 397 321 397 354.5 412 c 128,-1,2
 388 427 388 427 436 427 c 0,3,4
 525 427 525 427 581 370 c 128,-1,5
 637 313 637 313 637 223 c 0,6,7
 637 120 637 120 565 53 c 128,-1,8
 493 -14 493 -14 383 -14 c 0,9,10
 259 -14 259 -14 185 77 c 0,11,12
 117 161 117 161 117 306 c 0,13,14
 117 482 117 482 203 594 c 0,15,16
 289 708 289 708 430 708 c 0,17,18
 516 708 516 708 567 670 c 128,-1,19
 618 632 618 632 618 568 c 0,20,21
 618 527 618 527 593 502.5 c 128,-1,22
 568 478 568 478 525 478 c 0,23,24
 486 478 486 478 461.5 499.5 c 128,-1,25
 437 521 437 521 437 555 c 0,26,27
 437 588 437 588 457 614 c 0,28,29
 465 624 465 624 465 633 c 0,30,31
 465 656 465 656 422 656 c 0,32,33
 371 656 371 656 338 599.5 c 128,-1,34
 305 543 305 543 295 437 c 0,35,36
 290 390 290 390 290 361 c 1,0,1
384 352 m 0,37,38
 356 353 356 353 334 334.5 c 128,-1,39
 312 316 312 316 304 284 c 0,40,41
 296 247 296 247 296 194 c 0,42,43
 296 117 296 117 318 75 c 128,-1,44
 340 33 340 33 381 33 c 0,45,46
 463 33 463 33 463 212 c 0,47,48
 463 349 463 349 384 352 c 0,37,38
EndSplineSet
Validated: 33
EndChar

StartChar: seven
Encoding: 55 55 26
Width: 754
GlyphClass: 2
Flags: W
LayerCount: 2
Fore
SplineSet
627.5 708 m 1,0,-1
 627.5 666 l 1,1,2
 516.5 430 516.5 430 488 333 c 128,-1,3
 459.5 236 459.5 236 459.5 97 c 0,4,5
 459.5 43 459.5 43 433.5 14.5 c 128,-1,6
 407.5 -14 407.5 -14 360.5 -14 c 0,7,8
 318.5 -14 318.5 -14 293.5 13 c 128,-1,9
 268.5 40 268.5 40 268.5 84 c 0,10,11
 268.5 143 268.5 143 321.5 246 c 0,12,13
 330.5 264 330.5 264 448.5 447 c 1,14,-1
 516.5 548 l 1,15,16
 390.5 545 390.5 545 384.5 545 c 0,17,18
 369.5 545 369.5 545 270.5 548 c 0,19,20
 263.5 549 263.5 549 252.5 549 c 0,21,22
 226.5 549 226.5 549 216 531.5 c 128,-1,23
 205.5 514 205.5 514 191.5 448 c 2,24,-1
 181.5 403 l 1,25,-1
 126.5 409 l 1,26,-1
 160.5 708 l 1,27,28
 286.5 694 286.5 694 399.5 694 c 0,29,30
 539.5 694 539.5 694 627.5 708 c 1,0,-1
EndSplineSet
Validated: 524289
EndChar

StartChar: eight
Encoding: 56 56 27
Width: 754
GlyphClass: 2
Flags: W
LayerCount: 2
Fore
SplineSet
493.5 411 m 1,0,1
 636.5 354 636.5 354 636.5 215 c 0,2,3
 636.5 112 636.5 112 562 49 c 128,-1,4
 487.5 -14 487.5 -14 366.5 -14 c 0,5,6
 252.5 -14 252.5 -14 185 34 c 128,-1,7
 117.5 82 117.5 82 117.5 163 c 0,8,9
 117.5 253 117.5 253 194.5 293 c 0,10,11
 210.5 302 210.5 302 255.5 316 c 1,12,13
 139.5 378 139.5 378 139.5 495 c 0,14,15
 139.5 592 139.5 592 209 650 c 128,-1,16
 278.5 708 278.5 708 394.5 708 c 0,17,18
 491.5 708 491.5 708 551.5 665 c 128,-1,19
 611.5 622 611.5 622 611.5 553 c 0,20,21
 611.5 481 611.5 481 550.5 439 c 0,22,23
 533.5 427 533.5 427 493.5 411 c 1,0,1
442.5 436 m 1,24,-1
 444.5 438 l 2,25,26
 486.5 475 486.5 475 486.5 542 c 0,27,28
 486.5 595 486.5 595 457 625.5 c 128,-1,29
 427.5 656 427.5 656 377.5 656 c 0,30,31
 331.5 656 331.5 656 300.5 628.5 c 128,-1,32
 269.5 601 269.5 601 269.5 560 c 0,33,34
 269.5 527 269.5 527 290.5 499 c 128,-1,35
 311.5 471 311.5 471 345.5 458 c 0,36,37
 374.5 447 374.5 447 437.5 432 c 0,38,39
 439.5 433 439.5 433 440.5 435 c 2,40,-1
 442.5 436 l 1,24,-1
309.5 289 m 1,41,42
 274.5 260 274.5 260 261 233.5 c 128,-1,43
 247.5 207 247.5 207 247.5 166 c 0,44,45
 247.5 106 247.5 106 282 72 c 128,-1,46
 316.5 38 316.5 38 377.5 38 c 0,47,48
 436.5 38 436.5 38 474.5 71 c 128,-1,49
 512.5 104 512.5 104 512.5 155 c 0,50,51
 512.5 193 512.5 193 492.5 215.5 c 128,-1,52
 472.5 238 472.5 238 425.5 255 c 0,53,54
 400.5 263 400.5 263 309.5 289 c 1,41,42
EndSplineSet
Validated: 524289
EndChar

StartChar: nine
Encoding: 57 57 28
Width: 754
GlyphClass: 2
Flags: W
LayerCount: 2
Fore
SplineSet
461 329 m 1,0,1
 402 263 402 263 315 263 c 0,2,3
 230 263 230 263 173.5 321 c 128,-1,4
 117 379 117 379 117 468 c 0,5,6
 117 572 117 572 187.5 640 c 128,-1,7
 258 708 258 708 367 708 c 0,8,9
 496 708 496 708 575 603 c 0,10,11
 637 519 637 519 637 386 c 0,12,13
 637 219 637 219 561 107 c 0,14,15
 481 -14 481 -14 323 -14 c 0,16,17
 238 -14 238 -14 187.5 21 c 128,-1,18
 137 56 137 56 137 114 c 0,19,20
 137 157 137 157 164 185.5 c 128,-1,21
 191 214 191 214 232 214 c 0,22,23
 269 214 269 214 292.5 191.5 c 128,-1,24
 316 169 316 169 316 133 c 0,25,26
 316 108 316 108 296 76 c 0,27,28
 290 67 290 67 290 58 c 0,29,30
 290 38 290 38 324 38 c 0,31,32
 443 38 443 38 459 251 c 0,33,34
 461 275 461 275 461 329 c 1,0,1
375 656 m 0,35,36
 290 656 290 656 290 491 c 0,37,38
 290 418 290 418 307 381 c 0,39,40
 316 362 316 362 334.5 350 c 128,-1,41
 353 338 353 338 374 338 c 0,42,43
 412 338 412 338 434.5 377 c 128,-1,44
 457 416 457 416 457 482 c 0,45,46
 457 562 457 562 435 611 c 0,47,48
 416 656 416 656 375 656 c 0,35,36
EndSplineSet
Validated: 1
EndChar

StartChar: colon
Encoding: 58 58 29
Width: 332
GlyphClass: 2
Flags: W
LayerCount: 2
Fore
SplineSet
89 466 m 2,0,-1
 168 562 l 2,1,2
 178 574 178 574 184 574 c 128,-1,3
 190 574 190 574 200 562 c 2,4,-1
 279 466 l 2,5,6
 294 447 294 447 279 428 c 2,7,-1
 200 332 l 2,8,9
 190 320 190 320 184 320 c 128,-1,10
 178 320 178 320 168 332 c 2,11,-1
 89 428 l 2,12,13
 80 440 80 440 80 447 c 128,-1,14
 80 454 80 454 89 466 c 2,0,-1
89 128 m 2,15,-1
 168 225 l 2,16,17
 178 237 178 237 184 237 c 128,-1,18
 190 237 190 237 200 225 c 2,19,-1
 279 128 l 2,20,21
 294 110 294 110 279 92 c 2,22,-1
 200 -5 l 2,23,24
 190 -17 190 -17 184 -17 c 128,-1,25
 178 -17 178 -17 168 -5 c 2,26,-1
 89 92 l 2,27,28
 80 103 80 103 80 110 c 128,-1,29
 80 117 80 117 89 128 c 2,15,-1
EndSplineSet
Validated: 33
EndChar

StartChar: semicolon
Encoding: 59 59 30
Width: 332
GlyphClass: 2
Flags: W
LayerCount: 2
Fore
SplineSet
89 92 m 2,0,1
 80 103 80 103 80 110 c 128,-1,2
 80 117 80 117 89 128 c 2,3,-1
 168 225 l 2,4,5
 178 237 178 237 184 237 c 128,-1,6
 190 237 190 237 200 225 c 2,7,-1
 276 128 l 2,8,9
 284 118 284 118 284.5 110.5 c 128,-1,10
 285 103 285 103 279 92 c 2,11,-1
 140 -142 l 2,12,13
 127 -164 127 -164 110 -157 c 128,-1,14
 93 -150 93 -150 99 -126 c 2,15,-1
 133 12 l 2,16,17
 138 32 138 32 128 44 c 2,18,-1
 89 92 l 2,0,1
89 466 m 2,19,-1
 168 562 l 2,20,21
 178 574 178 574 184 574 c 128,-1,22
 190 574 190 574 200 562 c 2,23,-1
 279 466 l 2,24,25
 294 447 294 447 279 428 c 2,26,-1
 200 332 l 2,27,28
 190 320 190 320 184 320 c 128,-1,29
 178 320 178 320 168 332 c 2,30,-1
 89 428 l 2,31,32
 80 440 80 440 80 447 c 128,-1,33
 80 454 80 454 89 466 c 2,19,-1
EndSplineSet
Validated: 33
EndChar

StartChar: less
Encoding: 60 60 31
Width: 606
GlyphClass: 2
Flags: W
LayerCount: 2
Fore
SplineSet
558 404 m 1,0,-1
 230 253 l 1,1,-1
 558 100 l 1,2,-1
 558 -25 l 1,3,-1
 49 207 l 1,4,-1
 49 297 l 1,5,-1
 558 529 l 1,6,-1
 558 404 l 1,0,-1
EndSplineSet
Validated: 1
EndChar

StartChar: equal
Encoding: 61 61 32
Width: 606
GlyphClass: 2
Flags: W
LayerCount: 2
Fore
SplineSet
51 92 m 1,0,-1
 51 207 l 1,1,-1
 555 207 l 1,2,-1
 555 92 l 1,3,-1
 51 92 l 1,0,-1
51 298 m 1,4,-1
 51 413 l 1,5,-1
 555 413 l 1,6,-1
 555 298 l 1,7,-1
 51 298 l 1,4,-1
EndSplineSet
Validated: 1
EndChar

StartChar: greater
Encoding: 62 62 33
Width: 606
GlyphClass: 2
Flags: W
LayerCount: 2
Fore
SplineSet
48 404 m 1,0,-1
 48 529 l 1,1,-1
 557 297 l 1,2,-1
 557 207 l 1,3,-1
 48 -25 l 1,4,-1
 48 100 l 1,5,-1
 376 253 l 1,6,-1
 48 404 l 1,0,-1
EndSplineSet
Validated: 1
EndChar

StartChar: question
Encoding: 63 63 34
Width: 525
GlyphClass: 2
Flags: W
LayerCount: 2
Fore
SplineSet
157 129 m 2,0,-1
 224 228 l 2,1,2
 233 241 233 241 238 241 c 128,-1,3
 243 241 243 241 252 228 c 2,4,-1
 319 129 l 2,5,6
 332 110 332 110 319 91 c 2,7,-1
 252 -8 l 2,8,9
 243 -21 243 -21 238 -21 c 128,-1,10
 233 -21 233 -21 224 -8 c 2,11,-1
 157 91 l 2,12,13
 150 103 150 103 150 110.5 c 128,-1,14
 150 118 150 118 157 129 c 2,0,-1
250 434 m 0,15,16
 280 468 280 468 293.5 499 c 128,-1,17
 307 530 307 530 307 570 c 0,18,19
 307 622 307 622 281.5 652.5 c 128,-1,20
 256 683 256 683 223 675 c 0,21,22
 213 672 213 672 208.5 667 c 128,-1,23
 204 662 204 662 204 652 c 128,-1,24
 204 642 204 642 205.5 632 c 128,-1,25
 207 622 207 622 209 603.5 c 128,-1,26
 211 585 211 585 211 568 c 0,27,28
 211 533 211 533 187 510.5 c 128,-1,29
 163 488 163 488 125 488 c 0,30,31
 84 488 84 488 57 514.5 c 128,-1,32
 30 541 30 541 30 581 c 0,33,34
 30 650 30 650 93 693.5 c 128,-1,35
 156 737 156 737 255 737 c 0,36,37
 360 737 360 737 421.5 689 c 128,-1,38
 483 641 483 641 483 559 c 0,39,40
 483 489 483 489 429 438 c 0,41,42
 406 417 406 417 369.5 394 c 128,-1,43
 333 371 333 371 302 348 c 128,-1,44
 271 325 271 325 252 296 c 0,45,46
 244 286 244 286 240 285.5 c 128,-1,47
 236 285 236 285 230 295 c 2,48,-1
 207 333 l 2,49,50
 200 345 200 345 203 356 c 0,51,52
 210 389 210 389 250 434 c 0,15,16
EndSplineSet
Validated: 33
EndChar

StartChar: at
Encoding: 64 64 35
Width: 927
GlyphClass: 2
Flags: W
LayerCount: 2
Fore
SplineSet
734.5 190 m 1,0,-1
 803.5 190 l 1,1,2
 784.5 143 784.5 143 739.5 98 c 0,3,4
 627.5 -15 627.5 -15 477.5 -15 c 0,5,6
 325.5 -15 325.5 -15 220 95 c 128,-1,7
 114.5 205 114.5 205 114.5 362 c 0,8,9
 114.5 518 114.5 518 221 627.5 c 128,-1,10
 327.5 737 327.5 737 479.5 737 c 0,11,12
 618.5 737 618.5 737 715.5 646.5 c 128,-1,13
 812.5 556 812.5 556 812.5 426 c 0,14,15
 812.5 317 812.5 317 739 232.5 c 128,-1,16
 665.5 148 665.5 148 570.5 148 c 0,17,18
 535.5 148 535.5 148 514.5 163.5 c 128,-1,19
 493.5 179 493.5 179 493.5 204 c 0,20,21
 493.5 206 493.5 206 495.5 220 c 1,22,23
 455.5 145 455.5 145 382.5 145 c 0,24,25
 326.5 145 326.5 145 288.5 188 c 128,-1,26
 250.5 231 250.5 231 250.5 294 c 0,27,28
 250.5 396 250.5 396 318.5 488 c 0,29,30
 381.5 573 381.5 573 475.5 573 c 0,31,32
 508.5 573 508.5 573 529 561.5 c 128,-1,33
 549.5 550 549.5 550 568.5 522 c 1,34,-1
 580.5 556 l 1,35,-1
 684.5 556 l 1,36,-1
 592.5 268 l 2,37,38
 585.5 242 585.5 242 585.5 231 c 0,39,40
 585.5 209 585.5 209 609.5 209 c 0,41,42
 638.5 209 638.5 209 673.5 239 c 0,43,44
 748.5 302 748.5 302 748.5 419 c 0,45,46
 748.5 531 748.5 531 672.5 603.5 c 128,-1,47
 596.5 676 596.5 676 478.5 676 c 0,48,49
 349.5 676 349.5 676 264 587.5 c 128,-1,50
 178.5 499 178.5 499 178.5 366 c 0,51,52
 178.5 230 178.5 230 265 138 c 128,-1,53
 351.5 46 351.5 46 479.5 46 c 0,54,55
 559.5 46 559.5 46 625.5 83 c 128,-1,56
 691.5 120 691.5 120 734.5 190 c 1,0,-1
496.5 521 m 0,57,58
 450.5 521 450.5 521 410.5 448 c 0,59,60
 353.5 347 353.5 347 353.5 256 c 0,61,62
 353.5 197 353.5 197 399.5 197 c 0,63,64
 448.5 197 448.5 197 483.5 280 c 0,65,66
 503.5 328 503.5 328 523.5 392.5 c 128,-1,67
 543.5 457 543.5 457 543.5 476 c 0,68,69
 543.5 494 543.5 494 529.5 507.5 c 128,-1,70
 515.5 521 515.5 521 496.5 521 c 0,57,58
EndSplineSet
Validated: 524289
EndChar

StartChar: A
Encoding: 65 65 36
Width: 939
GlyphClass: 2
Flags: W
LayerCount: 2
Fore
SplineSet
440.5 737 m 1,0,-1
 516.5 737 l 1,1,-1
 773.5 117 l 2,2,3
 789.5 79 789.5 79 807 67.5 c 128,-1,4
 824.5 56 824.5 56 867.5 54 c 1,5,-1
 867.5 0 l 1,6,-1
 516.5 0 l 1,7,-1
 516.5 54 l 1,8,-1
 533.5 55 l 2,9,10
 566.5 55 566.5 55 579 60 c 128,-1,11
 591.5 65 591.5 65 591.5 79 c 128,-1,12
 591.5 93 591.5 93 579.5 120 c 2,13,-1
 541.5 218 l 1,14,-1
 292.5 218 l 1,15,-1
 276.5 180 l 2,16,17
 260.5 144 260.5 144 260.5 123 c 0,18,19
 260.5 89 260.5 89 283.5 73 c 128,-1,20
 306.5 57 306.5 57 360.5 54 c 1,21,-1
 360.5 0 l 1,22,-1
 71.5 0 l 1,23,-1
 71.5 54 l 1,24,25
 115.5 59 115.5 59 147.5 92.5 c 128,-1,26
 179.5 126 179.5 126 213.5 207 c 2,27,-1
 440.5 737 l 1,0,-1
419.5 524 m 1,28,-1
 318.5 285 l 1,29,-1
 516.5 285 l 1,30,-1
 419.5 524 l 1,28,-1
EndSplineSet
Validated: 524289
EndChar

StartChar: B
Encoding: 66 66 37
Width: 958
GlyphClass: 2
Flags: W
LayerCount: 2
Fore
SplineSet
119.5 722 m 1,0,-1
 505.5 722 l 2,1,2
 595.5 722 595.5 722 640.5 714 c 128,-1,3
 685.5 706 685.5 706 726.5 682 c 0,4,5
 763.5 662 763.5 662 784.5 625 c 128,-1,6
 805.5 588 805.5 588 805.5 545 c 0,7,8
 805.5 452 805.5 452 713.5 408 c 0,9,10
 677.5 391 677.5 391 608.5 380 c 1,11,12
 678.5 371 678.5 371 724.5 349 c 0,13,14
 838.5 298 838.5 298 838.5 189 c 0,15,16
 838.5 139 838.5 139 809.5 95.5 c 128,-1,17
 780.5 52 780.5 52 732.5 30 c 0,18,19
 662.5 0 662.5 0 524.5 0 c 2,20,-1
 119.5 0 l 1,21,-1
 119.5 54 l 1,22,-1
 134.5 54 l 2,23,24
 204.5 54 204.5 54 216.5 69 c 0,25,26
 221.5 75 221.5 75 222.5 85.5 c 128,-1,27
 223.5 96 223.5 96 223.5 144 c 2,28,-1
 223.5 578 l 2,29,30
 223.5 627 223.5 627 222.5 637 c 128,-1,31
 221.5 647 221.5 647 216.5 654 c 0,32,33
 203.5 668 203.5 668 134.5 668 c 2,34,-1
 119.5 668 l 1,35,-1
 119.5 722 l 1,0,-1
403.5 398 m 1,36,-1
 452.5 398 l 2,37,38
 538.5 398 538.5 398 575.5 428 c 0,39,40
 624.5 466 624.5 466 624.5 541 c 0,41,42
 624.5 603 624.5 603 590 635.5 c 128,-1,43
 555.5 668 555.5 668 489.5 668 c 2,44,-1
 459.5 668 l 2,45,46
 429.5 668 429.5 668 415.5 655 c 0,47,48
 403.5 645 403.5 645 403.5 610 c 2,49,-1
 403.5 398 l 1,36,-1
403.5 343 m 1,50,-1
 403.5 118 l 2,51,52
 403.5 82 403.5 82 406.5 74 c 0,53,54
 415.5 54 415.5 54 464.5 54 c 2,55,-1
 494.5 54 l 2,56,57
 564.5 54 564.5 54 600.5 84 c 0,58,59
 647.5 123 647.5 123 647.5 200 c 0,60,61
 647.5 282 647.5 282 592.5 319 c 0,62,63
 555.5 343 555.5 343 472.5 343 c 2,64,-1
 403.5 343 l 1,50,-1
EndSplineSet
Validated: 524289
EndChar

StartChar: C
Encoding: 67 67 38
Width: 958
GlyphClass: 2
Flags: W
LayerCount: 2
Fore
SplineSet
795.5 733 m 1,0,-1
 805.5 447 l 1,1,-1
 752.5 441 l 1,2,3
 718.5 566 718.5 566 662.5 625.5 c 128,-1,4
 606.5 685 606.5 685 523.5 685 c 0,5,6
 431.5 685 431.5 685 384 605 c 128,-1,7
 336.5 525 336.5 525 336.5 370 c 0,8,9
 336.5 205 336.5 205 385.5 126 c 128,-1,10
 434.5 47 434.5 47 536.5 47 c 0,11,12
 622.5 47 622.5 47 680.5 104 c 128,-1,13
 738.5 161 738.5 161 758.5 265 c 1,14,-1
 820.5 250 l 1,15,16
 791.5 116 791.5 116 714 50.5 c 128,-1,17
 636.5 -15 636.5 -15 503.5 -15 c 0,18,19
 332.5 -15 332.5 -15 232.5 95 c 0,20,21
 137.5 200 137.5 200 137.5 352 c 0,22,23
 137.5 520 137.5 520 244 628.5 c 128,-1,24
 350.5 737 350.5 737 515.5 737 c 0,25,26
 568.5 737 568.5 737 609 725.5 c 128,-1,27
 649.5 714 649.5 714 698.5 684 c 1,28,-1
 752.5 733 l 1,29,-1
 795.5 733 l 1,0,-1
EndSplineSet
Validated: 524289
EndChar

StartChar: D
Encoding: 68 68 39
Width: 1013
GlyphClass: 2
Flags: W
LayerCount: 2
Fore
SplineSet
223.5 144 m 2,0,-1
 223.5 578 l 2,1,2
 223.5 626 223.5 626 222.5 636.5 c 128,-1,3
 221.5 647 221.5 647 216.5 653 c 0,4,5
 204.5 668 204.5 668 134.5 668 c 2,6,-1
 119.5 668 l 1,7,-1
 119.5 722 l 1,8,-1
 475.5 722 l 2,9,10
 581.5 722 581.5 722 643.5 710 c 128,-1,11
 705.5 698 705.5 698 750.5 668 c 0,12,13
 893.5 575 893.5 575 893.5 369 c 0,14,15
 893.5 266 893.5 266 858 187 c 128,-1,16
 822.5 108 822.5 108 755.5 61 c 0,17,18
 667.5 0 667.5 0 487.5 0 c 2,19,-1
 119.5 0 l 1,20,-1
 119.5 54 l 1,21,-1
 134.5 54 l 2,22,23
 204.5 54 204.5 54 216.5 69 c 0,24,25
 221.5 75 221.5 75 222.5 85.5 c 128,-1,26
 223.5 96 223.5 96 223.5 144 c 2,0,-1
463.5 54 m 2,27,-1
 484.5 54 l 2,28,29
 535.5 54 535.5 54 577 72 c 128,-1,30
 618.5 90 618.5 90 640.5 122 c 0,31,32
 665.5 156 665.5 156 680 223.5 c 128,-1,33
 694.5 291 694.5 291 694.5 371 c 0,34,35
 694.5 668 694.5 668 488.5 668 c 2,36,-1
 463.5 668 l 2,37,38
 427.5 668 427.5 668 415.5 656 c 128,-1,39
 403.5 644 403.5 644 403.5 608 c 2,40,-1
 403.5 119 l 2,41,42
 403.5 79 403.5 79 415 66.5 c 128,-1,43
 426.5 54 426.5 54 463.5 54 c 2,27,-1
EndSplineSet
Validated: 524289
EndChar

StartChar: E
Encoding: 69 69 40
Width: 939
GlyphClass: 2
Flags: W
LayerCount: 2
Fore
SplineSet
795 722 m 1,0,-1
 801 462 l 1,1,-1
 749 462 l 1,2,3
 725 546 725 546 691 594 c 0,4,5
 637 668 637 668 522 668 c 2,6,-1
 494 668 l 2,7,8
 434 668 434 668 418 646 c 0,9,10
 408 631 408 631 408 582 c 2,11,-1
 408 401 l 1,12,-1
 425 401 l 2,13,14
 484 401 484 401 519.5 437.5 c 128,-1,15
 555 474 555 474 563 543 c 1,16,-1
 617 543 l 1,17,-1
 617 204 l 1,18,-1
 563 204 l 1,19,20
 555 273 555 273 519.5 309.5 c 128,-1,21
 484 346 484 346 425 346 c 2,22,-1
 408 346 l 1,23,-1
 408 124 l 2,24,25
 408 83 408 83 424 68 c 0,26,27
 433 59 433 59 447 56.5 c 128,-1,28
 461 54 461 54 498 54 c 2,29,-1
 528 54 l 2,30,31
 619 54 619 54 675 105.5 c 128,-1,32
 731 157 731 157 762 269 c 1,33,-1
 815 269 l 1,34,-1
 803 0 l 1,35,-1
 124 0 l 1,36,-1
 124 54 l 1,37,-1
 139 54 l 2,38,39
 209 54 209 54 221 69 c 0,40,41
 226 75 226 75 227 85.5 c 128,-1,42
 228 96 228 96 228 144 c 2,43,-1
 228 578 l 2,44,45
 228 626 228 626 227 636.5 c 128,-1,46
 226 647 226 647 221 653 c 0,47,48
 209 668 209 668 139 668 c 2,49,-1
 124 668 l 1,50,-1
 124 722 l 1,51,-1
 795 722 l 1,0,-1
EndSplineSet
Validated: 1
EndChar

StartChar: F
Encoding: 70 70 41
Width: 902
GlyphClass: 2
Flags: W
LayerCount: 2
Fore
SplineSet
779 722 m 1,0,-1
 785 462 l 1,1,-1
 733 462 l 1,2,3
 709 547 709 547 675 594 c 0,4,5
 621 668 621 668 506 668 c 2,6,-1
 487 668 l 2,7,8
 427 668 427 668 411 646 c 0,9,10
 401 631 401 631 401 582 c 2,11,-1
 401 401 l 1,12,-1
 418 401 l 2,13,14
 539 401 539 401 556 543 c 1,15,-1
 610 543 l 1,16,-1
 610 204 l 1,17,-1
 556 204 l 1,18,19
 548 273 548 273 512.5 309.5 c 128,-1,20
 477 346 477 346 418 346 c 2,21,-1
 401 346 l 1,22,-1
 401 144 l 2,23,24
 401 96 401 96 402 85.5 c 128,-1,25
 403 75 403 75 408 69 c 0,26,27
 420 54 420 54 491 54 c 2,28,-1
 517 54 l 1,29,-1
 517 0 l 1,30,-1
 117 0 l 1,31,-1
 117 54 l 1,32,-1
 132 54 l 2,33,34
 202 54 202 54 214 69 c 0,35,36
 219 75 219 75 220 85.5 c 128,-1,37
 221 96 221 96 221 144 c 2,38,-1
 221 578 l 2,39,40
 221 626 221 626 220 636.5 c 128,-1,41
 219 647 219 647 214 653 c 0,42,43
 202 668 202 668 132 668 c 2,44,-1
 117 668 l 1,45,-1
 117 722 l 1,46,-1
 779 722 l 1,0,-1
EndSplineSet
Validated: 1
EndChar

StartChar: G
Encoding: 71 71 42
Width: 1013
GlyphClass: 2
Flags: W
LayerCount: 2
Fore
SplineSet
797.5 733 m 1,0,-1
 806.5 446 l 1,1,-1
 753.5 446 l 1,2,3
 728.5 560 728.5 560 666.5 622.5 c 128,-1,4
 604.5 685 604.5 685 515.5 685 c 0,5,6
 471.5 685 471.5 685 434 665 c 128,-1,7
 396.5 645 396.5 645 374.5 610 c 0,8,9
 317.5 518 317.5 518 317.5 356 c 0,10,11
 317.5 211 317.5 211 358.5 123 c 0,12,13
 377.5 82 377.5 82 413 59.5 c 128,-1,14
 448.5 37 448.5 37 494.5 37 c 0,15,16
 561.5 37 561.5 37 602 79.5 c 128,-1,17
 642.5 122 642.5 122 642.5 192 c 2,18,-1
 642.5 206 l 2,19,20
 642.5 261 642.5 261 629.5 271.5 c 128,-1,21
 616.5 282 616.5 282 551.5 282 c 2,22,-1
 540.5 282 l 1,23,-1
 540.5 336 l 1,24,-1
 895.5 336 l 1,25,-1
 895.5 282 l 1,26,27
 824.5 281 824.5 281 813.5 268 c 0,28,29
 808.5 262 808.5 262 807.5 251 c 128,-1,30
 806.5 240 806.5 240 806.5 192 c 2,31,-1
 806.5 -14 l 1,32,-1
 753.5 -14 l 1,33,-1
 704.5 84 l 1,34,35
 667.5 46 667.5 46 634.5 26 c 0,36,37
 561.5 -15 561.5 -15 466.5 -15 c 0,38,39
 311.5 -15 311.5 -15 214.5 86.5 c 128,-1,40
 117.5 188 117.5 188 117.5 350 c 0,41,42
 117.5 511 117.5 511 216.5 616 c 0,43,44
 328.5 737 328.5 737 503.5 737 c 0,45,46
 557.5 737 557.5 737 599.5 725 c 128,-1,47
 641.5 713 641.5 713 694.5 683 c 1,48,-1
 753.5 733 l 1,49,-1
 797.5 733 l 1,0,-1
EndSplineSet
Validated: 524289
EndChar

StartChar: H
Encoding: 72 72 43
Width: 1050
GlyphClass: 2
Flags: W
LayerCount: 2
Fore
SplineSet
655 339 m 1,0,-1
 394 339 l 1,1,-1
 394 144 l 2,2,3
 394 95 394 95 395 85 c 128,-1,4
 396 75 396 75 401 69 c 0,5,6
 413 54 413 54 484 54 c 2,7,-1
 499 54 l 1,8,-1
 499 0 l 1,9,-1
 110 0 l 1,10,-1
 110 54 l 1,11,-1
 125 54 l 2,12,13
 195 54 195 54 207 69 c 0,14,15
 212 75 212 75 213 85.5 c 128,-1,16
 214 96 214 96 214 144 c 2,17,-1
 214 577 l 2,18,19
 214 626 214 626 213 636.5 c 128,-1,20
 212 647 212 647 207 653 c 0,21,22
 195 668 195 668 125 668 c 2,23,-1
 110 668 l 1,24,-1
 110 722 l 1,25,-1
 499 722 l 1,26,-1
 499 668 l 1,27,-1
 484 668 l 2,28,29
 413 668 413 668 401 653 c 0,30,31
 396 647 396 647 395 636.5 c 128,-1,32
 394 626 394 626 394 577 c 2,33,-1
 394 399 l 1,34,-1
 655 399 l 1,35,-1
 655 577 l 2,36,37
 655 626 655 626 654 636.5 c 128,-1,38
 653 647 653 647 648 653 c 0,39,40
 636 668 636 668 566 668 c 2,41,-1
 551 668 l 1,42,-1
 551 722 l 1,43,-1
 940 722 l 1,44,-1
 940 668 l 1,45,-1
 925 668 l 2,46,47
 854 668 854 668 842 653 c 0,48,49
 837 647 837 647 836 636.5 c 128,-1,50
 835 626 835 626 835 577 c 2,51,-1
 835 144 l 2,52,53
 835 95 835 95 836 85 c 128,-1,54
 837 75 837 75 842 69 c 0,55,56
 854 54 854 54 925 54 c 2,57,-1
 940 54 l 1,58,-1
 940 0 l 1,59,-1
 551 0 l 1,60,-1
 551 54 l 1,61,-1
 566 54 l 2,62,63
 636 54 636 54 648 69 c 0,64,65
 653 75 653 75 654 85.5 c 128,-1,66
 655 96 655 96 655 144 c 2,67,-1
 655 339 l 1,0,-1
EndSplineSet
Validated: 1
EndChar

StartChar: I
Encoding: 73 73 44
Width: 624
GlyphClass: 2
Flags: W
LayerCount: 2
Fore
SplineSet
221.5 144 m 2,0,-1
 221.5 578 l 2,1,2
 221.5 626 221.5 626 220.5 636.5 c 128,-1,3
 219.5 647 219.5 647 214.5 653 c 0,4,5
 202.5 668 202.5 668 132.5 668 c 2,6,-1
 117.5 668 l 1,7,-1
 117.5 722 l 1,8,-1
 506.5 722 l 1,9,-1
 506.5 668 l 1,10,-1
 491.5 668 l 2,11,12
 420.5 668 420.5 668 408.5 653 c 0,13,14
 403.5 647 403.5 647 402.5 637 c 128,-1,15
 401.5 627 401.5 627 401.5 578 c 2,16,-1
 401.5 144 l 2,17,18
 401.5 95 401.5 95 402.5 85 c 128,-1,19
 403.5 75 403.5 75 408.5 69 c 0,20,21
 420.5 54 420.5 54 491.5 54 c 2,22,-1
 506.5 54 l 1,23,-1
 506.5 0 l 1,24,-1
 117.5 0 l 1,25,-1
 117.5 54 l 1,26,-1
 132.5 54 l 2,27,28
 202.5 54 202.5 54 214.5 69 c 0,29,30
 219.5 75 219.5 75 220.5 85.5 c 128,-1,31
 221.5 96 221.5 96 221.5 144 c 2,0,-1
EndSplineSet
Validated: 524289
EndChar

StartChar: J
Encoding: 74 74 45
Width: 828
GlyphClass: 2
Flags: W
LayerCount: 2
Fore
SplineSet
626.5 578 m 2,0,-1
 626.5 280 l 2,1,2
 626.5 191 626.5 191 606 137.5 c 128,-1,3
 585.5 84 585.5 84 538.5 46 c 0,4,5
 462.5 -15 462.5 -15 338.5 -15 c 0,6,7
 226.5 -15 226.5 -15 161.5 37.5 c 128,-1,8
 96.5 90 96.5 90 96.5 182 c 0,9,10
 96.5 246 96.5 246 131.5 288 c 128,-1,11
 166.5 330 166.5 330 220.5 330 c 0,12,13
 265.5 330 265.5 330 294.5 301 c 128,-1,14
 323.5 272 323.5 272 323.5 228 c 0,15,16
 323.5 187 323.5 187 297.5 160.5 c 128,-1,17
 271.5 134 271.5 134 231.5 134 c 0,18,19
 220.5 134 220.5 134 207.5 137 c 0,20,21
 197.5 139 197.5 139 195.5 139 c 0,22,23
 176.5 139 176.5 139 176.5 120 c 0,24,25
 176.5 91 176.5 91 212 68.5 c 128,-1,26
 247.5 46 247.5 46 294.5 46 c 0,27,28
 333.5 46 333.5 46 367 62 c 128,-1,29
 400.5 78 400.5 78 419.5 105 c 0,30,31
 446.5 146 446.5 146 446.5 245 c 2,32,-1
 446.5 578 l 2,33,34
 446.5 627 446.5 627 445.5 637 c 128,-1,35
 444.5 647 444.5 647 439.5 653 c 0,36,37
 427.5 668 427.5 668 357.5 668 c 2,38,-1
 342.5 668 l 1,39,-1
 342.5 722 l 1,40,-1
 731.5 722 l 1,41,-1
 731.5 668 l 1,42,-1
 716.5 668 l 2,43,44
 645.5 668 645.5 668 633.5 653 c 0,45,46
 628.5 647 628.5 647 627.5 637 c 128,-1,47
 626.5 627 626.5 627 626.5 578 c 2,0,-1
EndSplineSet
Validated: 524289
EndChar

StartChar: K
Encoding: 75 75 46
Width: 995
GlyphClass: 2
Flags: W
LayerCount: 2
Fore
SplineSet
464 338 m 1,0,-1
 380 250 l 1,1,-1
 380 144 l 2,2,3
 380 96 380 96 381 85.5 c 128,-1,4
 382 75 382 75 387 69 c 0,5,6
 399 54 399 54 470 54 c 2,7,-1
 485 54 l 1,8,-1
 485 0 l 1,9,-1
 96 0 l 1,10,-1
 96 54 l 1,11,-1
 111 54 l 2,12,13
 181 54 181 54 193 69 c 0,14,15
 198 75 198 75 199 85.5 c 128,-1,16
 200 96 200 96 200 144 c 2,17,-1
 200 578 l 2,18,19
 200 626 200 626 199 636.5 c 128,-1,20
 198 647 198 647 193 653 c 0,21,22
 181 668 181 668 111 668 c 2,23,-1
 96 668 l 1,24,-1
 96 722 l 1,25,-1
 485 722 l 1,26,-1
 485 668 l 1,27,-1
 470 668 l 2,28,29
 399 668 399 668 387 653 c 0,30,31
 382 647 382 647 381 636.5 c 128,-1,32
 380 626 380 626 380 578 c 2,33,-1
 380 344 l 1,34,-1
 601 578 l 2,35,36
 634 615 634 615 634 633 c 0,37,38
 634 668 634 668 559 668 c 2,39,-1
 535 668 l 1,40,-1
 535 722 l 1,41,-1
 872 722 l 1,42,-1
 872 668 l 1,43,44
 822 665 822 665 778 639.5 c 128,-1,45
 734 614 734 614 669 550 c 2,46,-1
 586 463 l 1,47,-1
 794 131 l 2,48,49
 828 77 828 77 842.5 66.5 c 128,-1,50
 857 56 857 56 899 54 c 1,51,-1
 899 0 l 1,52,-1
 535 0 l 1,53,-1
 535 54 l 1,54,-1
 548 54 l 2,55,56
 616 54 616 54 616 77 c 0,57,58
 616 88 616 88 604 109 c 2,59,-1
 464 338 l 1,0,-1
EndSplineSet
Validated: 1
EndChar

StartChar: L
Encoding: 76 76 47
Width: 902
GlyphClass: 2
Flags: W
LayerCount: 2
Fore
SplineSet
739 269 m 1,0,-1
 792 269 l 1,1,-1
 780 0 l 1,2,-1
 110 0 l 1,3,-1
 110 54 l 1,4,-1
 125 54 l 2,5,6
 195 54 195 54 207 69 c 0,7,8
 212 75 212 75 213 85.5 c 128,-1,9
 214 96 214 96 214 145 c 2,10,-1
 214 578 l 2,11,12
 214 626 214 626 213 636.5 c 128,-1,13
 212 647 212 647 207 653 c 0,14,15
 195 668 195 668 125 668 c 2,16,-1
 110 668 l 1,17,-1
 110 722 l 1,18,-1
 506 722 l 1,19,-1
 506 668 l 1,20,-1
 484 668 l 2,21,22
 413 668 413 668 401 653 c 0,23,24
 396 647 396 647 395 636.5 c 128,-1,25
 394 626 394 626 394 578 c 2,26,-1
 394 124 l 2,27,28
 394 83 394 83 410 68 c 0,29,30
 419 59 419 59 433 56.5 c 128,-1,31
 447 54 447 54 484 54 c 2,32,-1
 505 54 l 2,33,34
 611 54 611 54 674 129 c 0,35,36
 712 175 712 175 739 269 c 1,0,-1
EndSplineSet
Validated: 1
EndChar

StartChar: M
Encoding: 77 77 48
Width: 1161
GlyphClass: 2
Flags: W
LayerCount: 2
Fore
SplineSet
431.5 722 m 1,0,-1
 586.5 292 l 1,1,-1
 732.5 722 l 1,2,-1
 1058.5 722 l 1,3,-1
 1058.5 668 l 1,4,-1
 1047.5 668 l 2,5,6
 976.5 668 976.5 668 964.5 653 c 0,7,8
 959.5 647 959.5 647 958.5 636.5 c 128,-1,9
 957.5 626 957.5 626 957.5 578 c 2,10,-1
 957.5 144 l 2,11,12
 957.5 96 957.5 96 958.5 85.5 c 128,-1,13
 959.5 75 959.5 75 964.5 69 c 0,14,15
 976.5 54 976.5 54 1047.5 54 c 2,16,-1
 1058.5 54 l 1,17,-1
 1058.5 0 l 1,18,-1
 676.5 0 l 1,19,-1
 676.5 54 l 1,20,-1
 687.5 54 l 2,21,22
 758.5 54 758.5 54 770.5 69 c 0,23,24
 775.5 75 775.5 75 776.5 85.5 c 128,-1,25
 777.5 96 777.5 96 777.5 144 c 2,26,-1
 777.5 643 l 1,27,-1
 556.5 0 l 1,28,-1
 504.5 0 l 1,29,-1
 277.5 633 l 1,30,-1
 277.5 217 l 2,31,32
 277.5 150 277.5 150 282.5 124 c 128,-1,33
 287.5 98 287.5 98 303.5 81 c 0,34,35
 327.5 56 327.5 56 387.5 54 c 1,36,-1
 387.5 0 l 1,37,-1
 102.5 0 l 1,38,-1
 102.5 54 l 1,39,40
 160.5 55 160.5 55 184.5 81 c 0,41,42
 200.5 98 200.5 98 205.5 124.5 c 128,-1,43
 210.5 151 210.5 151 210.5 217 c 2,44,-1
 210.5 578 l 2,45,46
 210.5 626 210.5 626 209.5 636.5 c 128,-1,47
 208.5 647 208.5 647 203.5 653 c 0,48,49
 191.5 668 191.5 668 120.5 668 c 2,50,-1
 109.5 668 l 1,51,-1
 109.5 722 l 1,52,-1
 431.5 722 l 1,0,-1
EndSplineSet
Validated: 524289
EndChar

StartChar: N
Encoding: 78 78 49
Width: 1013
GlyphClass: 2
Flags: W
LayerCount: 2
Fore
SplineSet
352 722 m 1,0,-1
 738 270 l 1,1,-1
 738 505 l 2,2,3
 738 571 738 571 733 597.5 c 128,-1,4
 728 624 728 624 712 641 c 0,5,6
 688 667 688 667 630 668 c 1,7,-1
 630 722 l 1,8,-1
 915 722 l 1,9,-1
 915 668 l 1,10,11
 855 666 855 666 831 641 c 0,12,13
 815 624 815 624 810 598 c 128,-1,14
 805 572 805 572 805 505 c 2,15,-1
 805 -7 l 1,16,-1
 738 -7 l 1,17,-1
 273 546 l 1,18,-1
 273 217 l 2,19,20
 273 151 273 151 278 125 c 128,-1,21
 283 99 283 99 299 82 c 0,22,23
 322 58 322 58 383 55 c 1,24,-1
 383 1 l 1,25,-1
 98 1 l 1,26,-1
 98 55 l 1,27,28
 157 58 157 58 180 82 c 0,29,30
 196 99 196 99 201 125 c 128,-1,31
 206 151 206 151 206 217 c 2,32,-1
 206 611 l 1,33,34
 168 665 168 665 100 667 c 1,35,-1
 100 722 l 1,36,-1
 352 722 l 1,0,-1
EndSplineSet
Validated: 1
EndChar

StartChar: O
Encoding: 79 79 50
Width: 1013
GlyphClass: 2
Flags: W
LayerCount: 2
Fore
SplineSet
507 737 m 0,0,1
 652 737 652 737 750 652 c 0,2,3
 812 599 812 599 848 518.5 c 128,-1,4
 884 438 884 438 884 351 c 0,5,6
 884 171 884 171 750 63 c 0,7,8
 651 -15 651 -15 502 -15 c 0,9,10
 339 -15 339 -15 234 88 c 128,-1,11
 129 191 129 191 129 350 c 0,12,13
 129 438 129 438 164.5 518 c 128,-1,14
 200 598 200 598 263 652 c 0,15,16
 360 737 360 737 507 737 c 0,0,1
508 685 m 0,17,18
 422 685 422 685 380 614 c 0,19,20
 329 528 329 528 329 369 c 128,-1,21
 329 210 329 210 380 114 c 0,22,23
 421 37 421 37 508 37 c 0,24,25
 594 37 594 37 639 117.5 c 128,-1,26
 684 198 684 198 684 350 c 0,27,28
 684 515 684 515 633 608 c 0,29,30
 589 685 589 685 508 685 c 0,17,18
EndSplineSet
Validated: 1
EndChar

StartChar: P
Encoding: 80 80 51
Width: 939
GlyphClass: 2
Flags: W
LayerCount: 2
Fore
SplineSet
398 310 m 1,0,-1
 398 144 l 2,1,2
 398 95 398 95 399 85 c 128,-1,3
 400 75 400 75 405 68 c 0,4,5
 418 54 418 54 488 54 c 2,6,-1
 510 54 l 1,7,-1
 510 0 l 1,8,-1
 114 0 l 1,9,-1
 114 54 l 1,10,-1
 129 54 l 2,11,12
 198 54 198 54 211 68 c 0,13,14
 216 75 216 75 217 85 c 128,-1,15
 218 95 218 95 218 144 c 2,16,-1
 218 577 l 2,17,18
 218 626 218 626 217 636 c 128,-1,19
 216 646 216 646 211 653 c 0,20,21
 198 667 198 667 129 667 c 2,22,-1
 114 667 l 1,23,-1
 114 722 l 1,24,-1
 511 722 l 2,25,26
 648 722 648 722 724 687 c 0,27,28
 772 665 772 665 798.5 621 c 128,-1,29
 825 577 825 577 825 521 c 0,30,31
 825 310 825 310 510 310 c 2,32,-1
 398 310 l 1,0,-1
398 365 m 1,33,-1
 456 365 l 2,34,35
 553 365 553 365 592.5 400.5 c 128,-1,36
 632 436 632 436 632 522 c 0,37,38
 632 597 632 597 598 632 c 128,-1,39
 564 667 564 667 493 667 c 2,40,-1
 453 667 l 2,41,42
 419 667 419 667 408.5 655.5 c 128,-1,43
 398 644 398 644 398 607 c 2,44,-1
 398 365 l 1,33,-1
EndSplineSet
Validated: 1
EndChar

StartChar: Q
Encoding: 81 81 52
Width: 1013
GlyphClass: 2
Flags: W
LayerCount: 2
Fore
SplineSet
555.5 -25 m 2,0,-1
 555.5 -10 l 1,1,2
 525.5 -15 525.5 -15 492.5 -15 c 0,3,4
 324.5 -15 324.5 -15 217.5 107 c 0,5,6
 121.5 215 121.5 215 121.5 363 c 0,7,8
 121.5 522 121.5 522 230 629.5 c 128,-1,9
 338.5 737 338.5 737 499.5 737 c 0,10,11
 655.5 737 655.5 737 764.5 628 c 128,-1,12
 873.5 519 873.5 519 873.5 363 c 0,13,14
 873.5 266 873.5 266 828.5 181.5 c 128,-1,15
 783.5 97 783.5 97 703.5 44 c 1,16,17
 731.5 -40 731.5 -40 748.5 -67.5 c 128,-1,18
 765.5 -95 765.5 -95 788.5 -95 c 128,-1,19
 811.5 -95 811.5 -95 822.5 -77.5 c 128,-1,20
 833.5 -60 833.5 -60 837.5 -18 c 1,21,-1
 891.5 -18 l 1,22,-1
 891.5 -26 l 2,23,24
 891.5 -98 891.5 -98 843.5 -143 c 128,-1,25
 795.5 -188 795.5 -188 719.5 -188 c 0,26,27
 641.5 -188 641.5 -188 598.5 -145.5 c 128,-1,28
 555.5 -103 555.5 -103 555.5 -25 c 2,0,-1
648.5 175 m 1,29,30
 673.5 241 673.5 241 673.5 370 c 0,31,32
 673.5 501 673.5 501 634.5 591 c 0,33,34
 593.5 685 593.5 685 497.5 685 c 0,35,36
 321.5 685 321.5 685 321.5 379 c 0,37,38
 321.5 253 321.5 253 342.5 189 c 1,39,40
 359.5 232 359.5 232 378.5 250 c 0,41,42
 420.5 290 420.5 290 486.5 290 c 0,43,44
 567.5 290 567.5 290 618.5 231 c 0,45,46
 633.5 212 633.5 212 648.5 175 c 1,29,30
557.5 53 m 1,47,48
 560.5 86 560.5 86 560.5 100 c 0,49,50
 560.5 164 560.5 164 537.5 198.5 c 128,-1,51
 514.5 233 514.5 233 470.5 233 c 0,52,53
 431.5 233 431.5 233 407 204.5 c 128,-1,54
 382.5 176 382.5 176 382.5 132 c 0,55,56
 382.5 89 382.5 89 413.5 63 c 128,-1,57
 444.5 37 444.5 37 494.5 37 c 0,58,59
 525.5 37 525.5 37 557.5 53 c 1,47,48
EndSplineSet
Validated: 524289
EndChar

StartChar: R
Encoding: 82 82 53
Width: 995
GlyphClass: 2
Flags: W
LayerCount: 2
Fore
SplineSet
383 347 m 1,0,-1
 383 145 l 2,1,2
 383 96 383 96 384 86 c 128,-1,3
 385 76 385 76 390 69 c 0,4,5
 403 55 403 55 473 55 c 2,6,-1
 499 55 l 1,7,-1
 499 1 l 1,8,-1
 99 1 l 1,9,-1
 99 55 l 1,10,-1
 114 55 l 2,11,12
 183 55 183 55 196 69 c 0,13,14
 201 76 201 76 202 86 c 128,-1,15
 203 96 203 96 203 145 c 2,16,-1
 203 578 l 2,17,18
 203 627 203 627 202 637 c 128,-1,19
 201 647 201 647 196 654 c 0,20,21
 183 668 183 668 114 668 c 2,22,-1
 99 668 l 1,23,-1
 99 722 l 1,24,-1
 526 722 l 2,25,26
 666 722 666 722 723 686 c 0,27,28
 804 633 804 633 804 541 c 0,29,30
 804 439 804 439 708 390 c 0,31,32
 676 375 676 375 604 361 c 1,33,34
 669 339 669 339 701 302 c 128,-1,35
 733 265 733 265 744 197 c 2,36,-1
 751 159 l 1,37,-1
 755 131 l 2,38,39
 761 92 761 92 767 84 c 0,40,41
 777 69 777 69 796 69 c 0,42,43
 840 69 840 69 842 164 c 1,44,-1
 896 164 l 1,45,-1
 896 152 l 2,46,47
 896 72 896 72 851.5 28.5 c 128,-1,48
 807 -15 807 -15 726 -15 c 0,49,50
 592 -15 592 -15 566 104 c 0,51,52
 561 133 561 133 552 229 c 0,53,54
 549 271 549 271 544.5 286.5 c 128,-1,55
 540 302 540 302 528 317 c 0,56,57
 501 347 501 347 439 347 c 2,58,-1
 383 347 l 1,0,-1
383 402 m 1,59,-1
 438 402 l 2,60,61
 538 402 538 402 575.5 431 c 128,-1,62
 613 460 613 460 613 536 c 0,63,64
 613 604 613 604 580.5 636 c 128,-1,65
 548 668 548 668 478 668 c 2,66,-1
 454 668 l 2,67,68
 406 668 406 668 394.5 657.5 c 128,-1,69
 383 647 383 647 383 604 c 2,70,-1
 383 402 l 1,59,-1
EndSplineSet
Validated: 1
EndChar

StartChar: S
Encoding: 83 83 54
Width: 847
GlyphClass: 2
Flags: W
LayerCount: 2
Fore
SplineSet
669.5 729 m 1,0,-1
 682.5 470 l 1,1,-1
 629.5 470 l 1,2,3
 540.5 685 540.5 685 383.5 685 c 0,4,5
 324.5 685 324.5 685 286.5 655.5 c 128,-1,6
 248.5 626 248.5 626 248.5 580 c 0,7,8
 248.5 518 248.5 518 316.5 494 c 0,9,10
 341.5 485 341.5 485 418.5 470 c 2,11,-1
 466.5 459 l 2,12,13
 596.5 430 596.5 430 655.5 374 c 128,-1,14
 714.5 318 714.5 318 714.5 223 c 0,15,16
 714.5 118 714.5 118 641 51.5 c 128,-1,17
 567.5 -15 567.5 -15 450.5 -15 c 0,18,19
 334.5 -15 334.5 -15 245.5 52 c 1,20,-1
 183.5 -7 l 1,21,-1
 138.5 -7 l 1,22,-1
 132.5 276 l 1,23,-1
 183.5 276 l 1,24,25
 224.5 163 224.5 163 295 100 c 128,-1,26
 365.5 37 365.5 37 450.5 37 c 0,27,28
 515.5 37 515.5 37 555 69 c 128,-1,29
 594.5 101 594.5 101 594.5 154 c 0,30,31
 594.5 210 594.5 210 550.5 234 c 0,32,33
 522.5 249 522.5 249 442.5 264 c 2,34,-1
 380.5 276 l 2,35,36
 262.5 298 262.5 298 198 360 c 128,-1,37
 133.5 422 133.5 422 133.5 514 c 0,38,39
 133.5 614 133.5 614 205 675.5 c 128,-1,40
 276.5 737 276.5 737 392.5 737 c 0,41,42
 492.5 737 492.5 737 572.5 683 c 1,43,-1
 624.5 729 l 1,44,-1
 669.5 729 l 1,0,-1
EndSplineSet
Validated: 524289
EndChar

StartChar: T
Encoding: 84 84 55
Width: 902
GlyphClass: 2
Flags: W
LayerCount: 2
Fore
SplineSet
782 722 m 1,0,-1
 797 451 l 1,1,-1
 744 451 l 1,2,3
 724 560 724 560 685 611 c 0,4,5
 639 670 639 670 577 670 c 0,6,7
 555 670 555 670 548 662.5 c 128,-1,8
 541 655 541 655 541 629 c 2,9,-1
 541 144 l 2,10,11
 541 96 541 96 542 85.5 c 128,-1,12
 543 75 543 75 548 69 c 0,13,14
 560 54 560 54 631 54 c 2,15,-1
 653 54 l 1,16,-1
 653 0 l 1,17,-1
 249 0 l 1,18,-1
 249 54 l 1,19,-1
 271 54 l 2,20,21
 342 54 342 54 354 69 c 0,22,23
 359 75 359 75 360 85.5 c 128,-1,24
 361 96 361 96 361 144 c 2,25,-1
 361 629 l 2,26,27
 361 655 361 655 354 662.5 c 128,-1,28
 347 670 347 670 325 670 c 0,29,30
 256 670 256 670 209 599 c 0,31,32
 175 550 175 550 158 451 c 1,33,-1
 105 451 l 1,34,-1
 120 722 l 1,35,-1
 782 722 l 1,0,-1
EndSplineSet
Validated: 1
EndChar

StartChar: U
Encoding: 85 85 56
Width: 1013
GlyphClass: 2
Flags: W
LayerCount: 2
Fore
SplineSet
386 578 m 2,0,-1
 386 258 l 2,1,2
 386 150 386 150 419 109 c 0,3,4
 462 60 462 60 547 60 c 0,5,6
 673 60 673 60 717 155 c 0,7,8
 734 192 734 192 734 304 c 2,9,-1
 734 505 l 2,10,11
 734 572 734 572 729 598 c 128,-1,12
 724 624 724 624 708 641 c 0,13,14
 684 667 684 667 626 668 c 1,15,-1
 626 722 l 1,16,-1
 911 722 l 1,17,-1
 911 668 l 1,18,19
 851 666 851 666 827 641 c 0,20,21
 811 624 811 624 806 597.5 c 128,-1,22
 801 571 801 571 801 505 c 2,23,-1
 801 304 l 2,24,25
 801 216 801 216 793.5 173 c 128,-1,26
 786 130 786 130 765 96 c 0,27,28
 728 38 728 38 667.5 11.5 c 128,-1,29
 607 -15 607 -15 511 -15 c 0,30,31
 295 -15 295 -15 232 100 c 0,32,33
 206 148 206 148 206 261 c 2,34,-1
 206 578 l 2,35,36
 206 626 206 626 205 636.5 c 128,-1,37
 204 647 204 647 199 653 c 0,38,39
 187 668 187 668 117 668 c 2,40,-1
 102 668 l 1,41,-1
 102 722 l 1,42,-1
 491 722 l 1,43,-1
 491 668 l 1,44,-1
 476 668 l 2,45,46
 405 668 405 668 393 653 c 0,47,48
 388 647 388 647 387 636.5 c 128,-1,49
 386 626 386 626 386 578 c 2,0,-1
EndSplineSet
Validated: 1
EndChar

StartChar: V
Encoding: 86 86 57
Width: 939
GlyphClass: 2
Flags: W
LayerCount: 2
Fore
SplineSet
518.5 206 m 1,0,-1
 660.5 562 l 2,1,2
 669.5 584 669.5 584 669.5 600 c 0,3,4
 669.5 640 669.5 640 634.5 657 c 0,5,6
 615.5 668 615.5 668 572.5 668 c 1,7,-1
 572.5 722 l 1,8,-1
 867.5 722 l 1,9,-1
 867.5 668 l 1,10,11
 776.5 659 776.5 659 729.5 541 c 2,12,-1
 500.5 -15 l 1,13,-1
 412.5 -15 l 1,14,-1
 169.5 599 l 2,15,16
 152.5 642 152.5 642 134 655 c 128,-1,17
 115.5 668 115.5 668 71.5 668 c 1,18,-1
 71.5 722 l 1,19,-1
 433.5 722 l 1,20,-1
 433.5 668 l 1,21,-1
 412.5 668 l 2,22,23
 350.5 668 350.5 668 350.5 643 c 0,24,25
 350.5 634 350.5 634 359.5 610 c 2,26,-1
 518.5 206 l 1,0,-1
EndSplineSet
Validated: 524289
EndChar

StartChar: W
Encoding: 87 87 58
Width: 1161
GlyphClass: 2
Flags: W
LayerCount: 2
Fore
SplineSet
802 258 m 1,0,-1
 889 543 l 2,1,2
 902 586 902 586 902 604 c 0,3,4
 902 643 902 643 868 659 c 0,5,6
 851 667 851 667 812 668 c 1,7,-1
 812 722 l 1,8,-1
 1064 722 l 1,9,-1
 1064 668 l 1,10,11
 1019 659 1019 659 998.5 633.5 c 128,-1,12
 978 608 978 608 956 534 c 2,13,-1
 782 -15 l 1,14,-1
 709 -15 l 1,15,-1
 584 392 l 1,16,-1
 452 -15 l 1,17,-1
 377 -15 l 1,18,-1
 173 610 l 2,19,20
 161 646 161 646 147 657 c 128,-1,21
 133 668 133 668 99 668 c 2,22,-1
 97 668 l 1,23,-1
 97 722 l 1,24,-1
 407 722 l 1,25,-1
 407 668 l 1,26,27
 372 666 372 666 360 661 c 128,-1,28
 348 656 348 656 348 643 c 0,29,30
 348 632 348 632 356 609 c 2,31,-1
 472 251 l 1,32,-1
 552 502 l 1,33,-1
 516 615 l 2,34,35
 505 647 505 647 493 656.5 c 128,-1,36
 481 666 481 666 452 668 c 1,37,-1
 452 722 l 1,38,-1
 748 722 l 1,39,-1
 748 668 l 1,40,41
 712 666 712 666 700.5 660.5 c 128,-1,42
 689 655 689 655 689 641 c 0,43,44
 689 632 689 632 695 614 c 2,45,-1
 802 258 l 1,0,-1
EndSplineSet
Validated: 1
EndChar

StartChar: X
Encoding: 88 88 59
Width: 902
GlyphClass: 2
Flags: W
LayerCount: 2
Fore
SplineSet
520.5 413 m 1,0,-1
 697.5 155 l 2,1,2
 743.5 88 743.5 88 764 72 c 128,-1,3
 784.5 56 784.5 56 824.5 54 c 1,4,-1
 824.5 0 l 1,5,-1
 464.5 0 l 1,6,-1
 464.5 54 l 1,7,8
 501.5 55 501.5 55 516 60 c 128,-1,9
 530.5 65 530.5 65 530.5 78 c 0,10,11
 530.5 96 530.5 96 517.5 112 c 2,12,-1
 408.5 268 l 1,13,-1
 320.5 156 l 2,14,15
 300.5 131 300.5 131 300.5 106 c 0,16,17
 300.5 80 300.5 80 326 68 c 128,-1,18
 351.5 56 351.5 56 408.5 54 c 1,19,-1
 408.5 0 l 1,20,-1
 77.5 0 l 1,21,-1
 77.5 54 l 1,22,23
 121.5 56 121.5 56 150 73.5 c 128,-1,24
 178.5 91 178.5 91 221.5 144 c 2,25,-1
 368.5 325 l 1,26,-1
 163.5 617 l 2,27,28
 142.5 647 142.5 647 126.5 656.5 c 128,-1,29
 110.5 666 110.5 666 77.5 668 c 1,30,-1
 77.5 722 l 1,31,-1
 435.5 722 l 1,32,-1
 435.5 668 l 1,33,34
 391.5 666 391.5 666 379.5 662 c 128,-1,35
 367.5 658 367.5 658 367.5 644 c 0,36,37
 367.5 632 367.5 632 377.5 618 c 2,38,-1
 482.5 467 l 1,39,-1
 552.5 553 l 2,40,41
 586.5 593 586.5 593 586.5 617 c 0,42,43
 586.5 668 586.5 668 490.5 668 c 1,44,-1
 490.5 722 l 1,45,-1
 798.5 722 l 1,46,-1
 798.5 668 l 1,47,48
 759.5 665 759.5 665 730 648 c 128,-1,49
 700.5 631 700.5 631 666.5 591 c 2,50,-1
 520.5 413 l 1,0,-1
EndSplineSet
Validated: 524289
EndChar

StartChar: Y
Encoding: 89 89 60
Width: 902
GlyphClass: 2
Flags: W
LayerCount: 2
Fore
SplineSet
509.5 396 m 1,0,-1
 609.5 574 l 2,1,2
 623.5 602 623.5 602 623.5 620 c 0,3,4
 623.5 642 623.5 642 603.5 655 c 128,-1,5
 583.5 668 583.5 668 550.5 668 c 2,6,-1
 529.5 668 l 1,7,-1
 529.5 722 l 1,8,-1
 824.5 722 l 1,9,-1
 824.5 668 l 1,10,11
 743.5 662 743.5 662 690.5 575 c 2,12,-1
 540.5 318 l 1,13,-1
 540.5 144 l 2,14,15
 540.5 96 540.5 96 541.5 85.5 c 128,-1,16
 542.5 75 542.5 75 547.5 69 c 0,17,18
 559.5 54 559.5 54 630.5 54 c 2,19,-1
 652.5 54 l 1,20,-1
 652.5 0 l 1,21,-1
 248.5 0 l 1,22,-1
 248.5 54 l 1,23,-1
 270.5 54 l 2,24,25
 341.5 54 341.5 54 353.5 69 c 0,26,27
 358.5 75 358.5 75 359.5 85.5 c 128,-1,28
 360.5 96 360.5 96 360.5 144 c 2,29,-1
 360.5 305 l 1,30,-1
 156.5 632 l 2,31,32
 142.5 654 142.5 654 127 661 c 128,-1,33
 111.5 668 111.5 668 77.5 668 c 1,34,-1
 77.5 722 l 1,35,-1
 437.5 722 l 1,36,-1
 437.5 668 l 1,37,-1
 421.5 668 l 2,38,39
 365.5 668 365.5 668 365.5 646 c 0,40,41
 365.5 634 365.5 634 377.5 615 c 2,42,-1
 509.5 396 l 1,0,-1
EndSplineSet
Validated: 524289
EndChar

StartChar: Z
Encoding: 90 90 61
Width: 847
GlyphClass: 2
Flags: W
LayerCount: 2
Fore
SplineSet
728.5 722 m 1,0,-1
 728.5 666 l 1,1,-1
 327.5 55 l 1,2,-1
 416.5 55 l 2,3,4
 507.5 55 507.5 55 546.5 75 c 0,5,6
 594.5 99 594.5 99 628.5 151.5 c 128,-1,7
 662.5 204 662.5 204 675.5 276 c 1,8,-1
 728.5 276 l 1,9,-1
 712.5 0 l 1,10,-1
 118.5 0 l 1,11,-1
 118.5 58 l 1,12,-1
 519.5 667 l 1,13,-1
 445.5 667 l 2,14,15
 365.5 667 365.5 667 323.5 649.5 c 128,-1,16
 281.5 632 281.5 632 248.5 586 c 0,17,18
 217.5 544 217.5 544 194.5 470 c 1,19,-1
 143.5 470 l 1,20,-1
 155.5 722 l 1,21,-1
 728.5 722 l 1,0,-1
EndSplineSet
Validated: 524289
EndChar

StartChar: bracketleft
Encoding: 91 91 62
Width: 389
GlyphClass: 2
Flags: W
LayerCount: 2
Fore
SplineSet
339 722 m 1,0,-1
 339 672 l 1,1,-1
 207 672 l 1,2,-1
 207 -58 l 1,3,-1
 339 -58 l 1,4,-1
 339 -108 l 1,5,-1
 84 -108 l 1,6,-1
 84 722 l 1,7,-1
 339 722 l 1,0,-1
EndSplineSet
Validated: 1
EndChar

StartChar: backslash
Encoding: 92 92 63
Width: 606
GlyphClass: 2
Flags: W
LayerCount: 2
Fore
SplineSet
124 737 m 1,0,-1
 555 0 l 1,1,-1
 481 0 l 1,2,-1
 50 737 l 1,3,-1
 124 737 l 1,0,-1
EndSplineSet
Validated: 1
EndChar

StartChar: bracketright
Encoding: 93 93 64
Width: 389
GlyphClass: 2
Flags: W
LayerCount: 2
Fore
SplineSet
31 -108 m 1,0,-1
 31 -58 l 1,1,-1
 163 -58 l 1,2,-1
 163 672 l 1,3,-1
 31 672 l 1,4,-1
 31 722 l 1,5,-1
 286 722 l 1,6,-1
 286 -108 l 1,7,-1
 31 -108 l 1,0,-1
EndSplineSet
Validated: 1
EndChar

StartChar: asciicircum
Encoding: 94 94 65
Width: 606
GlyphClass: 2
Flags: W
LayerCount: 2
Fore
SplineSet
554 318 m 1,0,-1
 435 318 l 1,1,-1
 304 568 l 1,2,-1
 171 318 l 1,3,-1
 52 318 l 1,4,-1
 261 722 l 1,5,-1
 346 722 l 1,6,-1
 554 318 l 1,0,-1
EndSplineSet
Validated: 1
EndChar

StartChar: underscore
Encoding: 95 95 66
Width: 500
GlyphClass: 2
Flags: W
LayerCount: 2
Fore
SplineSet
0 -58 m 1,0,-1
 500 -58 l 1,1,-1
 500 -148 l 1,2,-1
 0 -148 l 1,3,-1
 0 -58 l 1,0,-1
EndSplineSet
Validated: 1
EndChar

StartChar: grave
Encoding: 96 96 67
Width: 333
GlyphClass: 2
Flags: W
LayerCount: 2
Fore
SplineSet
249 545 m 1,0,-1
 185 545 l 1,1,-1
 38 632 l 2,2,3
 2 653 2 653 2 684 c 0,4,5
 2 705 2 705 18.5 719.5 c 128,-1,6
 35 734 35 734 59 734 c 0,7,8
 84 734 84 734 107 716 c 0,9,10
 113 712 113 712 136 683 c 2,11,-1
 249 545 l 1,0,-1
EndSplineSet
Validated: 1
EndChar

StartChar: a
Encoding: 97 97 68
Width: 791
GlyphClass: 2
Flags: W
LayerCount: 2
Fore
SplineSet
595 318 m 2,0,-1
 595 142 l 2,1,2
 595 98 595 98 600.5 84 c 128,-1,3
 606 70 606 70 622 70 c 0,4,5
 631 70 631 70 641 77 c 0,6,7
 652 84 652 84 661 84 c 0,8,9
 676 84 676 84 676 68 c 0,10,11
 676 36 676 36 642.5 10.5 c 128,-1,12
 609 -15 609 -15 566 -15 c 0,13,14
 487 -15 487 -15 460 56 c 1,15,16
 420 17 420 17 377 1 c 128,-1,17
 334 -15 334 -15 269 -15 c 0,18,19
 196 -15 196 -15 155.5 16 c 128,-1,20
 115 47 115 47 115 102 c 0,21,22
 115 188 115 188 222 232 c 0,23,24
 276 254 276 254 405 282 c 0,25,26
 417 283 417 283 438 289 c 1,27,-1
 438 341 l 2,28,29
 438 393 438 393 419.5 414.5 c 128,-1,30
 401 436 401 436 356 436 c 0,31,32
 326 436 326 436 304 426.5 c 128,-1,33
 282 417 282 417 282 404 c 0,34,35
 282 398 282 398 291 387 c 0,36,37
 305 368 305 368 305 349 c 0,38,39
 305 321 305 321 281.5 302.5 c 128,-1,40
 258 284 258 284 223 284 c 128,-1,41
 188 284 188 284 165 305.5 c 128,-1,42
 142 327 142 327 142 359 c 0,43,44
 142 418 142 418 204.5 453 c 128,-1,45
 267 488 267 488 370 488 c 0,46,47
 491 488 491 488 548 442 c 0,48,49
 574 421 574 421 584.5 394 c 128,-1,50
 595 367 595 367 595 318 c 2,0,-1
438 235 m 1,51,-1
 385 223 l 2,52,53
 331 210 331 210 306.5 186.5 c 128,-1,54
 282 163 282 163 282 123 c 0,55,56
 282 91 282 91 299.5 72 c 128,-1,57
 317 53 317 53 346 53 c 0,58,59
 388 53 388 53 413 87 c 128,-1,60
 438 121 438 121 438 179 c 2,61,-1
 438 235 l 1,51,-1
EndSplineSet
Validated: 1
EndChar

StartChar: b
Encoding: 98 98 69
Width: 828
GlyphClass: 2
Flags: W
LayerCount: 2
Fore
SplineSet
348 737 m 1,0,-1
 348 413 l 1,1,2
 407 488 407 488 503 488 c 0,3,4
 598 488 598 488 659 420 c 128,-1,5
 720 352 720 352 720 245 c 0,6,7
 720 129 720 129 649 57 c 128,-1,8
 578 -15 578 -15 464 -15 c 0,9,10
 358 -15 358 -15 291 66 c 1,11,-1
 226 -14 l 1,12,-1
 177 -14 l 1,13,14
 191 63 191 63 191 206 c 2,15,-1
 191 578 l 2,16,17
 191 645 191 645 182 658 c 128,-1,18
 173 671 173 671 127 671 c 2,19,-1
 108 671 l 1,20,-1
 108 722 l 1,21,-1
 348 737 l 1,0,-1
453 413 m 0,22,23
 347 413 347 413 347 212 c 0,24,25
 347 127 347 127 373 82 c 128,-1,26
 399 37 399 37 448 37 c 0,27,28
 547 37 547 37 547 233 c 0,29,30
 547 413 547 413 453 413 c 0,22,23
EndSplineSet
Validated: 1
EndChar

StartChar: c
Encoding: 99 99 70
Width: 736
GlyphClass: 2
Flags: W
LayerCount: 2
Fore
SplineSet
564 177 m 1,0,-1
 616 160 l 1,1,2
 595 93 595 93 556 53 c 0,3,4
 494 -15 494 -15 389 -15 c 0,5,6
 268 -15 268 -15 194 52 c 128,-1,7
 120 119 120 119 120 229 c 0,8,9
 120 342 120 342 200.5 415 c 128,-1,10
 281 488 281 488 406 488 c 0,11,12
 497 488 497 488 551 451 c 128,-1,13
 605 414 605 414 605 352 c 0,14,15
 605 314 605 314 580.5 290.5 c 128,-1,16
 556 267 556 267 515 267 c 0,17,18
 479 267 479 267 456 287.5 c 128,-1,19
 433 308 433 308 433 340 c 0,20,21
 433 363 433 363 454 389 c 0,22,23
 465 402 465 402 465 408 c 0,24,25
 465 420 465 420 449.5 428 c 128,-1,26
 434 436 434 436 412 436 c 0,27,28
 356 436 356 436 324.5 386 c 128,-1,29
 293 336 293 336 293 247 c 0,30,31
 293 154 293 154 326.5 103.5 c 128,-1,32
 360 53 360 53 421 53 c 0,33,34
 488 53 488 53 526 104 c 0,35,36
 547 132 547 132 564 177 c 1,0,-1
EndSplineSet
Validated: 1
EndChar

StartChar: d
Encoding: 100 100 71
Width: 847
GlyphClass: 2
Flags: W
LayerCount: 2
Fore
SplineSet
646 737 m 1,0,-1
 646 122 l 2,1,2
 646 83 646 83 658 72 c 0,3,4
 666 65 666 65 705 65 c 2,5,-1
 732 65 l 1,6,-1
 732 11 l 1,7,-1
 498 0 l 1,8,-1
 498 72 l 1,9,10
 439 -15 439 -15 334 -15 c 0,11,12
 236 -15 236 -15 175.5 52.5 c 128,-1,13
 115 120 115 120 115 229 c 128,-1,14
 115 338 115 338 181 413 c 128,-1,15
 247 488 247 488 343 488 c 0,16,17
 434 488 434 488 489 421 c 1,18,-1
 489 578 l 2,19,20
 489 645 489 645 480 658 c 128,-1,21
 471 671 471 671 425 671 c 2,22,-1
 393 671 l 1,23,-1
 393 722 l 1,24,-1
 646 737 l 1,0,-1
389 420 m 0,25,26
 341 420 341 420 314.5 370 c 128,-1,27
 288 320 288 320 288 231 c 0,28,29
 288 146 288 146 314 99.5 c 128,-1,30
 340 53 340 53 387 53 c 0,31,32
 433 53 433 53 462 104 c 128,-1,33
 491 155 491 155 491 237 c 0,34,35
 491 320 491 320 463 370 c 128,-1,36
 435 420 435 420 389 420 c 0,25,26
EndSplineSet
Validated: 1
EndChar

StartChar: e
Encoding: 101 101 72
Width: 754
GlyphClass: 2
Flags: W
LayerCount: 2
Fore
SplineSet
631 228 m 1,0,-1
 296 228 l 1,1,2
 297 151 297 151 321 113 c 0,3,4
 360 53 360 53 432 53 c 0,5,6
 481 53 481 53 516.5 79.5 c 128,-1,7
 552 106 552 106 582 164 c 1,8,-1
 631 144 l 1,9,10
 566 -15 566 -15 393 -15 c 0,11,12
 276 -15 276 -15 204 46 c 0,13,14
 167 78 167 78 145 128.5 c 128,-1,15
 123 179 123 179 123 232 c 0,16,17
 123 336 123 336 195 411 c 0,18,19
 270 488 270 488 392 488 c 0,20,21
 501 488 501 488 566 422 c 128,-1,22
 631 356 631 356 631 244 c 2,23,-1
 631 228 l 1,0,-1
297 283 m 1,24,-1
 447 283 l 2,25,26
 462 283 462 283 468 290 c 128,-1,27
 474 297 474 297 474 315 c 0,28,29
 474 436 474 436 395 436 c 0,30,31
 350 436 350 436 323.5 395 c 128,-1,32
 297 354 297 354 297 283 c 1,24,-1
EndSplineSet
Validated: 1
EndChar

StartChar: f
Encoding: 102 102 73
Width: 569
GlyphClass: 2
Flags: W
LayerCount: 2
Fore
SplineSet
428.5 473 m 1,0,-1
 428.5 413 l 1,1,-1
 303.5 413 l 1,2,-1
 303.5 144 l 1,3,-1
 303.5 97 l 2,4,5
 303.5 67 303.5 67 317 58.5 c 128,-1,6
 330.5 50 330.5 50 378.5 50 c 2,7,-1
 396.5 50 l 1,8,-1
 396.5 0 l 1,9,-1
 66.5 0 l 1,10,-1
 66.5 50 l 1,11,-1
 70.5 50 l 2,12,13
 119.5 50 119.5 50 133 58.5 c 128,-1,14
 146.5 67 146.5 67 146.5 97 c 2,15,-1
 146.5 144 l 1,16,-1
 146.5 413 l 1,17,-1
 59.5 413 l 1,18,-1
 59.5 473 l 1,19,-1
 146.5 473 l 1,20,-1
 146.5 486 l 2,21,22
 146.5 597 146.5 597 206.5 665 c 128,-1,23
 266.5 733 266.5 733 364.5 733 c 0,24,25
 426.5 733 426.5 733 468 702 c 128,-1,26
 509.5 671 509.5 671 509.5 624 c 0,27,28
 509.5 589 509.5 589 486.5 565.5 c 128,-1,29
 463.5 542 463.5 542 429.5 542 c 0,30,31
 397.5 542 397.5 542 376 562 c 128,-1,32
 354.5 582 354.5 582 354.5 611 c 0,33,34
 354.5 644 354.5 644 379.5 664 c 0,35,36
 384.5 669 384.5 669 384.5 673 c 0,37,38
 384.5 681 384.5 681 368.5 681 c 0,39,40
 353.5 681 353.5 681 338 669.5 c 128,-1,41
 322.5 658 322.5 658 315.5 641 c 0,42,43
 303.5 615 303.5 615 303.5 530 c 2,44,-1
 303.5 473 l 1,45,-1
 428.5 473 l 1,0,-1
EndSplineSet
Validated: 524289
EndChar

StartChar: g
Encoding: 103 103 74
Width: 791
GlyphClass: 2
Flags: W
LayerCount: 2
Fore
SplineSet
332 97 m 2,0,-1
 401 97 l 2,1,2
 505 97 505 97 550 82 c 0,3,4
 587 71 587 71 610 38.5 c 128,-1,5
 633 6 633 6 633 -36 c 0,6,7
 633 -116 633 -116 558 -159 c 128,-1,8
 483 -202 483 -202 343 -202 c 0,9,10
 99 -202 99 -202 99 -104 c 0,11,12
 99 -69 99 -69 127 -46 c 128,-1,13
 155 -23 155 -23 205 -15 c 1,14,15
 114 10 114 10 114 78 c 0,16,17
 114 155 114 155 230 176 c 1,18,19
 120 214 120 214 120 317 c 0,20,21
 120 391 120 391 186.5 439.5 c 128,-1,22
 253 488 253 488 356 488 c 0,23,24
 432 488 432 488 490 459 c 1,25,26
 553 538 553 538 618 538 c 0,27,28
 651 538 651 538 671.5 520 c 128,-1,29
 692 502 692 502 692 473 c 0,30,31
 692 446 692 446 674 427.5 c 128,-1,32
 656 409 656 409 630 409 c 0,33,34
 610 409 610 409 593 423 c 128,-1,35
 576 437 576 437 576 454 c 2,36,-1
 576 458 l 2,37,38
 576 463 576 463 571 463 c 0,39,40
 554 463 554 463 534 435 c 1,41,42
 567 408 567 408 580.5 382.5 c 128,-1,43
 594 357 594 357 594 322 c 0,44,45
 594 276 594 276 570 239.5 c 128,-1,46
 546 203 546 203 502 183 c 0,47,48
 451 159 451 159 361 159 c 2,49,-1
 343 159 l 2,50,51
 300 159 300 159 283.5 152 c 128,-1,52
 267 145 267 145 267 126 c 0,53,54
 267 108 267 108 279.5 102.5 c 128,-1,55
 292 97 292 97 332 97 c 2,0,-1
359 436 m 0,56,57
 282 436 282 436 282 326 c 0,58,59
 282 275 282 275 298 243 c 0,60,61
 314 207 314 207 358 207 c 0,62,63
 393 207 393 207 412.5 237 c 128,-1,64
 432 267 432 267 432 320 c 0,65,66
 432 436 432 436 359 436 c 0,56,57
397 -43 m 2,67,-1
 266 -43 l 1,68,69
 229 -59 229 -59 229 -92 c 0,70,71
 229 -120 229 -120 260.5 -135 c 128,-1,72
 292 -150 292 -150 350 -150 c 0,73,74
 503 -150 503 -150 503 -89 c 0,75,76
 503 -66 503 -66 488 -56 c 0,77,78
 475 -48 475 -48 459 -45.5 c 128,-1,79
 443 -43 443 -43 397 -43 c 2,67,-1
EndSplineSet
Validated: 1
EndChar

StartChar: h
Encoding: 104 104 75
Width: 865
GlyphClass: 2
Flags: W
LayerCount: 2
Fore
SplineSet
347.5 737 m 1,0,-1
 347.5 396 l 1,1,2
 407.5 488 407.5 488 517.5 488 c 0,3,4
 598.5 488 598.5 488 640.5 440 c 0,5,6
 678.5 399 678.5 399 678.5 311 c 2,7,-1
 678.5 144 l 1,8,-1
 678.5 98 l 2,9,10
 678.5 67 678.5 67 692 59 c 128,-1,11
 705.5 51 705.5 51 753.5 51 c 2,12,-1
 757.5 51 l 1,13,-1
 757.5 0 l 1,14,-1
 452.5 0 l 1,15,-1
 452.5 51 l 1,16,17
 496.5 51 496.5 51 509 59.5 c 128,-1,18
 521.5 68 521.5 68 521.5 97 c 2,19,-1
 521.5 144 l 1,20,-1
 521.5 297 l 2,21,22
 521.5 395 521.5 395 450.5 395 c 0,23,24
 422.5 395 422.5 395 398.5 379 c 128,-1,25
 374.5 363 374.5 363 362.5 336 c 0,26,27
 347.5 303 347.5 303 347.5 241 c 2,28,-1
 347.5 144 l 1,29,-1
 347.5 98 l 2,30,31
 347.5 67 347.5 67 359.5 59 c 128,-1,32
 371.5 51 371.5 51 415.5 51 c 1,33,-1
 415.5 0 l 1,34,-1
 110.5 0 l 1,35,-1
 110.5 51 l 1,36,-1
 114.5 51 l 2,37,38
 163.5 51 163.5 51 177 59 c 128,-1,39
 190.5 67 190.5 67 190.5 97 c 2,40,-1
 190.5 144 l 1,41,-1
 190.5 574 l 2,42,43
 189.5 645 189.5 645 181 658 c 128,-1,44
 172.5 671 172.5 671 126.5 671 c 2,45,-1
 107.5 671 l 1,46,-1
 107.5 722 l 1,47,-1
 347.5 737 l 1,0,-1
EndSplineSet
Validated: 524289
EndChar

StartChar: i
Encoding: 105 105 76
Width: 550
GlyphClass: 2
Flags: W
LayerCount: 2
Fore
SplineSet
353.5 473 m 1,0,-1
 353.5 144 l 1,1,-1
 353.5 97 l 2,2,3
 353.5 68 353.5 68 366.5 59.5 c 128,-1,4
 379.5 51 379.5 51 425.5 51 c 2,5,-1
 431.5 51 l 1,6,-1
 431.5 0 l 1,7,-1
 118.5 0 l 1,8,-1
 118.5 51 l 1,9,-1
 122.5 51 l 2,10,11
 169.5 51 169.5 51 183 59.5 c 128,-1,12
 196.5 68 196.5 68 196.5 98 c 2,13,-1
 196.5 144 l 1,14,-1
 196.5 321 l 2,15,16
 196.5 388 196.5 388 187.5 401.5 c 128,-1,17
 178.5 415 178.5 415 132.5 415 c 2,18,-1
 118.5 415 l 1,19,-1
 118.5 466 l 1,20,-1
 353.5 473 l 1,0,-1
272.5 737 m 0,21,22
 308.5 737 308.5 737 334.5 711 c 128,-1,23
 360.5 685 360.5 685 360.5 649 c 0,24,25
 360.5 612 360.5 612 334.5 586 c 128,-1,26
 308.5 560 308.5 560 270.5 560 c 0,27,28
 235.5 560 235.5 560 209.5 586.5 c 128,-1,29
 183.5 613 183.5 613 183.5 649 c 128,-1,30
 183.5 685 183.5 685 209.5 711 c 128,-1,31
 235.5 737 235.5 737 272.5 737 c 0,21,22
EndSplineSet
Validated: 524289
EndChar

StartChar: j
Encoding: 106 106 77
Width: 532
GlyphClass: 2
Flags: W
LayerCount: 2
Fore
SplineSet
355 737 m 0,0,1
 391 737 391 737 417 711 c 128,-1,2
 443 685 443 685 443 649 c 0,3,4
 443 612 443 612 417 586 c 128,-1,5
 391 560 391 560 353 560 c 0,6,7
 318 560 318 560 292 586.5 c 128,-1,8
 266 613 266 613 266 649 c 128,-1,9
 266 685 266 685 292 711 c 128,-1,10
 318 737 318 737 355 737 c 0,0,1
439 473 m 1,11,-1
 439 109 l 2,12,13
 439 -34 439 -34 404 -101 c 0,14,15
 381 -147 381 -147 333.5 -174.5 c 128,-1,16
 286 -202 286 -202 229 -202 c 0,17,18
 168 -202 168 -202 128.5 -174 c 128,-1,19
 89 -146 89 -146 89 -102 c 0,20,21
 89 -70 89 -70 111 -48.5 c 128,-1,22
 133 -27 133 -27 167 -27 c 0,23,24
 195 -27 195 -27 213.5 -46 c 128,-1,25
 232 -65 232 -65 232 -94 c 0,26,27
 232 -125 232 -125 203 -144 c 1,28,29
 211 -155 211 -155 229 -155 c 0,30,31
 282 -155 282 -155 282 -56 c 2,32,-1
 282 329 l 2,33,34
 282 389 282 389 272 402 c 128,-1,35
 262 415 262 415 218 415 c 2,36,-1
 186 415 l 1,37,-1
 186 466 l 1,38,-1
 439 473 l 1,11,-1
EndSplineSet
Validated: 1
EndChar

StartChar: k
Encoding: 107 107 78
Width: 847
GlyphClass: 2
Flags: W
LayerCount: 2
Fore
SplineSet
339.5 737 m 1,0,-1
 339.5 246 l 1,1,-1
 463.5 354 l 2,2,3
 488.5 376 488.5 376 488.5 394 c 0,4,5
 488.5 422 488.5 422 428.5 422 c 2,6,-1
 416.5 422 l 1,7,-1
 416.5 473 l 1,8,-1
 710.5 473 l 1,9,-1
 710.5 422 l 1,10,-1
 687.5 422 l 2,11,12
 634.5 422 634.5 422 579.5 375 c 2,13,-1
 502.5 311 l 1,14,-1
 659.5 115 l 2,15,16
 692.5 72 692.5 72 707 61.5 c 128,-1,17
 721.5 51 721.5 51 747.5 51 c 1,18,-1
 747.5 0 l 1,19,-1
 441.5 0 l 1,20,-1
 441.5 51 l 1,21,-1
 451.5 51 l 2,22,23
 490.5 51 490.5 51 490.5 71 c 0,24,25
 490.5 86 490.5 86 477.5 102 c 2,26,-1
 385.5 213 l 1,27,-1
 339.5 172 l 1,28,-1
 339.5 144 l 1,29,-1
 339.5 98 l 2,30,31
 339.5 68 339.5 68 352 59.5 c 128,-1,32
 364.5 51 364.5 51 407.5 51 c 1,33,-1
 407.5 0 l 1,34,-1
 102.5 0 l 1,35,-1
 102.5 51 l 1,36,-1
 106.5 51 l 2,37,38
 155.5 51 155.5 51 169 59 c 128,-1,39
 182.5 67 182.5 67 182.5 97 c 2,40,-1
 182.5 144 l 1,41,-1
 182.5 578 l 2,42,43
 182.5 645 182.5 645 173.5 658 c 128,-1,44
 164.5 671 164.5 671 118.5 671 c 2,45,-1
 99.5 671 l 1,46,-1
 99.5 722 l 1,47,-1
 339.5 737 l 1,0,-1
EndSplineSet
Validated: 524289
EndChar

StartChar: l
Encoding: 108 108 79
Width: 532
GlyphClass: 2
Flags: W
LayerCount: 2
Fore
SplineSet
348.5 737 m 1,0,-1
 348.5 144 l 1,1,-1
 348.5 97 l 2,2,3
 348.5 66 348.5 66 363.5 58 c 0,4,5
 375.5 51 375.5 51 416.5 51 c 2,6,-1
 423.5 51 l 1,7,-1
 423.5 0 l 1,8,-1
 111.5 0 l 1,9,-1
 111.5 51 l 1,10,-1
 115.5 51 l 2,11,12
 164.5 51 164.5 51 178 59 c 128,-1,13
 191.5 67 191.5 67 191.5 97 c 2,14,-1
 191.5 144 l 1,15,-1
 191.5 578 l 2,16,17
 191.5 645 191.5 645 182.5 658 c 128,-1,18
 173.5 671 173.5 671 127.5 671 c 2,19,-1
 108.5 671 l 1,20,-1
 108.5 722 l 1,21,-1
 348.5 737 l 1,0,-1
EndSplineSet
Validated: 524289
EndChar

StartChar: m
Encoding: 109 109 80
Width: 1143
GlyphClass: 2
Flags: W
LayerCount: 2
Fore
SplineSet
338.5 473 m 1,0,-1
 338.5 394 l 1,1,2
 398.5 488 398.5 488 498.5 488 c 0,3,4
 548.5 488 548.5 488 586 464 c 128,-1,5
 623.5 440 623.5 440 639.5 398 c 1,6,7
 674.5 446 674.5 446 711.5 467 c 128,-1,8
 748.5 488 748.5 488 796.5 488 c 0,9,10
 863.5 488 863.5 488 908.5 446.5 c 128,-1,11
 953.5 405 953.5 405 953.5 343 c 2,12,-1
 953.5 144 l 1,13,-1
 953.5 97 l 2,14,15
 953.5 68 953.5 68 967 59.5 c 128,-1,16
 980.5 51 980.5 51 1028.5 51 c 2,17,-1
 1032.5 51 l 1,18,-1
 1032.5 0 l 1,19,-1
 738.5 0 l 1,20,-1
 738.5 51 l 1,21,22
 776.5 52 776.5 52 786.5 60 c 128,-1,23
 796.5 68 796.5 68 796.5 97 c 2,24,-1
 796.5 144 l 1,25,-1
 796.5 306 l 2,26,27
 796.5 395 796.5 395 741.5 395 c 0,28,29
 699.5 395 699.5 395 675 363 c 128,-1,30
 650.5 331 650.5 331 650.5 278 c 2,31,-1
 650.5 144 l 1,32,-1
 650.5 97 l 2,33,34
 650.5 68 650.5 68 660.5 60 c 128,-1,35
 670.5 52 670.5 52 708.5 51 c 1,36,-1
 708.5 0 l 1,37,-1
 436.5 0 l 1,38,-1
 436.5 51 l 1,39,40
 473.5 52 473.5 52 483.5 60 c 128,-1,41
 493.5 68 493.5 68 493.5 98 c 2,42,-1
 493.5 144 l 1,43,-1
 493.5 302 l 2,44,45
 493.5 351 493.5 351 480.5 373 c 128,-1,46
 467.5 395 467.5 395 438.5 395 c 0,47,48
 397.5 395 397.5 395 372.5 363 c 128,-1,49
 347.5 331 347.5 331 347.5 278 c 2,50,-1
 347.5 144 l 1,51,-1
 347.5 97 l 2,52,53
 347.5 68 347.5 68 357.5 60 c 128,-1,54
 367.5 52 367.5 52 405.5 51 c 1,55,-1
 405.5 0 l 1,56,-1
 110.5 0 l 1,57,-1
 110.5 51 l 1,58,-1
 115.5 51 l 2,59,60
 163.5 51 163.5 51 177 59 c 128,-1,61
 190.5 67 190.5 67 190.5 98 c 2,62,-1
 190.5 144 l 1,63,-1
 190.5 321 l 2,64,65
 190.5 388 190.5 388 181.5 401.5 c 128,-1,66
 172.5 415 172.5 415 126.5 415 c 2,67,-1
 110.5 415 l 1,68,-1
 110.5 466 l 1,69,-1
 338.5 473 l 1,0,-1
EndSplineSet
Validated: 524289
EndChar

StartChar: n
Encoding: 110 110 81
Width: 865
GlyphClass: 2
Flags: W
LayerCount: 2
Fore
SplineSet
337.5 473 m 1,0,-1
 337.5 385 l 1,1,2
 374.5 441 374.5 441 415.5 464.5 c 128,-1,3
 456.5 488 456.5 488 515.5 488 c 0,4,5
 597.5 488 597.5 488 639.5 440 c 0,6,7
 677.5 399 677.5 399 677.5 311 c 2,8,-1
 677.5 144 l 1,9,-1
 677.5 98 l 2,10,11
 677.5 67 677.5 67 691 59 c 128,-1,12
 704.5 51 704.5 51 752.5 51 c 2,13,-1
 756.5 51 l 1,14,-1
 756.5 0 l 1,15,-1
 451.5 0 l 1,16,-1
 451.5 51 l 1,17,18
 495.5 51 495.5 51 508 59.5 c 128,-1,19
 520.5 68 520.5 68 520.5 97 c 2,20,-1
 520.5 144 l 1,21,-1
 520.5 297 l 2,22,23
 520.5 395 520.5 395 447.5 395 c 0,24,25
 420.5 395 420.5 395 396.5 379 c 128,-1,26
 372.5 363 372.5 363 360.5 336 c 0,27,28
 344.5 304 344.5 304 344.5 241 c 2,29,-1
 344.5 144 l 1,30,-1
 344.5 97 l 2,31,32
 344.5 68 344.5 68 357 59.5 c 128,-1,33
 369.5 51 369.5 51 413.5 51 c 1,34,-1
 413.5 0 l 1,35,-1
 108.5 0 l 1,36,-1
 108.5 51 l 1,37,-1
 112.5 51 l 2,38,39
 160.5 51 160.5 51 174 59 c 128,-1,40
 187.5 67 187.5 67 187.5 98 c 2,41,-1
 187.5 144 l 1,42,-1
 187.5 318 l 2,43,44
 187.5 388 187.5 388 178.5 401.5 c 128,-1,45
 169.5 415 169.5 415 123.5 415 c 2,46,-1
 108.5 415 l 1,47,-1
 108.5 466 l 1,48,-1
 337.5 473 l 1,0,-1
EndSplineSet
Validated: 524289
EndChar

StartChar: o
Encoding: 111 111 82
Width: 791
GlyphClass: 2
Flags: W
LayerCount: 2
Fore
SplineSet
398.5 488 m 0,0,1
 512.5 488 512.5 488 591 414.5 c 128,-1,2
 669.5 341 669.5 341 669.5 234 c 128,-1,3
 669.5 127 669.5 127 591 56 c 128,-1,4
 512.5 -15 512.5 -15 394.5 -15 c 128,-1,5
 276.5 -15 276.5 -15 199 56 c 128,-1,6
 121.5 127 121.5 127 121.5 236 c 0,7,8
 121.5 344 121.5 344 200.5 416 c 128,-1,9
 279.5 488 279.5 488 398.5 488 c 0,0,1
396.5 436 m 0,10,11
 294.5 436 294.5 436 294.5 236 c 0,12,13
 294.5 37 294.5 37 395.5 37 c 0,14,15
 443.5 37 443.5 37 470 88.5 c 128,-1,16
 496.5 140 496.5 140 496.5 235 c 0,17,18
 496.5 322 496.5 322 476.5 377 c 0,19,20
 466.5 403 466.5 403 444.5 419.5 c 128,-1,21
 422.5 436 422.5 436 396.5 436 c 0,10,11
EndSplineSet
Validated: 524289
EndChar

StartChar: p
Encoding: 112 112 83
Width: 847
GlyphClass: 2
Flags: W
LayerCount: 2
Fore
SplineSet
352.5 473 m 1,0,-1
 352.5 409 l 1,1,2
 386.5 452 386.5 452 422 470 c 128,-1,3
 457.5 488 457.5 488 508.5 488 c 0,4,5
 604.5 488 604.5 488 667.5 420 c 128,-1,6
 730.5 352 730.5 352 730.5 249 c 0,7,8
 730.5 137 730.5 137 663 61 c 128,-1,9
 595.5 -15 595.5 -15 494.5 -15 c 0,10,11
 411.5 -15 411.5 -15 352.5 50 c 1,12,-1
 352.5 -58 l 1,13,-1
 352.5 -105 l 2,14,15
 352.5 -135 352.5 -135 366 -143.5 c 128,-1,16
 379.5 -152 379.5 -152 428.5 -152 c 2,17,-1
 439.5 -152 l 1,18,-1
 439.5 -202 l 1,19,-1
 116.5 -202 l 1,20,-1
 116.5 -152 l 1,21,-1
 120.5 -152 l 2,22,23
 168.5 -152 168.5 -152 182 -143.5 c 128,-1,24
 195.5 -135 195.5 -135 195.5 -105 c 2,25,-1
 195.5 -58 l 1,26,-1
 195.5 318 l 2,27,28
 194.5 389 194.5 389 186 402 c 128,-1,29
 177.5 415 177.5 415 131.5 415 c 2,30,-1
 116.5 415 l 1,31,-1
 116.5 466 l 1,32,-1
 352.5 473 l 1,0,-1
464.5 413 m 0,33,34
 409.5 413 409.5 413 380.5 365.5 c 128,-1,35
 351.5 318 351.5 318 351.5 229 c 0,36,37
 351.5 144 351.5 144 379 98.5 c 128,-1,38
 406.5 53 406.5 53 456.5 53 c 0,39,40
 503.5 53 503.5 53 530.5 100.5 c 128,-1,41
 557.5 148 557.5 148 557.5 232 c 0,42,43
 557.5 413 557.5 413 464.5 413 c 0,33,34
EndSplineSet
Validated: 524289
EndChar

StartChar: q
Encoding: 113 113 84
Width: 828
GlyphClass: 2
Flags: W
LayerCount: 2
Fore
SplineSet
604 487 m 1,0,-1
 653 487 l 1,1,2
 638 368 638 368 638 272 c 2,3,-1
 638 -58 l 1,4,-1
 638 -105 l 2,5,6
 638 -135 638 -135 651.5 -143.5 c 128,-1,7
 665 -152 665 -152 713 -152 c 2,8,-1
 717 -152 l 1,9,-1
 717 -202 l 1,10,-1
 394 -202 l 1,11,-1
 394 -152 l 1,12,-1
 405 -152 l 2,13,14
 454 -152 454 -152 467.5 -143.5 c 128,-1,15
 481 -135 481 -135 481 -105 c 2,16,-1
 481 -58 l 1,17,-1
 481 58 l 1,18,19
 418 -15 418 -15 327 -15 c 0,20,21
 283 -15 283 -15 240.5 3.5 c 128,-1,22
 198 22 198 22 172 53 c 0,23,24
 144 84 144 84 127.5 133 c 128,-1,25
 111 182 111 182 111 232 c 0,26,27
 111 342 111 342 183.5 415 c 128,-1,28
 256 488 256 488 366 488 c 0,29,30
 475 488 475 488 540 407 c 1,31,-1
 604 487 l 1,0,-1
385 436 m 0,32,33
 284 436 284 436 284 236 c 0,34,35
 284 53 284 53 381 53 c 0,36,37
 429 53 429 53 456.5 106.5 c 128,-1,38
 484 160 484 160 484 253 c 0,39,40
 484 330 484 330 467 372 c 0,41,42
 455 401 455 401 432.5 418.5 c 128,-1,43
 410 436 410 436 385 436 c 0,32,33
EndSplineSet
Validated: 1
EndChar

StartChar: r
Encoding: 114 114 85
Width: 699
GlyphClass: 2
Flags: W
LayerCount: 2
Fore
SplineSet
323 473 m 1,0,-1
 323 352 l 1,1,2
 376 488 376 488 489 488 c 0,3,4
 537 488 537 488 568 459.5 c 128,-1,5
 599 431 599 431 599 387 c 0,6,7
 599 350 599 350 574.5 325.5 c 128,-1,8
 550 301 550 301 513 301 c 0,9,10
 481 301 481 301 459.5 322 c 128,-1,11
 438 343 438 343 438 375 c 0,12,13
 438 398 438 398 455 422 c 1,14,15
 408 408 408 408 379 357 c 0,16,17
 337 283 337 283 337 164 c 2,18,-1
 337 144 l 1,19,-1
 337 98 l 2,20,21
 337 67 337 67 350.5 59 c 128,-1,22
 364 51 364 51 412 51 c 2,23,-1
 434 51 l 1,24,-1
 434 0 l 1,25,-1
 100 0 l 1,26,-1
 100 51 l 1,27,-1
 104 51 l 2,28,29
 152 51 152 51 165.5 59 c 128,-1,30
 179 67 179 67 179 98 c 2,31,-1
 179 144 l 1,32,-1
 179 318 l 2,33,34
 179 388 179 388 170 401.5 c 128,-1,35
 161 415 161 415 115 415 c 2,36,-1
 100 415 l 1,37,-1
 100 466 l 1,38,-1
 323 473 l 1,0,-1
EndSplineSet
Validated: 1
EndChar

StartChar: s
Encoding: 115 115 86
Width: 680
GlyphClass: 2
Flags: W
LayerCount: 2
Fore
SplineSet
527 478 m 1,0,-1
 531 320 l 1,1,-1
 484 320 l 1,2,3
 447 381 447 381 409.5 408.5 c 128,-1,4
 372 436 372 436 324 436 c 0,5,6
 287 436 287 436 263.5 419.5 c 128,-1,7
 240 403 240 403 240 378 c 0,8,9
 240 359 240 359 252.5 349 c 128,-1,10
 265 339 265 339 302 329 c 2,11,-1
 392 307 l 2,12,13
 446 294 446 294 468.5 284 c 128,-1,14
 491 274 491 274 511 257 c 0,15,16
 554 219 554 219 554 155 c 0,17,18
 554 80 554 80 498 32.5 c 128,-1,19
 442 -15 442 -15 353 -15 c 0,20,21
 271 -15 271 -15 212 20 c 1,22,-1
 173 2 l 1,23,-1
 131 2 l 1,24,-1
 126 175 l 1,25,-1
 171 175 l 1,26,27
 241 37 241 37 353 37 c 0,28,29
 393 37 393 37 416 53 c 128,-1,30
 439 69 439 69 439 96 c 0,31,32
 439 139 439 139 369 154 c 2,33,-1
 296 170 l 2,34,35
 212 188 212 188 172 227 c 0,36,37
 130 267 130 267 130 326 c 0,38,39
 130 397 130 397 184.5 442.5 c 128,-1,40
 239 488 239 488 323 488 c 0,41,42
 392 488 392 488 447 456 c 1,43,-1
 484 478 l 1,44,-1
 527 478 l 1,0,-1
EndSplineSet
Validated: 1
EndChar

StartChar: t
Encoding: 116 116 87
Width: 606
GlyphClass: 2
Flags: W
LayerCount: 2
Fore
SplineSet
470 473 m 1,0,-1
 470 413 l 1,1,-1
 340 413 l 1,2,-1
 340 156 l 2,3,4
 340 105 340 105 347.5 87.5 c 128,-1,5
 355 70 355 70 377 70 c 0,6,7
 408 70 408 70 424.5 100.5 c 128,-1,8
 441 131 441 131 440 186 c 1,9,-1
 493 186 l 1,10,11
 494 176 494 176 494 163 c 0,12,13
 494 91 494 91 454 40 c 0,14,15
 413 -15 413 -15 325 -15 c 128,-1,16
 237 -15 237 -15 204 40 c 0,17,18
 191 61 191 61 187 87 c 128,-1,19
 183 113 183 113 183 174 c 2,20,-1
 183 413 l 1,21,-1
 112 413 l 1,22,-1
 112 465 l 1,23,24
 253 481 253 481 277 671 c 1,25,-1
 340 671 l 1,26,-1
 340 473 l 1,27,-1
 470 473 l 1,0,-1
EndSplineSet
Validated: 33
EndChar

StartChar: u
Encoding: 117 117 88
Width: 865
GlyphClass: 2
Flags: W
LayerCount: 2
Fore
SplineSet
676.5 473 m 1,0,-1
 676.5 131 l 1,1,-1
 676.5 108 l 2,2,3
 676.5 81 676.5 81 686.5 73 c 128,-1,4
 696.5 65 696.5 65 731.5 65 c 2,5,-1
 759.5 65 l 1,6,-1
 759.5 11 l 1,7,-1
 526.5 0 l 1,8,-1
 526.5 82 l 1,9,10
 483.5 29 483.5 29 443 7 c 128,-1,11
 402.5 -15 402.5 -15 349.5 -15 c 0,12,13
 243.5 -15 243.5 -15 201.5 71 c 0,14,15
 191.5 92 191.5 92 188.5 113.5 c 128,-1,16
 185.5 135 185.5 135 185.5 191 c 2,17,-1
 185.5 318 l 2,18,19
 184.5 389 184.5 389 176 402 c 128,-1,20
 167.5 415 167.5 415 121.5 415 c 2,21,-1
 105.5 415 l 1,22,-1
 105.5 466 l 1,23,-1
 342.5 473 l 1,24,-1
 342.5 185 l 2,25,26
 342.5 128 342.5 128 359 103 c 128,-1,27
 375.5 78 375.5 78 413.5 78 c 0,28,29
 441.5 78 441.5 78 466 93.5 c 128,-1,30
 490.5 109 490.5 109 502.5 135 c 0,31,32
 519.5 168 519.5 168 519.5 238 c 2,33,-1
 519.5 318 l 2,34,35
 519.5 388 519.5 388 510.5 401.5 c 128,-1,36
 501.5 415 501.5 415 455.5 415 c 2,37,-1
 439.5 415 l 1,38,-1
 439.5 466 l 1,39,-1
 676.5 473 l 1,0,-1
EndSplineSet
Validated: 524289
EndChar

StartChar: v
Encoding: 118 118 89
Width: 791
GlyphClass: 2
Flags: W
LayerCount: 2
Fore
SplineSet
447.5 140 m 1,0,-1
 520.5 324 l 2,1,2
 538.5 368 538.5 368 538.5 384 c 0,3,4
 538.5 405 538.5 405 520.5 414 c 128,-1,5
 502.5 423 502.5 423 461.5 423 c 1,6,-1
 461.5 473 l 1,7,-1
 688.5 473 l 1,8,-1
 688.5 423 l 1,9,-1
 684.5 423 l 2,10,11
 654.5 423 654.5 423 635 404 c 128,-1,12
 615.5 385 615.5 385 593.5 335 c 2,13,-1
 439.5 -14 l 1,14,-1
 354.5 -14 l 1,15,-1
 170.5 370 l 2,16,17
 154.5 403 154.5 403 142.5 412 c 128,-1,18
 130.5 421 130.5 421 102.5 423 c 1,19,-1
 102.5 473 l 1,20,-1
 384.5 473 l 1,21,-1
 384.5 423 l 1,22,23
 332.5 423 332.5 423 332.5 400 c 0,24,25
 332.5 390 332.5 390 340.5 374 c 2,26,-1
 447.5 140 l 1,0,-1
EndSplineSet
Validated: 524289
EndChar

StartChar: w
Encoding: 119 119 90
Width: 1069
GlyphClass: 2
Flags: W
LayerCount: 2
Fore
SplineSet
729 154 m 1,0,-1
 799 324 l 2,1,2
 813 358 813 358 813 376 c 0,3,4
 813 397 813 397 794 409.5 c 128,-1,5
 775 422 775 422 744 422 c 2,6,-1
 737 422 l 1,7,-1
 737 473 l 1,8,-1
 963 473 l 1,9,-1
 963 422 l 1,10,11
 929 420 929 420 910 402.5 c 128,-1,12
 891 385 891 385 869 337 c 2,13,-1
 712 -14 l 1,14,-1
 637 -14 l 1,15,-1
 530 249 l 1,16,-1
 416 -14 l 1,17,-1
 340 -14 l 1,18,-1
 177 366 l 2,19,20
 163 398 163 398 149 409.5 c 128,-1,21
 135 421 135 421 106 422 c 1,22,-1
 106 473 l 1,23,-1
 382 473 l 1,24,-1
 382 422 l 1,25,26
 352 421 352 421 342.5 416.5 c 128,-1,27
 333 412 333 412 333 398 c 0,28,29
 333 393 333 393 340 375 c 2,30,-1
 427 154 l 1,31,-1
 499 324 l 1,32,-1
 474 384 l 2,33,34
 464 407 464 407 452.5 414.5 c 128,-1,35
 441 422 441 422 413 422 c 1,36,-1
 413 473 l 1,37,-1
 692 473 l 1,38,-1
 692 422 l 1,39,-1
 685 422 l 2,40,41
 631 422 631 422 631 399 c 0,42,43
 631 390 631 390 637 377 c 2,44,-1
 729 154 l 1,0,-1
EndSplineSet
Validated: 1
EndChar

StartChar: x
Encoding: 120 120 91
Width: 791
GlyphClass: 2
Flags: W
LayerCount: 2
Fore
SplineSet
460 272 m 1,0,-1
 598 108 l 2,1,2
 630 71 630 71 645 61.5 c 128,-1,3
 660 52 660 52 688 51 c 1,4,-1
 688 0 l 1,5,-1
 374 0 l 1,6,-1
 374 51 l 1,7,-1
 381 51 l 2,8,9
 421 51 421 51 421 74 c 0,10,11
 421 84 421 84 410 96 c 2,12,-1
 351 167 l 1,13,-1
 291 108 l 2,14,15
 277 94 277 94 277 79 c 0,16,17
 277 51 277 51 324 51 c 2,18,-1
 337 51 l 1,19,-1
 337 0 l 1,20,-1
 103 0 l 1,21,-1
 103 51 l 1,22,23
 143 52 143 52 192 97 c 2,24,-1
 313 212 l 1,25,-1
 170 383 l 2,26,27
 151 406 151 406 138.5 413 c 128,-1,28
 126 420 126 420 103 422 c 1,29,-1
 103 473 l 1,30,-1
 399 473 l 1,31,-1
 399 422 l 1,32,-1
 388 422 l 2,33,34
 355 422 355 422 355 406 c 0,35,36
 355 397 355 397 366 385 c 2,37,-1
 423 316 l 1,38,-1
 474 365 l 2,39,40
 495 385 495 385 495 399 c 0,41,42
 495 422 495 422 455 422 c 2,43,-1
 432 422 l 1,44,-1
 432 473 l 1,45,-1
 678 473 l 1,46,-1
 678 422 l 1,47,48
 620 422 620 422 564 370 c 2,49,-1
 460 272 l 1,0,-1
EndSplineSet
Validated: 1
EndChar

StartChar: y
Encoding: 121 121 92
Width: 791
GlyphClass: 2
Flags: W
LayerCount: 2
Fore
SplineSet
450.5 158 m 1,0,-1
 533.5 341 l 2,1,2
 542.5 363 542.5 363 542.5 382 c 0,3,4
 542.5 422 542.5 422 475.5 422 c 2,5,-1
 464.5 422 l 1,6,-1
 464.5 473 l 1,7,-1
 689.5 473 l 1,8,-1
 689.5 422 l 1,9,10
 658.5 421 658.5 421 639.5 403.5 c 128,-1,11
 620.5 386 620.5 386 598.5 340 c 2,12,-1
 423.5 -37 l 2,13,14
 383.5 -125 383.5 -125 336 -165.5 c 128,-1,15
 288.5 -206 288.5 -206 225.5 -206 c 0,16,17
 169.5 -206 169.5 -206 135.5 -180.5 c 128,-1,18
 101.5 -155 101.5 -155 101.5 -114 c 0,19,20
 101.5 -77 101.5 -77 126.5 -52 c 128,-1,21
 151.5 -27 151.5 -27 188.5 -27 c 0,22,23
 221.5 -27 221.5 -27 242.5 -46 c 128,-1,24
 263.5 -65 263.5 -65 263.5 -95 c 0,25,26
 263.5 -116 263.5 -116 255.5 -129 c 0,27,28
 254.5 -130 254.5 -130 254.5 -132 c 0,29,30
 254.5 -138 254.5 -138 263.5 -138 c 0,31,32
 308.5 -138 308.5 -138 348.5 -59 c 2,33,-1
 371.5 -16 l 1,34,-1
 166.5 382 l 2,35,36
 154.5 407 154.5 407 143.5 414 c 128,-1,37
 132.5 421 132.5 421 105.5 422 c 1,38,-1
 105.5 473 l 1,39,-1
 389.5 473 l 1,40,-1
 389.5 422 l 1,41,-1
 371.5 422 l 2,42,43
 336.5 422 336.5 422 336.5 401 c 0,44,45
 336.5 390 336.5 390 344.5 374 c 2,46,-1
 450.5 158 l 1,0,-1
EndSplineSet
Validated: 524289
EndChar

StartChar: z
Encoding: 122 122 93
Width: 717
GlyphClass: 2
Flags: W
LayerCount: 2
Fore
SplineSet
588.5 473 m 1,0,-1
 588.5 425 l 1,1,-1
 318.5 50 l 1,2,-1
 380.5 50 l 2,3,4
 431.5 50 431.5 50 451 57 c 128,-1,5
 470.5 64 470.5 64 490.5 88 c 0,6,7
 520.5 125 520.5 125 539.5 190 c 1,8,-1
 588.5 190 l 1,9,-1
 578.5 0 l 1,10,-1
 128.5 0 l 1,11,-1
 128.5 44 l 1,12,-1
 400.5 423 l 1,13,-1
 349.5 423 l 2,14,15
 297.5 423 297.5 423 277 417.5 c 128,-1,16
 256.5 412 256.5 412 239.5 395 c 0,17,18
 220.5 375 220.5 375 195.5 293 c 1,19,-1
 144.5 293 l 1,20,-1
 156.5 473 l 1,21,-1
 588.5 473 l 1,0,-1
EndSplineSet
Validated: 524289
EndChar

StartChar: braceleft
Encoding: 123 123 94
Width: 389
GlyphClass: 2
Flags: W
LayerCount: 2
Fore
SplineSet
84 285 m 1,0,-1
 84 329 l 1,1,2
 116 337 116 337 130 346.5 c 128,-1,3
 144 356 144 356 152 375 c 128,-1,4
 160 394 160 394 160 462 c 2,5,-1
 160 572 l 2,6,7
 160 666 160 666 196 695 c 0,8,9
 226 722 226 722 291 722 c 2,10,-1
 343 722 l 1,11,-1
 343 676 l 1,12,13
 310 673 310 673 296.5 657.5 c 128,-1,14
 283 642 283 642 283 606 c 2,15,-1
 283 550 l 1,16,-1
 283 432 l 2,17,18
 283 374 283 374 261.5 348 c 128,-1,19
 240 322 240 322 181 307 c 1,20,21
 240 292 240 292 261.5 266 c 128,-1,22
 283 240 283 240 283 182 c 2,23,-1
 283 64 l 2,24,25
 283 -1 283 -1 284 -13.5 c 128,-1,26
 285 -26 285 -26 292 -37 c 0,27,28
 305 -58 305 -58 343 -62 c 1,29,-1
 343 -108 l 1,30,-1
 291 -108 l 2,31,32
 226 -108 226 -108 196 -81 c 0,33,34
 160 -52 160 -52 160 42 c 2,35,-1
 160 152 l 2,36,37
 160 202 160 202 158 217.5 c 128,-1,38
 156 233 156 233 148 247 c 0,39,40
 139 262 139 262 126 269.5 c 128,-1,41
 113 277 113 277 84 285 c 1,0,-1
EndSplineSet
Validated: 1
EndChar

StartChar: bar
Encoding: 124 124 95
Width: 606
GlyphClass: 2
Flags: W
LayerCount: 2
Fore
SplineSet
362 722 m 1,0,-1
 362 0 l 1,1,-1
 243 0 l 1,2,-1
 243 722 l 1,3,-1
 362 722 l 1,0,-1
EndSplineSet
Validated: 1
EndChar

StartChar: braceright
Encoding: 125 125 96
Width: 389
GlyphClass: 2
Flags: W
LayerCount: 2
Fore
SplineSet
290 329 m 1,0,-1
 290 285 l 1,1,2
 259 277 259 277 245 267.5 c 128,-1,3
 231 258 231 258 224 239 c 0,4,5
 216 218 216 218 216 152 c 2,6,-1
 216 42 l 2,7,8
 216 -52 216 -52 180 -81 c 0,9,10
 150 -108 150 -108 85 -108 c 2,11,-1
 31 -108 l 1,12,-1
 31 -62 l 1,13,14
 70 -58 70 -58 83 -37 c 0,15,16
 90 -26 90 -26 91.5 -13.5 c 128,-1,17
 93 -1 93 -1 93 64 c 2,18,-1
 93 182 l 2,19,20
 93 240 93 240 114.5 266 c 128,-1,21
 136 292 136 292 195 307 c 1,22,23
 136 322 136 322 114.5 348 c 128,-1,24
 93 374 93 374 93 432 c 2,25,-1
 93 550 l 1,26,-1
 93 606 l 2,27,28
 93 641 93 641 79 657 c 128,-1,29
 65 673 65 673 31 676 c 1,30,-1
 31 722 l 1,31,-1
 85 722 l 2,32,33
 150 722 150 722 180 695 c 0,34,35
 216 666 216 666 216 572 c 2,36,-1
 216 462 l 2,37,38
 216 413 216 413 218 397 c 128,-1,39
 220 381 220 381 228 367 c 0,40,41
 236 352 236 352 249 344 c 128,-1,42
 262 336 262 336 290 329 c 1,0,-1
EndSplineSet
Validated: 1
EndChar

StartChar: asciitilde
Encoding: 126 126 97
Width: 606
GlyphClass: 2
Flags: W
LayerCount: 2
Fore
SplineSet
135 169 m 1,0,-1
 51 222 l 1,1,2
 111 335 111 335 195 335 c 0,3,4
 224 335 224 335 285 312 c 2,5,-1
 338 293 l 2,6,7
 386 274 386 274 404 274 c 0,8,9
 421 274 421 274 435.5 285 c 128,-1,10
 450 296 450 296 471 326 c 1,11,-1
 555 273 l 1,12,13
 493 160 493 160 411 160 c 0,14,15
 379 160 379 160 321 183 c 2,16,-1
 268 202 l 2,17,18
 220 221 220 221 202 221 c 0,19,20
 185 221 185 221 170.5 210 c 128,-1,21
 156 199 156 199 135 169 c 1,0,-1
EndSplineSet
Validated: 1
EndChar

StartChar: sterling
Encoding: 163 163 99
Width: 754
GlyphClass: 2
Flags: W
LayerCount: 2
Fore
SplineSet
512.5 612 m 0,0,1
 512.5 651 512.5 651 420.5 651 c 0,2,3
 375.5 651 375.5 651 345 611 c 128,-1,4
 314.5 571 314.5 571 315.5 508 c 0,5,6
 316.5 469 316.5 469 331.5 372 c 1,7,-1
 538.5 372 l 1,8,-1
 538.5 307 l 1,9,-1
 338.5 307 l 1,10,11
 343.5 231 343.5 231 326.5 172.5 c 128,-1,12
 309.5 114 309.5 114 259.5 71 c 1,13,14
 336.5 86 336.5 86 438.5 85 c 0,15,16
 539.5 84 539.5 84 591.5 200 c 1,17,-1
 640.5 185 l 1,18,19
 621.5 86 621.5 86 575 35.5 c 128,-1,20
 528.5 -15 528.5 -15 457.5 -15 c 0,21,22
 445.5 -15 445.5 -15 381.5 -8 c 128,-1,23
 317.5 -1 317.5 -1 265 0.5 c 128,-1,24
 212.5 2 212.5 2 128.5 -8 c 1,25,-1
 120.5 66 l 1,26,27
 211.5 133 211.5 133 188.5 307 c 1,28,-1
 113.5 307 l 1,29,-1
 113.5 372 l 1,30,-1
 176.5 372 l 1,31,32
 164.5 444 164.5 444 164.5 506 c 0,33,34
 164.5 595 164.5 595 228.5 649.5 c 128,-1,35
 292.5 704 292.5 704 396.5 704 c 0,36,37
 503.5 704 503.5 704 563 664.5 c 128,-1,38
 622.5 625 622.5 625 622.5 548 c 0,39,40
 622.5 505 622.5 505 595.5 477 c 128,-1,41
 568.5 449 568.5 449 527.5 449 c 0,42,43
 493.5 449 493.5 449 471 471 c 128,-1,44
 448.5 493 448.5 493 448.5 526 c 0,45,46
 448.5 567 448.5 567 488.5 588 c 0,47,48
 512.5 601 512.5 601 512.5 612 c 0,0,1
EndSplineSet
Validated: 524321
EndChar

StartChar: uni0591
Encoding: 1425 1425 100
Width: 0
GlyphClass: 2
Flags: W
LayerCount: 2
Fore
SplineSet
-35 -136 m 1,0,-1
 -35 -60 l 1,1,-1
 35 -60 l 1,2,-1
 35 -136 l 1,3,4
 75 -147 75 -147 101 -181 c 128,-1,5
 127 -215 127 -215 127 -258 c 1,6,-1
 56 -258 l 1,7,8
 56 -234 56 -234 39.5 -217.5 c 128,-1,9
 23 -201 23 -201 0 -201 c 128,-1,10
 -23 -201 -23 -201 -39.5 -217.5 c 128,-1,11
 -56 -234 -56 -234 -56 -258 c 1,12,-1
 -127 -258 l 1,13,14
 -127 -215 -127 -215 -101 -181 c 128,-1,15
 -75 -147 -75 -147 -35 -136 c 1,0,-1
EndSplineSet
Validated: 1
EndChar

StartChar: uni0592
Encoding: 1426 1426 101
Width: 0
GlyphClass: 2
Flags: W
LayerCount: 2
Fore
SplineSet
-3 772 m 128,-1,1
 -21 772 -21 772 -34 785 c 128,-1,2
 -47 798 -47 798 -47 816 c 128,-1,3
 -47 834 -47 834 -34 847 c 128,-1,4
 -21 860 -21 860 -3 860 c 128,-1,5
 15 860 15 860 28 847 c 128,-1,6
 41 834 41 834 41 816 c 128,-1,7
 41 798 41 798 28 785 c 128,-1,0
 15 772 15 772 -3 772 c 128,-1,1
-56 660 m 128,-1,9
 -74 660 -74 660 -87 673 c 128,-1,10
 -100 686 -100 686 -100 704 c 128,-1,11
 -100 722 -100 722 -87 735 c 128,-1,12
 -74 748 -74 748 -56 748 c 128,-1,13
 -38 748 -38 748 -25 735 c 128,-1,14
 -12 722 -12 722 -12 704 c 128,-1,15
 -12 686 -12 686 -25 673 c 128,-1,8
 -38 660 -38 660 -56 660 c 128,-1,9
56 660 m 128,-1,17
 38 660 38 660 25 673 c 128,-1,18
 12 686 12 686 12 704 c 128,-1,19
 12 722 12 722 25 735 c 128,-1,20
 38 748 38 748 56 748 c 128,-1,21
 74 748 74 748 87 735 c 128,-1,22
 100 722 100 722 100 704 c 128,-1,23
 100 686 100 686 87 673 c 128,-1,16
 74 660 74 660 56 660 c 128,-1,17
EndSplineSet
Validated: 1
EndChar

StartChar: uni0593
Encoding: 1427 1427 102
Width: 0
GlyphClass: 2
Flags: W
LayerCount: 2
Fore
SplineSet
7 915 m 1,0,-1
 92 868 l 1,1,-1
 21 828 l 1,2,-1
 92 787 l 1,3,-1
 21 747 l 1,4,-1
 92 707 l 1,5,-1
 7 660 l 1,6,-1
 -46 690 l 1,7,-1
 -21 707 l 1,8,-1
 -92 747 l 1,9,-1
 -21 787 l 1,10,-1
 -92 828 l 1,11,-1
 -21 868 l 1,12,-1
 -46 885 l 1,13,-1
 7 915 l 1,0,-1
EndSplineSet
Validated: 1
EndChar

StartChar: uni0594
Encoding: 1428 1428 103
Width: 0
GlyphClass: 2
Flags: W
LayerCount: 2
Fore
SplineSet
0 748 m 128,-1,1
 18 748 18 748 31 735 c 128,-1,2
 44 722 44 722 44 704 c 128,-1,3
 44 686 44 686 31 673 c 128,-1,4
 18 660 18 660 0 660 c 128,-1,5
 -18 660 -18 660 -31 673 c 128,-1,6
 -44 686 -44 686 -44 704 c 128,-1,7
 -44 722 -44 722 -31 735 c 128,-1,0
 -18 748 -18 748 0 748 c 128,-1,1
0 860 m 128,-1,9
 18 860 18 860 31 847 c 128,-1,10
 44 834 44 834 44 816 c 128,-1,11
 44 798 44 798 31 785 c 128,-1,12
 18 772 18 772 0 772 c 128,-1,13
 -18 772 -18 772 -31 785 c 128,-1,14
 -44 798 -44 798 -44 816 c 128,-1,15
 -44 834 -44 834 -31 847 c 128,-1,8
 -18 860 -18 860 0 860 c 128,-1,9
EndSplineSet
Validated: 1
EndChar

StartChar: uni0595
Encoding: 1429 1429 104
Width: 0
GlyphClass: 2
Flags: W
LayerCount: 2
Fore
SplineSet
-105 864 m 1,0,-1
 -35 864 l 1,1,-1
 -35 660 l 1,2,-1
 -105 660 l 1,3,-1
 -105 864 l 1,0,-1
61 748 m 128,-1,5
 79 748 79 748 92 735 c 128,-1,6
 105 722 105 722 105 704 c 128,-1,7
 105 686 105 686 92 673 c 128,-1,8
 79 660 79 660 61 660 c 128,-1,9
 43 660 43 660 30 673 c 128,-1,10
 17 686 17 686 17 704 c 128,-1,11
 17 722 17 722 30 735 c 128,-1,4
 43 748 43 748 61 748 c 128,-1,5
61 860 m 128,-1,13
 79 860 79 860 92 847 c 128,-1,14
 105 834 105 834 105 816 c 128,-1,15
 105 798 105 798 92 785 c 128,-1,16
 79 772 79 772 61 772 c 128,-1,17
 43 772 43 772 30 785 c 128,-1,18
 17 798 17 798 17 816 c 128,-1,19
 17 834 17 834 30 847 c 128,-1,12
 43 860 43 860 61 860 c 128,-1,13
EndSplineSet
Validated: 1
EndChar

StartChar: uni0596
Encoding: 1430 1430 105
Width: 0
GlyphClass: 2
Flags: W
LayerCount: 2
Fore
SplineSet
28 -272 m 1,0,1
 -71 -195 -71 -195 -71 -70 c 0,2,3
 -71 -65 -71 -65 -70 -60 c 1,4,-1
 0 -60 l 1,5,6
 4 -161 4 -161 71 -236 c 1,7,-1
 28 -272 l 1,0,1
EndSplineSet
Validated: 1
EndChar

StartChar: uni0597
Encoding: 1431 1431 106
Width: 0
GlyphClass: 2
Flags: W
LayerCount: 2
Fore
SplineSet
-94 754 m 1,0,-1
 0 848 l 1,1,-1
 94 754 l 1,2,-1
 0 660 l 1,3,-1
 -94 754 l 1,0,-1
EndSplineSet
Validated: 1
EndChar

StartChar: uni0598
Encoding: 1432 1432 107
Width: 0
GlyphClass: 2
Flags: W
LayerCount: 2
Fore
SplineSet
-87 660 m 2,0,-1
 -152 660 l 1,1,2
 -168 684 -168 684 -168 713 c 0,3,4
 -168 754 -168 754 -138.5 783.5 c 128,-1,5
 -109 813 -109 813 -68 813 c 0,6,7
 -34 813 -34 813 -7.5 793 c 128,-1,8
 19 773 19 773 28 742 c 0,9,10
 32 729 32 729 43 721 c 128,-1,11
 54 713 54 713 68 713 c 0,12,13
 85 713 85 713 97 725 c 128,-1,14
 109 737 109 737 109 754 c 0,15,16
 109 776 109 776 89 805 c 1,17,-1
 154 805 l 1,18,19
 168 782 168 782 168 754 c 0,20,21
 168 713 168 713 138.5 683.5 c 128,-1,22
 109 654 109 654 68 654 c 0,23,24
 34 654 34 654 8 674 c 128,-1,25
 -18 694 -18 694 -28 725 c 0,26,27
 -32 738 -32 738 -43 746 c 128,-1,28
 -54 754 -54 754 -68 754 c 0,29,30
 -85 754 -85 754 -97 742 c 128,-1,31
 -109 730 -109 730 -109 713 c 0,32,33
 -109 707 -109 707 -107.5 701 c 128,-1,34
 -106 695 -106 695 -103 688.5 c 128,-1,35
 -100 682 -100 682 -98.5 678.5 c 128,-1,36
 -97 675 -97 675 -92.5 668.5 c 128,-1,37
 -88 662 -88 662 -87 660 c 2,0,-1
EndSplineSet
Validated: 1
EndChar

StartChar: uni0599
Encoding: 1433 1433 108
Width: 0
GlyphClass: 2
Flags: W
LayerCount: 2
Fore
SplineSet
-28 872 m 1,0,1
 71 795 71 795 71 670 c 0,2,3
 71 665 71 665 70 660 c 1,4,-1
 0 660 l 1,5,6
 -4 761 -4 761 -71 836 c 1,7,-1
 -28 872 l 1,0,1
EndSplineSet
Validated: 1
EndChar

StartChar: uni059A
Encoding: 1434 1434 109
Width: 0
GlyphClass: 2
Flags: W
LayerCount: 2
Fore
SplineSet
60 -60 m 1,0,-1
 127 -95 l 1,1,-1
 7 -159 l 1,2,-1
 127 -222 l 1,3,-1
 60 -258 l 1,4,-1
 -127 -159 l 1,5,-1
 60 -60 l 1,0,-1
EndSplineSet
Validated: 1
EndChar

StartChar: uni059B
Encoding: 1435 1435 110
Width: 0
GlyphClass: 2
Flags: W
LayerCount: 2
Fore
SplineSet
-57.5 -60 m 128,-1,1
 -39 -60 -39 -60 -26.5 -73 c 128,-1,2
 -14 -86 -14 -86 -14 -104 c 128,-1,3
 -14 -122 -14 -122 -26.5 -135 c 128,-1,4
 -39 -148 -39 -148 -57.5 -148 c 128,-1,5
 -76 -148 -76 -148 -89 -135 c 128,-1,6
 -102 -122 -102 -122 -102 -104 c 128,-1,7
 -102 -86 -102 -86 -89 -73 c 128,-1,0
 -76 -60 -76 -60 -57.5 -60 c 128,-1,1
3 -272 m 1,8,-1
 -39 -236 l 1,9,10
 27 -161 27 -161 31 -60 c 1,11,-1
 102 -60 l 1,12,13
 102 -65 102 -65 102 -70 c 0,14,15
 102 -195 102 -195 3 -272 c 1,8,-1
EndSplineSet
Validated: 1
EndChar

StartChar: uni059C
Encoding: 1436 1436 111
Width: 0
GlyphClass: 2
Flags: W
LayerCount: 2
Fore
SplineSet
28 872 m 1,0,-1
 71 836 l 1,1,2
 4 761 4 761 0 660 c 1,3,-1
 -70 660 l 1,4,5
 -71 665 -71 665 -71 670 c 0,6,7
 -71 795 -71 795 28 872 c 1,0,-1
EndSplineSet
Validated: 1
EndChar

StartChar: uni059D
Encoding: 1437 1437 112
Width: 0
GlyphClass: 2
Flags: W
LayerCount: 2
Fore
SplineSet
28 872 m 1,0,-1
 71 836 l 1,1,2
 4 761 4 761 0 660 c 1,3,-1
 -70 660 l 1,4,5
 -71 665 -71 665 -71 670 c 0,6,7
 -71 795 -71 795 28 872 c 1,0,-1
EndSplineSet
Validated: 1
EndChar

StartChar: uni059E
Encoding: 1438 1438 113
Width: 0
GlyphClass: 2
Flags: W
LayerCount: 2
Fore
SplineSet
96 872 m 1,0,-1
 139 836 l 1,1,2
 72 761 72 761 68 660 c 1,3,-1
 -2 660 l 1,4,5
 -3 665 -3 665 -3 670 c 0,6,7
 -3 795 -3 795 96 872 c 1,0,-1
-40 872 m 1,8,-1
 3 836 l 1,9,10
 -64 761 -64 761 -68 660 c 1,11,-1
 -138 660 l 1,12,13
 -139 665 -139 665 -139 670 c 0,14,15
 -139 795 -139 795 -40 872 c 1,8,-1
EndSplineSet
Validated: 1
EndChar

StartChar: uni059F
Encoding: 1439 1439 114
Width: 0
GlyphClass: 2
Flags: W
LayerCount: 2
Fore
SplineSet
134.5 801 m 128,-1,1
 123 801 123 801 114.5 793 c 128,-1,2
 106 785 106 785 106 773 c 128,-1,3
 106 761 106 761 114.5 753 c 128,-1,4
 123 745 123 745 134.5 745 c 128,-1,5
 146 745 146 745 154.5 753 c 128,-1,6
 163 761 163 761 163 773 c 128,-1,7
 163 785 163 785 154.5 793 c 128,-1,0
 146 801 146 801 134.5 801 c 128,-1,1
100 703 m 1,8,-1
 57 660 l 1,9,-1
 21 695 l 1,10,-1
 65 739 l 1,11,12
 57 755 57 755 57 773 c 0,13,14
 57 805 57 805 79.5 828 c 128,-1,15
 102 851 102 851 134.5 851 c 128,-1,16
 167 851 167 851 189.5 828 c 128,-1,17
 212 805 212 805 212 773 c 128,-1,18
 212 741 212 741 189.5 718 c 128,-1,19
 167 695 167 695 134 695 c 0,20,21
 116 695 116 695 100 703 c 1,8,-1
-134.5 801 m 128,-1,23
 -146 801 -146 801 -154.5 793 c 128,-1,24
 -163 785 -163 785 -163 773 c 128,-1,25
 -163 761 -163 761 -154.5 753 c 128,-1,26
 -146 745 -146 745 -134.5 745 c 128,-1,27
 -123 745 -123 745 -114.5 753 c 128,-1,28
 -106 761 -106 761 -106 773 c 128,-1,29
 -106 785 -106 785 -114.5 793 c 128,-1,22
 -123 801 -123 801 -134.5 801 c 128,-1,23
-100 703 m 1,30,31
 -116 695 -116 695 -134 695 c 0,32,33
 -167 695 -167 695 -189.5 718 c 128,-1,34
 -212 741 -212 741 -212 773 c 128,-1,35
 -212 805 -212 805 -189.5 828 c 128,-1,36
 -167 851 -167 851 -134.5 851 c 128,-1,37
 -102 851 -102 851 -79.5 828 c 128,-1,38
 -57 805 -57 805 -57 773 c 0,39,40
 -57 755 -57 755 -65 739 c 1,41,-1
 -21 695 l 1,42,-1
 -57 660 l 1,43,-1
 -100 703 l 1,30,31
EndSplineSet
Validated: 1
EndChar

StartChar: uni05A0
Encoding: 1440 1440 115
Width: 0
GlyphClass: 2
Flags: W
LayerCount: 2
Fore
SplineSet
17.5 801 m 128,-1,1
 6 801 6 801 -2.5 793 c 128,-1,2
 -11 785 -11 785 -11 773 c 128,-1,3
 -11 761 -11 761 -2.5 753 c 128,-1,4
 6 745 6 745 17.5 745 c 128,-1,5
 29 745 29 745 37.5 753 c 128,-1,6
 46 761 46 761 46 773 c 128,-1,7
 46 785 46 785 37.5 793 c 128,-1,0
 29 801 29 801 17.5 801 c 128,-1,1
-17 703 m 1,8,-1
 -60 660 l 1,9,-1
 -95 695 l 1,10,-1
 -52 739 l 1,11,12
 -60 755 -60 755 -60 773 c 0,13,14
 -60 805 -60 805 -37 828 c 128,-1,15
 -14 851 -14 851 18 851 c 128,-1,16
 50 851 50 851 72.5 828 c 128,-1,17
 95 805 95 805 95 773 c 128,-1,18
 95 741 95 741 72.5 718 c 128,-1,19
 50 695 50 695 18 695 c 0,20,21
 -1 695 -1 695 -17 703 c 1,8,-1
EndSplineSet
Validated: 1
EndChar

StartChar: uni05A1
Encoding: 1441 1441 116
Width: 0
GlyphClass: 2
Flags: W
LayerCount: 2
Fore
SplineSet
-23 709 m 1,0,-1
 -23 660 l 1,1,-1
 -93 660 l 1,2,-1
 -93 827 l 1,3,-1
 -23 827 l 1,4,-1
 -23 768 l 1,5,6
 -18 767 -18 767 -13 767 c 0,7,8
 6 767 6 767 20 786.5 c 128,-1,9
 34 806 34 806 34 827 c 1,10,-1
 93 827 l 1,11,12
 93 782 93 782 61.5 745.5 c 128,-1,13
 30 709 30 709 -13 709 c 0,14,15
 -18 709 -18 709 -23 709 c 1,0,-1
EndSplineSet
Validated: 1
EndChar

StartChar: uni05A2
Encoding: 1442 1442 117
Width: 0
GlyphClass: 2
Flags: W
LayerCount: 2
Fore
SplineSet
-35 -182 m 1,0,1
 -75 -170 -75 -170 -101 -136.5 c 128,-1,2
 -127 -103 -127 -103 -127 -60 c 1,3,-1
 -56 -60 l 1,4,5
 -56 -83 -56 -83 -39.5 -99.5 c 128,-1,6
 -23 -116 -23 -116 0 -116 c 128,-1,7
 23 -116 23 -116 39.5 -99.5 c 128,-1,8
 56 -83 56 -83 56 -60 c 1,9,-1
 127 -60 l 1,10,11
 127 -103 127 -103 101 -136.5 c 128,-1,12
 75 -170 75 -170 35 -182 c 1,13,-1
 35 -258 l 1,14,-1
 -35 -258 l 1,15,-1
 -35 -182 l 1,0,1
EndSplineSet
Validated: 1
EndChar

StartChar: uni05A3
Encoding: 1443 1443 118
Width: 0
GlyphClass: 2
Flags: W
LayerCount: 2
Fore
SplineSet
-117 -260 m 1,0,-1
 -117 -190 l 1,1,-1
 47 -190 l 1,2,-1
 47 -60 l 1,3,-1
 117 -60 l 1,4,-1
 117 -260 l 1,5,-1
 -117 -260 l 1,0,-1
EndSplineSet
Validated: 1
EndChar

StartChar: uni05A4
Encoding: 1444 1444 119
Width: 0
GlyphClass: 2
Flags: W
LayerCount: 2
Fore
SplineSet
60 -60 m 1,0,-1
 127 -95 l 1,1,-1
 7 -159 l 1,2,-1
 127 -222 l 1,3,-1
 60 -258 l 1,4,-1
 -127 -159 l 1,5,-1
 60 -60 l 1,0,-1
EndSplineSet
Validated: 1
EndChar

StartChar: uni05A5
Encoding: 1445 1445 120
Width: 0
GlyphClass: 2
Flags: W
LayerCount: 2
Fore
SplineSet
-28 -272 m 1,0,-1
 -71 -236 l 1,1,2
 -4 -161 -4 -161 0 -60 c 1,3,-1
 70 -60 l 1,4,5
 71 -65 71 -65 71 -70 c 0,6,7
 71 -195 71 -195 -28 -272 c 1,0,-1
EndSplineSet
Validated: 1
EndChar

StartChar: uni05A6
Encoding: 1446 1446 121
Width: 0
GlyphClass: 2
Flags: W
LayerCount: 2
Fore
SplineSet
-96 -272 m 1,0,-1
 -139 -236 l 1,1,2
 -72 -161 -72 -161 -68 -60 c 1,3,-1
 2 -60 l 1,4,5
 3 -65 3 -65 3 -70 c 0,6,7
 3 -195 3 -195 -96 -272 c 1,0,-1
40 -272 m 1,8,-1
 -3 -236 l 1,9,10
 64 -161 64 -161 68 -60 c 1,11,-1
 138 -60 l 1,12,13
 139 -65 139 -65 139 -70 c 0,14,15
 139 -195 139 -195 40 -272 c 1,8,-1
EndSplineSet
Validated: 1
EndChar

StartChar: uni05A7
Encoding: 1447 1447 122
Width: 0
GlyphClass: 2
Flags: W
LayerCount: 2
Fore
SplineSet
78 -60 m 1,0,-1
 113 -131 l 1,1,-1
 21 -131 l 1,2,-1
 92 -201 l 1,3,-1
 64 -258 l 1,4,-1
 -78 -258 l 1,5,-1
 -113 -187 l 1,6,-1
 -21 -187 l 1,7,-1
 -92 -116 l 1,8,-1
 -64 -60 l 1,9,-1
 78 -60 l 1,0,-1
EndSplineSet
Validated: 1
EndChar

StartChar: uni05A8
Encoding: 1448 1448 123
Width: 0
GlyphClass: 2
Flags: W
LayerCount: 2
Fore
SplineSet
-28 872 m 1,0,1
 71 795 71 795 71 670 c 0,2,3
 71 665 71 665 70 660 c 1,4,-1
 0 660 l 1,5,6
 -4 761 -4 761 -71 836 c 1,7,-1
 -28 872 l 1,0,1
EndSplineSet
Validated: 1
EndChar

StartChar: uni05A9
Encoding: 1449 1449 124
Width: 0
GlyphClass: 2
Flags: W
LayerCount: 2
Fore
SplineSet
-17.5 801 m 128,-1,1
 -29 801 -29 801 -37.5 793 c 128,-1,2
 -46 785 -46 785 -46 773 c 128,-1,3
 -46 761 -46 761 -37.5 753 c 128,-1,4
 -29 745 -29 745 -17.5 745 c 128,-1,5
 -6 745 -6 745 2.5 753 c 128,-1,6
 11 761 11 761 11 773 c 128,-1,7
 11 785 11 785 2.5 793 c 128,-1,0
 -6 801 -6 801 -17.5 801 c 128,-1,1
17 703 m 1,8,9
 1 695 1 695 -18 695 c 0,10,11
 -50 695 -50 695 -72.5 718 c 128,-1,12
 -95 741 -95 741 -95 773 c 128,-1,13
 -95 805 -95 805 -72.5 828 c 128,-1,14
 -50 851 -50 851 -18 851 c 128,-1,15
 14 851 14 851 37 828 c 128,-1,16
 60 805 60 805 60 773 c 0,17,18
 60 755 60 755 52 739 c 1,19,-1
 95 695 l 1,20,-1
 60 660 l 1,21,-1
 17 703 l 1,8,9
EndSplineSet
Validated: 1
EndChar

StartChar: uni05AA
Encoding: 1450 1450 125
Width: 0
GlyphClass: 2
Flags: W
LayerCount: 2
Fore
SplineSet
127 -60 m 1,0,-1
 56 -60 l 1,1,2
 56 -83 56 -83 39.5 -99.5 c 128,-1,3
 23 -116 23 -116 0 -116 c 128,-1,4
 -23 -116 -23 -116 -39.5 -99.5 c 128,-1,5
 -56 -83 -56 -83 -56 -60 c 1,6,-1
 -127 -60 l 1,7,8
 -127 -112 -127 -112 -90.5 -149.5 c 128,-1,9
 -54 -187 -54 -187 0 -187 c 0,10,11
 53 -187 53 -187 90 -149 c 128,-1,12
 127 -111 127 -111 127 -60 c 1,0,-1
EndSplineSet
Validated: 9
EndChar

StartChar: uni05AB
Encoding: 1451 1451 126
Width: 0
GlyphClass: 2
Flags: W
LayerCount: 2
Fore
SplineSet
60 858 m 1,0,-1
 127 822 l 1,1,-1
 7 759 l 1,2,-1
 127 695 l 1,3,-1
 60 660 l 1,4,-1
 -127 759 l 1,5,-1
 60 858 l 1,0,-1
EndSplineSet
Validated: 1
EndChar

StartChar: uni05AC
Encoding: 1452 1452 127
Width: 0
GlyphClass: 2
Flags: W
LayerCount: 2
Fore
SplineSet
-117 660 m 1,0,-1
 -117 730 l 1,1,-1
 47 730 l 1,2,-1
 47 860 l 1,3,-1
 117 860 l 1,4,-1
 117 660 l 1,5,-1
 -117 660 l 1,0,-1
EndSplineSet
Validated: 1
EndChar

StartChar: uni05AD
Encoding: 1453 1453 128
Width: 0
GlyphClass: 2
Flags: W
LayerCount: 2
Fore
SplineSet
28 -272 m 1,0,1
 -71 -195 -71 -195 -71 -70 c 0,2,3
 -71 -65 -71 -65 -70 -60 c 1,4,-1
 0 -60 l 1,5,6
 4 -161 4 -161 71 -236 c 1,7,-1
 28 -272 l 1,0,1
EndSplineSet
Validated: 1
EndChar

StartChar: uni05AE
Encoding: 1454 1454 129
Width: 0
GlyphClass: 2
Flags: W
LayerCount: 2
Fore
SplineSet
-87 660 m 2,0,-1
 -152 660 l 1,1,2
 -168 684 -168 684 -168 713 c 0,3,4
 -168 754 -168 754 -138.5 783.5 c 128,-1,5
 -109 813 -109 813 -68 813 c 0,6,7
 -34 813 -34 813 -7.5 793 c 128,-1,8
 19 773 19 773 28 742 c 0,9,10
 32 729 32 729 43 721 c 128,-1,11
 54 713 54 713 68 713 c 0,12,13
 85 713 85 713 97 725 c 128,-1,14
 109 737 109 737 109 754 c 0,15,16
 109 776 109 776 89 805 c 1,17,-1
 154 805 l 1,18,19
 168 782 168 782 168 754 c 0,20,21
 168 713 168 713 138.5 683.5 c 128,-1,22
 109 654 109 654 68 654 c 0,23,24
 34 654 34 654 8 674 c 128,-1,25
 -18 694 -18 694 -28 725 c 0,26,27
 -32 738 -32 738 -43 746 c 128,-1,28
 -54 754 -54 754 -68 754 c 0,29,30
 -85 754 -85 754 -97 742 c 128,-1,31
 -109 730 -109 730 -109 713 c 0,32,33
 -109 707 -109 707 -107.5 701 c 128,-1,34
 -106 695 -106 695 -103 688.5 c 128,-1,35
 -100 682 -100 682 -98.5 678.5 c 128,-1,36
 -97 675 -97 675 -92.5 668.5 c 128,-1,37
 -88 662 -88 662 -87 660 c 2,0,-1
EndSplineSet
Validated: 1
EndChar

StartChar: uni05AF
Encoding: 1455 1455 130
Width: 0
GlyphClass: 2
Flags: W
LayerCount: 2
Fore
SplineSet
0 794 m 128,-1,1
 -15 794 -15 794 -25 783.5 c 128,-1,2
 -35 773 -35 773 -35 758.5 c 128,-1,3
 -35 744 -35 744 -25 734 c 128,-1,4
 -15 724 -15 724 0 724 c 128,-1,5
 15 724 15 724 25 734 c 128,-1,6
 35 744 35 744 35 758.5 c 128,-1,7
 35 773 35 773 25 783.5 c 128,-1,0
 15 794 15 794 0 794 c 128,-1,1
0 858 m 128,-1,9
 41 858 41 858 70 829 c 128,-1,10
 99 800 99 800 99 759 c 128,-1,11
 99 718 99 718 70 689 c 128,-1,12
 41 660 41 660 0 660 c 128,-1,13
 -41 660 -41 660 -70 689 c 128,-1,14
 -99 718 -99 718 -99 759 c 128,-1,15
 -99 800 -99 800 -70 829 c 128,-1,8
 -41 858 -41 858 0 858 c 128,-1,9
EndSplineSet
Validated: 1
EndChar

StartChar: afii57799
Encoding: 1456 1456 131
Width: 0
GlyphClass: 4
Flags: W
AnchorPoint: "Anchor-5" 0 0 mark 0
LayerCount: 2
Fore
SplineSet
0 -172 m 128,-1,1
 18 -172 18 -172 31 -185 c 128,-1,2
 44 -198 44 -198 44 -216 c 128,-1,3
 44 -234 44 -234 31 -247 c 128,-1,4
 18 -260 18 -260 0 -260 c 128,-1,5
 -18 -260 -18 -260 -31 -247 c 128,-1,6
 -44 -234 -44 -234 -44 -216 c 128,-1,7
 -44 -198 -44 -198 -31 -185 c 128,-1,0
 -18 -172 -18 -172 0 -172 c 128,-1,1
0 -60 m 128,-1,9
 18 -60 18 -60 31 -73 c 128,-1,10
 44 -86 44 -86 44 -104 c 128,-1,11
 44 -122 44 -122 31 -135 c 128,-1,12
 18 -148 18 -148 0 -148 c 128,-1,13
 -18 -148 -18 -148 -31 -135 c 128,-1,14
 -44 -122 -44 -122 -44 -104 c 128,-1,15
 -44 -86 -44 -86 -31 -73 c 128,-1,8
 -18 -60 -18 -60 0 -60 c 128,-1,9
EndSplineSet
Validated: 1
EndChar

StartChar: afii57801
Encoding: 1457 1457 132
Width: 0
GlyphClass: 4
Flags: W
AnchorPoint: "Anchor-3" 0 0 mark 0
LayerCount: 2
Fore
SplineSet
-66 -172 m 128,-1,1
 -48 -172 -48 -172 -35 -185 c 128,-1,2
 -22 -198 -22 -198 -22 -216 c 128,-1,3
 -22 -234 -22 -234 -35 -247 c 128,-1,4
 -48 -260 -48 -260 -66 -260 c 128,-1,5
 -84 -260 -84 -260 -97 -247 c 128,-1,6
 -110 -234 -110 -234 -110 -216 c 128,-1,7
 -110 -198 -110 -198 -97 -185 c 128,-1,0
 -84 -172 -84 -172 -66 -172 c 128,-1,1
-124 -60 m 128,-1,9
 -106 -60 -106 -60 -93 -73 c 128,-1,10
 -80 -86 -80 -86 -80 -104 c 128,-1,11
 -80 -122 -80 -122 -93 -135 c 128,-1,12
 -106 -148 -106 -148 -124 -148 c 128,-1,13
 -142 -148 -142 -148 -155 -135 c 128,-1,14
 -168 -122 -168 -122 -168 -104 c 128,-1,15
 -168 -86 -168 -86 -155 -73 c 128,-1,8
 -142 -60 -142 -60 -124 -60 c 128,-1,9
-2 -60 m 128,-1,17
 16 -60 16 -60 29 -73 c 128,-1,18
 42 -86 42 -86 42 -104 c 128,-1,19
 42 -122 42 -122 29 -135 c 128,-1,20
 16 -148 16 -148 -2 -148 c 128,-1,21
 -20 -148 -20 -148 -33 -135 c 128,-1,22
 -46 -122 -46 -122 -46 -104 c 128,-1,23
 -46 -86 -46 -86 -33 -73 c 128,-1,16
 -20 -60 -20 -60 -2 -60 c 128,-1,17
124 -172 m 128,-1,25
 142 -172 142 -172 155 -185 c 128,-1,26
 168 -198 168 -198 168 -216 c 128,-1,27
 168 -234 168 -234 155 -247 c 128,-1,28
 142 -260 142 -260 124 -260 c 128,-1,29
 106 -260 106 -260 93 -247 c 128,-1,30
 80 -234 80 -234 80 -216 c 128,-1,31
 80 -198 80 -198 93 -185 c 128,-1,24
 106 -172 106 -172 124 -172 c 128,-1,25
124 -60 m 128,-1,33
 142 -60 142 -60 155 -73 c 128,-1,34
 168 -86 168 -86 168 -104 c 128,-1,35
 168 -122 168 -122 155 -135 c 128,-1,36
 142 -148 142 -148 124 -148 c 128,-1,37
 106 -148 106 -148 93 -135 c 128,-1,38
 80 -122 80 -122 80 -104 c 128,-1,39
 80 -86 80 -86 93 -73 c 128,-1,32
 106 -60 106 -60 124 -60 c 128,-1,33
EndSplineSet
Validated: 1
EndChar

StartChar: afii57800
Encoding: 1458 1458 133
Width: 0
GlyphClass: 4
Flags: W
AnchorPoint: "Anchor-3" 0 0 mark 0
LayerCount: 2
Fore
SplineSet
-164 -69 m 1,0,-1
 36 -69 l 1,1,-1
 36 -140 l 1,2,-1
 -164 -140 l 1,3,-1
 -164 -69 l 1,0,-1
120 -172 m 128,-1,5
 138 -172 138 -172 151 -185 c 128,-1,6
 164 -198 164 -198 164 -216 c 128,-1,7
 164 -234 164 -234 151 -247 c 128,-1,8
 138 -260 138 -260 120 -260 c 128,-1,9
 102 -260 102 -260 89 -247 c 128,-1,10
 76 -234 76 -234 76 -216 c 128,-1,11
 76 -198 76 -198 89 -185 c 128,-1,4
 102 -172 102 -172 120 -172 c 128,-1,5
120 -60 m 128,-1,13
 138 -60 138 -60 151 -73 c 128,-1,14
 164 -86 164 -86 164 -104 c 128,-1,15
 164 -122 164 -122 151 -135 c 128,-1,16
 138 -148 138 -148 120 -148 c 128,-1,17
 102 -148 102 -148 89 -135 c 128,-1,18
 76 -122 76 -122 76 -104 c 128,-1,19
 76 -86 76 -86 89 -73 c 128,-1,12
 102 -60 102 -60 120 -60 c 128,-1,13
EndSplineSet
Validated: 1
EndChar

StartChar: afii57802
Encoding: 1459 1459 134
Width: 0
GlyphClass: 4
Flags: W
AnchorPoint: "Anchor-3" 0 0 mark 0
LayerCount: 2
Fore
SplineSet
-164 -140 m 1,0,-1
 -164 -69 l 1,1,-1
 36 -69 l 1,2,-1
 36 -140 l 1,3,-1
 -29 -140 l 1,4,-1
 -29 -251 l 1,5,-1
 -99 -251 l 1,6,-1
 -99 -140 l 1,7,-1
 -164 -140 l 1,0,-1
120 -172 m 128,-1,9
 138 -172 138 -172 151 -185 c 128,-1,10
 164 -198 164 -198 164 -216 c 128,-1,11
 164 -234 164 -234 151 -247 c 128,-1,12
 138 -260 138 -260 120 -260 c 128,-1,13
 102 -260 102 -260 89 -247 c 128,-1,14
 76 -234 76 -234 76 -216 c 128,-1,15
 76 -198 76 -198 89 -185 c 128,-1,8
 102 -172 102 -172 120 -172 c 128,-1,9
120 -60 m 128,-1,17
 138 -60 138 -60 151 -73 c 128,-1,18
 164 -86 164 -86 164 -104 c 128,-1,19
 164 -122 164 -122 151 -135 c 128,-1,20
 138 -148 138 -148 120 -148 c 128,-1,21
 102 -148 102 -148 89 -135 c 128,-1,22
 76 -122 76 -122 76 -104 c 128,-1,23
 76 -86 76 -86 89 -73 c 128,-1,16
 102 -60 102 -60 120 -60 c 128,-1,17
EndSplineSet
Validated: 1
EndChar

StartChar: afii57793
Encoding: 1460 1460 135
Width: 0
GlyphClass: 4
Flags: W
AnchorPoint: "Anchor-5" 0 0 mark 0
LayerCount: 2
Fore
SplineSet
0 -60 m 128,-1,1
 18 -60 18 -60 31 -73 c 128,-1,2
 44 -86 44 -86 44 -104 c 128,-1,3
 44 -122 44 -122 31 -135 c 128,-1,4
 18 -148 18 -148 0 -148 c 128,-1,5
 -18 -148 -18 -148 -31 -135 c 128,-1,6
 -44 -122 -44 -122 -44 -104 c 128,-1,7
 -44 -86 -44 -86 -31 -73 c 128,-1,0
 -18 -60 -18 -60 0 -60 c 128,-1,1
EndSplineSet
Validated: 1
EndChar

StartChar: afii57794
Encoding: 1461 1461 136
Width: 0
GlyphClass: 4
Flags: W
AnchorPoint: "Anchor-4" 0 0 mark 0
LayerCount: 2
Fore
SplineSet
-63.5 -60 m 128,-1,1
 -45 -60 -45 -60 -32 -73 c 128,-1,2
 -19 -86 -19 -86 -19 -104 c 128,-1,3
 -19 -122 -19 -122 -32 -135 c 128,-1,4
 -45 -148 -45 -148 -63.5 -148 c 128,-1,5
 -82 -148 -82 -148 -95 -135 c 128,-1,6
 -108 -122 -108 -122 -108 -104 c 128,-1,7
 -108 -86 -108 -86 -95 -73 c 128,-1,0
 -82 -60 -82 -60 -63.5 -60 c 128,-1,1
63.5 -60 m 128,-1,9
 82 -60 82 -60 94.5 -73 c 128,-1,10
 107 -86 107 -86 107.5 -104 c 128,-1,11
 108 -122 108 -122 95 -135 c 128,-1,12
 82 -148 82 -148 63.5 -148 c 128,-1,13
 45 -148 45 -148 32 -135 c 128,-1,14
 19 -122 19 -122 19 -104 c 128,-1,15
 19 -86 19 -86 32 -73 c 128,-1,8
 45 -60 45 -60 63.5 -60 c 128,-1,9
EndSplineSet
Validated: 1
EndChar

StartChar: afii57795
Encoding: 1462 1462 137
Width: 0
GlyphClass: 4
Flags: W
AnchorPoint: "Anchor-4" 0 0 mark 0
LayerCount: 2
Fore
SplineSet
-3 -172 m 128,-1,1
 15 -172 15 -172 28 -185 c 128,-1,2
 41 -198 41 -198 41 -216 c 128,-1,3
 41 -234 41 -234 28 -247 c 128,-1,4
 15 -260 15 -260 -3 -260 c 128,-1,5
 -21 -260 -21 -260 -34 -247 c 128,-1,6
 -47 -234 -47 -234 -47 -216 c 128,-1,7
 -47 -198 -47 -198 -34 -185 c 128,-1,0
 -21 -172 -21 -172 -3 -172 c 128,-1,1
-63.5 -60 m 128,-1,9
 -45 -60 -45 -60 -32 -73 c 128,-1,10
 -19 -86 -19 -86 -19 -104 c 128,-1,11
 -19 -122 -19 -122 -32 -135 c 128,-1,12
 -45 -148 -45 -148 -63.5 -148 c 128,-1,13
 -82 -148 -82 -148 -95 -135 c 128,-1,14
 -108 -122 -108 -122 -108 -104 c 128,-1,15
 -108 -86 -108 -86 -95 -73 c 128,-1,8
 -82 -60 -82 -60 -63.5 -60 c 128,-1,9
63.5 -60 m 128,-1,17
 82 -60 82 -60 95 -73 c 128,-1,18
 108 -86 108 -86 108 -104 c 128,-1,19
 108 -122 108 -122 95 -135 c 128,-1,20
 82 -148 82 -148 63.5 -148 c 128,-1,21
 45 -148 45 -148 32 -135 c 128,-1,22
 19 -122 19 -122 19 -104 c 128,-1,23
 19 -86 19 -86 32 -73 c 128,-1,16
 45 -60 45 -60 63.5 -60 c 128,-1,17
EndSplineSet
Validated: 1
EndChar

StartChar: afii57798
Encoding: 1463 1463 138
Width: 0
GlyphClass: 4
Flags: W
AnchorPoint: "Anchor-4" 0 0 mark 0
LayerCount: 2
Fore
SplineSet
-100 -69 m 1,0,-1
 100 -69 l 1,1,-1
 100 -140 l 1,2,-1
 -100 -140 l 1,3,-1
 -100 -69 l 1,0,-1
EndSplineSet
Validated: 1
EndChar

StartChar: afii57797
Encoding: 1464 1464 139
Width: 0
GlyphClass: 4
Flags: W
AnchorPoint: "Anchor-4" 0 0 mark 0
LayerCount: 2
Fore
SplineSet
-100 -140 m 1,0,-1
 -100 -69 l 1,1,-1
 100 -69 l 1,2,-1
 100 -140 l 1,3,-1
 35 -140 l 1,4,-1
 35 -234 l 1,5,-1
 -35 -234 l 1,6,-1
 -35 -140 l 1,7,-1
 -100 -140 l 1,0,-1
EndSplineSet
Validated: 1
EndChar

StartChar: afii57806
Encoding: 1465 1465 140
Width: 0
GlyphClass: 4
Flags: W
AnchorPoint: "Anchor-1" 0 0 mark 0
LayerCount: 2
Fore
SplineSet
0 742 m 128,-1,1
 18 742 18 742 31 729 c 128,-1,2
 44 716 44 716 44 698 c 128,-1,3
 44 680 44 680 31 667 c 128,-1,4
 18 654 18 654 0 654 c 128,-1,5
 -18 654 -18 654 -31 667 c 128,-1,6
 -44 680 -44 680 -44 698 c 128,-1,7
 -44 716 -44 716 -31 729 c 128,-1,0
 -18 742 -18 742 0 742 c 128,-1,1
EndSplineSet
Validated: 1
EndChar

StartChar: uni05BA
Encoding: 1466 1466 141
Width: 0
GlyphClass: 2
Flags: W
LayerCount: 2
Fore
SplineSet
0 742 m 128,-1,1
 18 742 18 742 31 729 c 128,-1,2
 44 716 44 716 44 698 c 128,-1,3
 44 680 44 680 31 667 c 128,-1,4
 18 654 18 654 0 654 c 128,-1,5
 -18 654 -18 654 -31 667 c 128,-1,6
 -44 680 -44 680 -44 698 c 128,-1,7
 -44 716 -44 716 -31 729 c 128,-1,0
 -18 742 -18 742 0 742 c 128,-1,1
EndSplineSet
Validated: 1
EndChar

StartChar: afii57796
Encoding: 1467 1467 142
Width: 0
GlyphClass: 4
Flags: W
AnchorPoint: "Anchor-2" 0 0 mark 0
LayerCount: 2
Fore
SplineSet
0 -113 m 128,-1,1
 18 -113 18 -113 31 -126 c 128,-1,2
 44 -139 44 -139 44 -157 c 128,-1,3
 44 -175 44 -175 31 -188 c 128,-1,4
 18 -201 18 -201 0 -201 c 128,-1,5
 -18 -201 -18 -201 -31 -188 c 128,-1,6
 -44 -175 -44 -175 -44 -157 c 128,-1,7
 -44 -139 -44 -139 -31 -126 c 128,-1,0
 -18 -113 -18 -113 0 -113 c 128,-1,1
112 -172 m 128,-1,9
 130 -172 130 -172 143 -185 c 128,-1,10
 156 -198 156 -198 156 -216 c 128,-1,11
 156 -234 156 -234 143 -247 c 128,-1,12
 130 -260 130 -260 112 -260 c 128,-1,13
 94 -260 94 -260 81 -247 c 128,-1,14
 68 -234 68 -234 68 -216 c 128,-1,15
 68 -198 68 -198 81 -185 c 128,-1,8
 94 -172 94 -172 112 -172 c 128,-1,9
-111.5 -60 m 128,-1,17
 -93 -60 -93 -60 -80.5 -73 c 128,-1,18
 -68 -86 -68 -86 -68 -104 c 128,-1,19
 -68 -122 -68 -122 -80.5 -135 c 128,-1,20
 -93 -148 -93 -148 -111.5 -148 c 128,-1,21
 -130 -148 -130 -148 -143 -135 c 128,-1,22
 -156 -122 -156 -122 -156 -104 c 128,-1,23
 -156 -86 -156 -86 -143 -73 c 128,-1,16
 -130 -60 -130 -60 -111.5 -60 c 128,-1,17
EndSplineSet
Validated: 1
EndChar

StartChar: afii57807
Encoding: 1468 1468 143
Width: 0
GlyphClass: 4
Flags: W
AnchorPoint: "Anchor-0" 0 0 mark 0
LayerCount: 2
Fore
SplineSet
0 346 m 128,-1,1
 18 346 18 346 31 333 c 128,-1,2
 44 320 44 320 44 302 c 128,-1,3
 44 284 44 284 31 271 c 128,-1,4
 18 258 18 258 0 258 c 128,-1,5
 -18 258 -18 258 -31 271 c 128,-1,6
 -44 284 -44 284 -44 302 c 128,-1,7
 -44 320 -44 320 -31 333 c 128,-1,0
 -18 346 -18 346 0 346 c 128,-1,1
EndSplineSet
Validated: 1
EndChar

StartChar: afii57839
Encoding: 1469 1469 144
Width: 0
GlyphClass: 2
Flags: W
LayerCount: 2
Fore
SplineSet
-35 -60 m 1,0,-1
 35 -60 l 1,1,-1
 35 -240 l 1,2,-1
 -35 -240 l 1,3,-1
 -35 -60 l 1,0,-1
EndSplineSet
Validated: 1
EndChar

StartChar: afii57645
Encoding: 1470 1470 145
Width: 424
GlyphClass: 2
Flags: W
LayerCount: 2
Fore
SplineSet
368 450 m 2,0,-1
 368 550 l 2,1,2
 368 575 368 575 355.5 587.5 c 128,-1,3
 343 600 343 600 321 600 c 2,4,-1
 103 600 l 2,5,6
 81 600 81 600 68.5 587.5 c 128,-1,7
 56 575 56 575 56 550 c 2,8,-1
 56 450 l 2,9,10
 56 425 56 425 68.5 412.5 c 128,-1,11
 81 400 81 400 103 400 c 2,12,-1
 321 400 l 2,13,14
 343 400 343 400 355.5 412.5 c 128,-1,15
 368 425 368 425 368 450 c 2,0,-1
EndSplineSet
Validated: 9
PairPos2: "'kern' Horizontal Kerning in Hebrew lookup 7 subtable" uniFB4E dx=-10 dy=0 dh=-10 dv=0 dx=0 dy=0 dh=0 dv=0
PairPos2: "'kern' Horizontal Kerning in Hebrew lookup 7 subtable" uniFB4D dx=-5 dy=0 dh=-5 dv=0 dx=0 dy=0 dh=0 dv=0
PairPos2: "'kern' Horizontal Kerning in Hebrew lookup 7 subtable" uniFB4C dx=-20 dy=0 dh=-20 dv=0 dx=0 dy=0 dh=0 dv=0
PairPos2: "'kern' Horizontal Kerning in Hebrew lookup 7 subtable" uniFB4A dx=5 dy=0 dh=5 dv=0 dx=0 dy=0 dh=0 dv=0
PairPos2: "'kern' Horizontal Kerning in Hebrew lookup 7 subtable" uniFB49 dx=5 dy=0 dh=5 dv=0 dx=0 dy=0 dh=0 dv=0
PairPos2: "'kern' Horizontal Kerning in Hebrew lookup 7 subtable" uniFB48 dx=10 dy=0 dh=10 dv=0 dx=0 dy=0 dh=0 dv=0
PairPos2: "'kern' Horizontal Kerning in Hebrew lookup 7 subtable" uniFB47 dx=15 dy=0 dh=15 dv=0 dx=0 dy=0 dh=0 dv=0
PairPos2: "'kern' Horizontal Kerning in Hebrew lookup 7 subtable" uniFB45 dx=5 dy=0 dh=5 dv=0 dx=0 dy=0 dh=0 dv=0
PairPos2: "'kern' Horizontal Kerning in Hebrew lookup 7 subtable" uniFB44 dx=-10 dy=0 dh=-10 dv=0 dx=0 dy=0 dh=0 dv=0
PairPos2: "'kern' Horizontal Kerning in Hebrew lookup 7 subtable" uniFB43 dx=-10 dy=0 dh=-10 dv=0 dx=0 dy=0 dh=0 dv=0
PairPos2: "'kern' Horizontal Kerning in Hebrew lookup 7 subtable" uniFB42 dx=15 dy=0 dh=15 dv=0 dx=0 dy=0 dh=0 dv=0
PairPos2: "'kern' Horizontal Kerning in Hebrew lookup 7 subtable" uniFB41 dx=10 dy=0 dh=10 dv=0 dx=0 dy=0 dh=0 dv=0
PairPos2: "'kern' Horizontal Kerning in Hebrew lookup 7 subtable" uniFB40 dx=-10 dy=0 dh=-10 dv=0 dx=0 dy=0 dh=0 dv=0
PairPos2: "'kern' Horizontal Kerning in Hebrew lookup 7 subtable" uniFB3F dx=10 dy=0 dh=10 dv=0 dx=0 dy=0 dh=0 dv=0
PairPos2: "'kern' Horizontal Kerning in Hebrew lookup 7 subtable" uniFB3C dx=15 dy=0 dh=15 dv=0 dx=0 dy=0 dh=0 dv=0
PairPos2: "'kern' Horizontal Kerning in Hebrew lookup 7 subtable" uniFB3B dx=-5 dy=0 dh=-5 dv=0 dx=0 dy=0 dh=0 dv=0
PairPos2: "'kern' Horizontal Kerning in Hebrew lookup 7 subtable" uniFB39 dx=5 dy=0 dh=5 dv=0 dx=0 dy=0 dh=0 dv=0
PairPos2: "'kern' Horizontal Kerning in Hebrew lookup 7 subtable" uniFB37 dx=5 dy=0 dh=5 dv=0 dx=0 dy=0 dh=0 dv=0
PairPos2: "'kern' Horizontal Kerning in Hebrew lookup 7 subtable" uniFB36 dx=15 dy=0 dh=15 dv=0 dx=0 dy=0 dh=0 dv=0
PairPos2: "'kern' Horizontal Kerning in Hebrew lookup 7 subtable" afii57723 dx=5 dy=0 dh=5 dv=0 dx=0 dy=0 dh=0 dv=0
PairPos2: "'kern' Horizontal Kerning in Hebrew lookup 7 subtable" uniFB33 dx=10 dy=0 dh=10 dv=0 dx=0 dy=0 dh=0 dv=0
PairPos2: "'kern' Horizontal Kerning in Hebrew lookup 7 subtable" uniFB32 dx=-50 dy=0 dh=-50 dv=0 dx=0 dy=0 dh=0 dv=0
PairPos2: "'kern' Horizontal Kerning in Hebrew lookup 7 subtable" uniFB31 dx=-20 dy=0 dh=-20 dv=0 dx=0 dy=0 dh=0 dv=0
PairPos2: "'kern' Horizontal Kerning in Hebrew lookup 7 subtable" uniFB30 dx=-5 dy=0 dh=-5 dv=0 dx=0 dy=0 dh=0 dv=0
PairPos2: "'kern' Horizontal Kerning in Hebrew lookup 7 subtable" uniFB2F dx=-5 dy=0 dh=-5 dv=0 dx=0 dy=0 dh=0 dv=0
PairPos2: "'kern' Horizontal Kerning in Hebrew lookup 7 subtable" uniFB2E dx=-5 dy=0 dh=-5 dv=0 dx=0 dy=0 dh=0 dv=0
PairPos2: "'kern' Horizontal Kerning in Hebrew lookup 7 subtable" uniFB2D dx=5 dy=0 dh=5 dv=0 dx=0 dy=0 dh=0 dv=0
PairPos2: "'kern' Horizontal Kerning in Hebrew lookup 7 subtable" uniFB2C dx=5 dy=0 dh=5 dv=0 dx=0 dy=0 dh=0 dv=0
PairPos2: "'kern' Horizontal Kerning in Hebrew lookup 7 subtable" afii57695 dx=5 dy=0 dh=5 dv=0 dx=0 dy=0 dh=0 dv=0
PairPos2: "'kern' Horizontal Kerning in Hebrew lookup 7 subtable" afii57694 dx=5 dy=0 dh=5 dv=0 dx=0 dy=0 dh=0 dv=0
PairPos2: "'kern' Horizontal Kerning in Hebrew lookup 7 subtable" uniFB28 dx=5 dy=0 dh=5 dv=0 dx=0 dy=0 dh=0 dv=0
PairPos2: "'kern' Horizontal Kerning in Hebrew lookup 7 subtable" uniFB25 dx=15 dy=0 dh=15 dv=0 dx=0 dy=0 dh=0 dv=0
PairPos2: "'kern' Horizontal Kerning in Hebrew lookup 7 subtable" uniFB24 dx=-5 dy=0 dh=-5 dv=0 dx=0 dy=0 dh=0 dv=0
PairPos2: "'kern' Horizontal Kerning in Hebrew lookup 7 subtable" uniFB22 dx=10 dy=0 dh=10 dv=0 dx=0 dy=0 dh=0 dv=0
PairPos2: "'kern' Horizontal Kerning in Hebrew lookup 7 subtable" uniFB21 dx=-5 dy=0 dh=-5 dv=0 dx=0 dy=0 dh=0 dv=0
PairPos2: "'kern' Horizontal Kerning in Hebrew lookup 7 subtable" uniFB20 dx=5 dy=0 dh=5 dv=0 dx=0 dy=0 dh=0 dv=0
PairPos2: "'kern' Horizontal Kerning in Hebrew lookup 7 subtable" afii57705 dx=5 dy=0 dh=5 dv=0 dx=0 dy=0 dh=0 dv=0
PairPos2: "'kern' Horizontal Kerning in Hebrew lookup 7 subtable" uniFB1D dx=5 dy=0 dh=5 dv=0 dx=0 dy=0 dh=0 dv=0
PairPos2: "'kern' Horizontal Kerning in Hebrew lookup 7 subtable" uniE804 dx=5 dy=0 dh=5 dv=0 dx=0 dy=0 dh=0 dv=0
PairPos2: "'kern' Horizontal Kerning in Hebrew lookup 7 subtable" afii57718 dx=5 dy=0 dh=5 dv=0 dx=0 dy=0 dh=0 dv=0
PairPos2: "'kern' Horizontal Kerning in Hebrew lookup 7 subtable" afii57717 dx=5 dy=0 dh=5 dv=0 dx=0 dy=0 dh=0 dv=0
PairPos2: "'kern' Horizontal Kerning in Hebrew lookup 7 subtable" afii57690 dx=5 dy=0 dh=5 dv=0 dx=0 dy=0 dh=0 dv=0
PairPos2: "'kern' Horizontal Kerning in Hebrew lookup 7 subtable" afii57689 dx=5 dy=0 dh=5 dv=0 dx=0 dy=0 dh=0 dv=0
PairPos2: "'kern' Horizontal Kerning in Hebrew lookup 7 subtable" afii57688 dx=10 dy=0 dh=10 dv=0 dx=0 dy=0 dh=0 dv=0
PairPos2: "'kern' Horizontal Kerning in Hebrew lookup 7 subtable" afii57687 dx=15 dy=0 dh=15 dv=0 dx=0 dy=0 dh=0 dv=0
PairPos2: "'kern' Horizontal Kerning in Hebrew lookup 7 subtable" afii57685 dx=5 dy=0 dh=5 dv=0 dx=0 dy=0 dh=0 dv=0
PairPos2: "'kern' Horizontal Kerning in Hebrew lookup 7 subtable" afii57684 dx=-10 dy=0 dh=-10 dv=0 dx=0 dy=0 dh=0 dv=0
PairPos2: "'kern' Horizontal Kerning in Hebrew lookup 7 subtable" afii57683 dx=-10 dy=0 dh=-10 dv=0 dx=0 dy=0 dh=0 dv=0
PairPos2: "'kern' Horizontal Kerning in Hebrew lookup 7 subtable" afii57682 dx=15 dy=0 dh=15 dv=0 dx=0 dy=0 dh=0 dv=0
PairPos2: "'kern' Horizontal Kerning in Hebrew lookup 7 subtable" afii57681 dx=10 dy=0 dh=10 dv=0 dx=0 dy=0 dh=0 dv=0
PairPos2: "'kern' Horizontal Kerning in Hebrew lookup 7 subtable" afii57680 dx=-10 dy=0 dh=-10 dv=0 dx=0 dy=0 dh=0 dv=0
PairPos2: "'kern' Horizontal Kerning in Hebrew lookup 7 subtable" afii57679 dx=10 dy=0 dh=10 dv=0 dx=0 dy=0 dh=0 dv=0
PairPos2: "'kern' Horizontal Kerning in Hebrew lookup 7 subtable" afii57676 dx=15 dy=0 dh=15 dv=0 dx=0 dy=0 dh=0 dv=0
PairPos2: "'kern' Horizontal Kerning in Hebrew lookup 7 subtable" afii57675 dx=-5 dy=0 dh=-5 dv=0 dx=0 dy=0 dh=0 dv=0
PairPos2: "'kern' Horizontal Kerning in Hebrew lookup 7 subtable" afii57673 dx=5 dy=0 dh=5 dv=0 dx=0 dy=0 dh=0 dv=0
PairPos2: "'kern' Horizontal Kerning in Hebrew lookup 7 subtable" afii57671 dx=5 dy=0 dh=5 dv=0 dx=0 dy=0 dh=0 dv=0
PairPos2: "'kern' Horizontal Kerning in Hebrew lookup 7 subtable" afii57670 dx=15 dy=0 dh=15 dv=0 dx=0 dy=0 dh=0 dv=0
PairPos2: "'kern' Horizontal Kerning in Hebrew lookup 7 subtable" afii57667 dx=10 dy=0 dh=10 dv=0 dx=0 dy=0 dh=0 dv=0
PairPos2: "'kern' Horizontal Kerning in Hebrew lookup 7 subtable" afii57666 dx=-50 dy=0 dh=-50 dv=0 dx=0 dy=0 dh=0 dv=0
PairPos2: "'kern' Horizontal Kerning in Hebrew lookup 7 subtable" afii57665 dx=-20 dy=0 dh=-20 dv=0 dx=0 dy=0 dh=0 dv=0
PairPos2: "'kern' Horizontal Kerning in Hebrew lookup 7 subtable" afii57664 dx=-5 dy=0 dh=-5 dv=0 dx=0 dy=0 dh=0 dv=0
EndChar

StartChar: afii57841
Encoding: 1471 1471 146
Width: 0
GlyphClass: 2
Flags: W
LayerCount: 2
Fore
SplineSet
-100 744 m 1,0,-1
 100 744 l 1,1,-1
 100 674 l 1,2,-1
 -100 674 l 1,3,-1
 -100 744 l 1,0,-1
EndSplineSet
Validated: 1
EndChar

StartChar: afii57842
Encoding: 1472 1472 147
Width: 201
GlyphClass: 2
Flags: W
LayerCount: 2
Fore
SplineSet
40 626 m 1,0,-1
 162 668 l 1,1,-1
 162 -52 l 1,2,-1
 40 -94 l 1,3,-1
 40 626 l 1,0,-1
EndSplineSet
Validated: 1
EndChar

StartChar: afii57804
Encoding: 1473 1473 148
Width: 0
GlyphClass: 2
Flags: W
LayerCount: 2
Fore
SplineSet
696 718 m 128,-1,1
 714 718 714 718 727 705 c 128,-1,2
 740 692 740 692 740 674 c 128,-1,3
 740 656 740 656 727 643 c 128,-1,4
 714 630 714 630 696 630 c 128,-1,5
 678 630 678 630 665 643 c 128,-1,6
 652 656 652 656 652 674 c 128,-1,7
 652 692 652 692 665 705 c 128,-1,0
 678 718 678 718 696 718 c 128,-1,1
EndSplineSet
Validated: 1
EndChar

StartChar: afii57803
Encoding: 1474 1474 149
Width: 0
GlyphClass: 2
Flags: W
LayerCount: 2
Fore
SplineSet
168 718 m 128,-1,1
 186 718 186 718 199 705 c 128,-1,2
 212 692 212 692 212 674 c 128,-1,3
 212 656 212 656 199 643 c 128,-1,4
 186 630 186 630 168 630 c 128,-1,5
 150 630 150 630 137 643 c 128,-1,6
 124 656 124 656 124 674 c 128,-1,7
 124 692 124 692 137 705 c 128,-1,0
 150 718 150 718 168 718 c 128,-1,1
EndSplineSet
Validated: 1
EndChar

StartChar: uni05C4
Encoding: 1476 1476 151
Width: 0
GlyphClass: 2
Flags: W
LayerCount: 2
Fore
SplineSet
0 840 m 128,-1,1
 37 840 37 840 63.5 813.5 c 128,-1,2
 90 787 90 787 90 750 c 128,-1,3
 90 713 90 713 63.5 686.5 c 128,-1,4
 37 660 37 660 0 660 c 128,-1,5
 -37 660 -37 660 -63.5 686.5 c 128,-1,6
 -90 713 -90 713 -90 750 c 128,-1,7
 -90 787 -90 787 -63.5 813.5 c 128,-1,0
 -37 840 -37 840 0 840 c 128,-1,1
EndSplineSet
Validated: 1
EndChar

StartChar: uni05C5
Encoding: 1477 1477 152
Width: 0
GlyphClass: 2
Flags: W
LayerCount: 2
Fore
SplineSet
0 -60 m 256,0,1
 37 -60 37 -60 63.5 -86.5 c 128,-1,2
 90 -113 90 -113 90 -150 c 128,-1,3
 90 -187 90 -187 63.5 -213.5 c 128,-1,4
 37 -240 37 -240 0 -240 c 256,5,6
 -37 -240 -37 -240 -63.5 -213.5 c 128,-1,7
 -90 -187 -90 -187 -90 -150 c 128,-1,8
 -90 -113 -90 -113 -63.5 -86.5 c 128,-1,9
 -37 -60 -37 -60 0 -60 c 256,0,1
EndSplineSet
Validated: 1
EndChar

StartChar: uni05C6
Encoding: 1478 1478 153
Width: 377
GlyphClass: 2
Flags: W
LayerCount: 2
Fore
SplineSet
132 208 m 0,0,1
 119 248 119 248 116 291 c 0,2,3
 111 353 111 353 124 400 c 1,4,-1
 228 400 l 2,5,6
 246 400 246 400 259.5 392.5 c 128,-1,7
 273 385 273 385 281.5 379 c 128,-1,8
 290 373 290 373 298 376 c 0,9,10
 315 382 315 382 320 431.5 c 128,-1,11
 325 481 325 481 320 511 c 0,12,13
 316 552 316 552 298.5 576 c 128,-1,14
 281 600 281 600 236 600 c 2,15,-1
 124 600 l 2,16,17
 117 600 117 600 111 605.5 c 128,-1,18
 105 611 105 611 104 619 c 0,19,20
 103 624 103 624 104 632 c 128,-1,21
 105 640 105 640 104 641 c 0,22,23
 102 645 102 645 95.5 645.5 c 128,-1,24
 89 646 89 646 84 643 c 0,25,26
 66 630 66 630 56 582 c 0,27,28
 49 548 49 548 48 512 c 0,29,30
 47 493 47 493 52 467 c 0,31,32
 58 436 58 436 73 420 c 0,33,34
 77 416 77 416 76.5 409 c 128,-1,35
 76 402 76 402 66.5 361 c 128,-1,36
 57 320 57 320 56 296 c 0,37,38
 53 235 53 235 63 164 c 0,39,40
 68 129 68 129 61 99 c 2,41,-1
 42 25 l 2,42,43
 38 13 38 13 41 6.5 c 128,-1,44
 44 0 44 0 60 0 c 2,45,-1
 267 0 l 2,46,47
 282 0 282 0 287.5 4.5 c 128,-1,48
 293 9 293 9 296 20 c 2,49,-1
 335 166 l 2,50,51
 339 177 339 177 336 183.5 c 128,-1,52
 333 190 333 190 317 190 c 2,53,-1
 159 190 l 2,54,55
 139 190 139 190 132 208 c 0,0,1
EndSplineSet
Validated: 41
EndChar

StartChar: uni05C7
Encoding: 1479 1479 154
Width: 0
GlyphClass: 4
Flags: W
AnchorPoint: "Anchor-4" 0 0 mark 0
LayerCount: 2
Fore
SplineSet
-100 -140 m 1,0,-1
 -100 -69 l 1,1,-1
 100 -69 l 1,2,-1
 100 -140 l 1,3,-1
 35 -140 l 1,4,-1
 35 -284 l 1,5,-1
 -35 -284 l 1,6,-1
 -35 -140 l 1,7,-1
 -100 -140 l 1,0,-1
EndSplineSet
Validated: 1
EndChar

StartChar: afii57664
Encoding: 1488 1488 155
Width: 800
GlyphClass: 2
Flags: W
AnchorPoint: "Anchor-5" 404.649 0 basechar 0
AnchorPoint: "Anchor-4" 404.649 0 basechar 0
AnchorPoint: "Anchor-3" 404.649 0 basechar 0
AnchorPoint: "Anchor-2" 394.649 0 basechar 0
AnchorPoint: "Anchor-1" 109.649 0 basechar 0
AnchorPoint: "Anchor-0" 432.649 -209 basechar 0
LayerCount: 2
Fore
SplineSet
275.649414062 570 m 2,0,-1
 496.649414062 340 l 1,1,2
 501.649414062 385 501.649414062 385 514.649414062 407 c 1,3,4
 486.649414062 423 486.649414062 423 468.149414062 457 c 128,-1,5
 449.649414062 491 449.649414062 491 448.649414062 535 c 0,6,7
 448.649414062 566 448.649414062 566 458.649414062 599 c 128,-1,8
 468.649414062 632 468.649414062 632 485.649414062 643 c 0,9,10
 491.649414062 647 491.649414062 647 498.149414062 644 c 128,-1,11
 504.649414062 641 504.649414062 641 507.649414062 633 c 0,12,13
 507.649414062 632 507.649414062 632 508.649414062 625.5 c 128,-1,14
 509.649414062 619 509.649414062 619 511.149414062 615.5 c 128,-1,15
 512.649414062 612 512.649414062 612 517.649414062 607 c 128,-1,16
 522.649414062 602 522.649414062 602 531.649414062 600 c 2,17,-1
 587.649414062 589 l 2,18,19
 623.649414062 582 623.649414062 582 644.649414062 560 c 128,-1,20
 665.649414062 538 665.649414062 538 670.149414062 506 c 128,-1,21
 674.649414062 474 674.649414062 474 672.649414062 445.5 c 128,-1,22
 670.649414062 417 670.649414062 417 663.649414062 385 c 0,23,24
 659.649414062 370 659.649414062 370 653.149414062 366 c 128,-1,25
 646.649414062 362 646.649414062 362 640.149414062 365.5 c 128,-1,26
 633.649414062 369 633.649414062 369 621.149414062 374 c 128,-1,27
 608.649414062 379 608.649414062 379 598.649414062 379 c 0,28,29
 572.649414062 379 572.649414062 379 559.649414062 349 c 0,30,31
 549.649414062 319 549.649414062 319 552.149414062 297.5 c 128,-1,32
 554.649414062 276 554.649414062 276 565.649414062 264 c 2,33,-1
 622.649414062 203 l 2,34,35
 656.649414062 168 656.649414062 168 663.149414062 124.5 c 128,-1,36
 669.649414062 81 669.649414062 81 655.149414062 48.5 c 128,-1,37
 640.649414062 16 640.649414062 16 614.649414062 0 c 0,38,39
 594.649414062 -13 594.649414062 -13 573.649414062 -7 c 0,40,41
 569.649414062 -6 569.649414062 -6 566.149414062 3 c 128,-1,42
 562.649414062 12 562.649414062 12 555.149414062 27.5 c 128,-1,43
 547.649414062 43 547.649414062 43 535.649414062 55 c 2,44,-1
 292.649414062 316 l 1,45,46
 253.649414062 303 253.649414062 303 250.649414062 267 c 0,47,48
 247.649414062 242 247.649414062 242 261.149414062 223.5 c 128,-1,49
 274.649414062 205 274.649414062 205 295.149414062 191 c 128,-1,50
 315.649414062 177 315.649414062 177 336.649414062 161 c 128,-1,51
 357.649414062 145 357.649414062 145 372.649414062 117 c 128,-1,52
 387.649414062 89 387.649414062 89 386.649414062 52 c 0,53,54
 386.649414062 20 386.649414062 20 380.649414062 10 c 128,-1,55
 374.649414062 0 374.649414062 0 356.649414062 0 c 2,56,-1
 156.649414062 0 l 2,57,58
 135.649414062 0 135.649414062 0 129.149414062 17 c 128,-1,59
 122.649414062 34 122.649414062 34 133.649414062 54 c 0,60,61
 138.649414062 63 138.649414062 63 157.149414062 64.5 c 128,-1,62
 175.649414062 66 175.649414062 66 177.649414062 70 c 0,63,64
 185.649414062 93 185.649414062 93 179.149414062 108 c 128,-1,65
 172.649414062 123 172.649414062 123 162.649414062 158.5 c 128,-1,66
 152.649414062 194 152.649414062 194 154.649414062 227 c 0,67,68
 160.649414062 327 160.649414062 327 245.649414062 364 c 1,69,-1
 206.649414062 404 l 2,70,71
 184.649414062 426 184.649414062 426 170.649414062 448 c 0,72,73
 149.649414062 484 149.649414062 484 157.149414062 537 c 128,-1,74
 164.649414062 590 164.649414062 590 194.649414062 620 c 0,75,76
 204.649414062 629 204.649414062 629 218.149414062 632 c 128,-1,77
 231.649414062 635 231.649414062 635 238.649414062 628 c 0,78,79
 242.649414062 624 242.649414062 624 252.649414062 604 c 128,-1,80
 262.649414062 584 262.649414062 584 275.649414062 570 c 2,0,-1
EndSplineSet
Validated: 524321
Substitution2: "'jalt' Justification Alternatives in Hebrew lookup 8 subtable" uniFB21
PairPos2: "'kern' Horizontal Kerning in Hebrew lookup 7 subtable" uniFB4D dx=10 dy=0 dh=10 dv=0 dx=0 dy=0 dh=0 dv=0
PairPos2: "'kern' Horizontal Kerning in Hebrew lookup 7 subtable" uniFB4C dx=10 dy=0 dh=10 dv=0 dx=0 dy=0 dh=0 dv=0
PairPos2: "'kern' Horizontal Kerning in Hebrew lookup 7 subtable" uniFB49 dx=-20 dy=0 dh=-20 dv=0 dx=0 dy=0 dh=0 dv=0
PairPos2: "'kern' Horizontal Kerning in Hebrew lookup 7 subtable" uniFB47 dx=-10 dy=0 dh=-10 dv=0 dx=0 dy=0 dh=0 dv=0
PairPos2: "'kern' Horizontal Kerning in Hebrew lookup 7 subtable" uniFB45 dx=-20 dy=0 dh=-20 dv=0 dx=0 dy=0 dh=0 dv=0
PairPos2: "'kern' Horizontal Kerning in Hebrew lookup 7 subtable" uniFB42 dx=-15 dy=0 dh=-15 dv=0 dx=0 dy=0 dh=0 dv=0
PairPos2: "'kern' Horizontal Kerning in Hebrew lookup 7 subtable" uniFB41 dx=10 dy=0 dh=10 dv=0 dx=0 dy=0 dh=0 dv=0
PairPos2: "'kern' Horizontal Kerning in Hebrew lookup 7 subtable" uniFB3F dx=-10 dy=0 dh=-10 dv=0 dx=0 dy=0 dh=0 dv=0
PairPos2: "'kern' Horizontal Kerning in Hebrew lookup 7 subtable" uniFB3C dx=-10 dy=0 dh=-10 dv=0 dx=0 dy=0 dh=0 dv=0
PairPos2: "'kern' Horizontal Kerning in Hebrew lookup 7 subtable" uniFB3B dx=10 dy=0 dh=10 dv=0 dx=0 dy=0 dh=0 dv=0
PairPos2: "'kern' Horizontal Kerning in Hebrew lookup 7 subtable" uniFB3A dx=-20 dy=0 dh=-20 dv=0 dx=0 dy=0 dh=0 dv=0
PairPos2: "'kern' Horizontal Kerning in Hebrew lookup 7 subtable" uniFB39 dx=-20 dy=0 dh=-20 dv=0 dx=0 dy=0 dh=0 dv=0
PairPos2: "'kern' Horizontal Kerning in Hebrew lookup 7 subtable" uniFB37 dx=-10 dy=0 dh=-10 dv=0 dx=0 dy=0 dh=0 dv=0
PairPos2: "'kern' Horizontal Kerning in Hebrew lookup 7 subtable" uniFB36 dx=-10 dy=0 dh=-10 dv=0 dx=0 dy=0 dh=0 dv=0
PairPos2: "'kern' Horizontal Kerning in Hebrew lookup 7 subtable" uniFB33 dx=-10 dy=0 dh=-10 dv=0 dx=0 dy=0 dh=0 dv=0
PairPos2: "'kern' Horizontal Kerning in Hebrew lookup 7 subtable" uniFB31 dx=10 dy=0 dh=10 dv=0 dx=0 dy=0 dh=0 dv=0
PairPos2: "'kern' Horizontal Kerning in Hebrew lookup 7 subtable" uniFB2D dx=-20 dy=0 dh=-20 dv=0 dx=0 dy=0 dh=0 dv=0
PairPos2: "'kern' Horizontal Kerning in Hebrew lookup 7 subtable" uniFB2C dx=-20 dy=0 dh=-20 dv=0 dx=0 dy=0 dh=0 dv=0
PairPos2: "'kern' Horizontal Kerning in Hebrew lookup 7 subtable" afii57695 dx=-20 dy=0 dh=-20 dv=0 dx=0 dy=0 dh=0 dv=0
PairPos2: "'kern' Horizontal Kerning in Hebrew lookup 7 subtable" afii57694 dx=-20 dy=0 dh=-20 dv=0 dx=0 dy=0 dh=0 dv=0
PairPos2: "'kern' Horizontal Kerning in Hebrew lookup 7 subtable" uniFB25 dx=-10 dy=0 dh=-10 dv=0 dx=0 dy=0 dh=0 dv=0
PairPos2: "'kern' Horizontal Kerning in Hebrew lookup 7 subtable" uniFB24 dx=10 dy=0 dh=10 dv=0 dx=0 dy=0 dh=0 dv=0
PairPos2: "'kern' Horizontal Kerning in Hebrew lookup 7 subtable" uniFB22 dx=-10 dy=0 dh=-10 dv=0 dx=0 dy=0 dh=0 dv=0
PairPos2: "'kern' Horizontal Kerning in Hebrew lookup 7 subtable" afii57705 dx=-20 dy=0 dh=-20 dv=0 dx=0 dy=0 dh=0 dv=0
PairPos2: "'kern' Horizontal Kerning in Hebrew lookup 7 subtable" uniFB1D dx=-20 dy=0 dh=-20 dv=0 dx=0 dy=0 dh=0 dv=0
PairPos2: "'kern' Horizontal Kerning in Hebrew lookup 7 subtable" uniE804 dx=-20 dy=0 dh=-20 dv=0 dx=0 dy=0 dh=0 dv=0
PairPos2: "'kern' Horizontal Kerning in Hebrew lookup 7 subtable" uniE803 dx=-20 dy=0 dh=-20 dv=0 dx=0 dy=0 dh=0 dv=0
PairPos2: "'kern' Horizontal Kerning in Hebrew lookup 7 subtable" uniE802 dx=-20 dy=0 dh=-20 dv=0 dx=0 dy=0 dh=0 dv=0
PairPos2: "'kern' Horizontal Kerning in Hebrew lookup 7 subtable" quotedblright dx=-25 dy=0 dh=-25 dv=0 dx=0 dy=0 dh=0 dv=0
PairPos2: "'kern' Horizontal Kerning in Hebrew lookup 7 subtable" quoteright dx=-25 dy=0 dh=-25 dv=0 dx=0 dy=0 dh=0 dv=0
PairPos2: "'kern' Horizontal Kerning in Hebrew lookup 7 subtable" uni05F4 dx=-25 dy=0 dh=-25 dv=0 dx=0 dy=0 dh=0 dv=0
PairPos2: "'kern' Horizontal Kerning in Hebrew lookup 7 subtable" uni05F3 dx=-25 dy=0 dh=-25 dv=0 dx=0 dy=0 dh=0 dv=0
PairPos2: "'kern' Horizontal Kerning in Hebrew lookup 7 subtable" afii57718 dx=-20 dy=0 dh=-20 dv=0 dx=0 dy=0 dh=0 dv=0
PairPos2: "'kern' Horizontal Kerning in Hebrew lookup 7 subtable" afii57717 dx=-20 dy=0 dh=-20 dv=0 dx=0 dy=0 dh=0 dv=0
PairPos2: "'kern' Horizontal Kerning in Hebrew lookup 7 subtable" afii57689 dx=-20 dy=0 dh=-20 dv=0 dx=0 dy=0 dh=0 dv=0
PairPos2: "'kern' Horizontal Kerning in Hebrew lookup 7 subtable" afii57687 dx=-10 dy=0 dh=-10 dv=0 dx=0 dy=0 dh=0 dv=0
PairPos2: "'kern' Horizontal Kerning in Hebrew lookup 7 subtable" afii57685 dx=-20 dy=0 dh=-20 dv=0 dx=0 dy=0 dh=0 dv=0
PairPos2: "'kern' Horizontal Kerning in Hebrew lookup 7 subtable" afii57682 dx=-15 dy=0 dh=-15 dv=0 dx=0 dy=0 dh=0 dv=0
PairPos2: "'kern' Horizontal Kerning in Hebrew lookup 7 subtable" afii57681 dx=10 dy=0 dh=10 dv=0 dx=0 dy=0 dh=0 dv=0
PairPos2: "'kern' Horizontal Kerning in Hebrew lookup 7 subtable" afii57679 dx=-10 dy=0 dh=-10 dv=0 dx=0 dy=0 dh=0 dv=0
PairPos2: "'kern' Horizontal Kerning in Hebrew lookup 7 subtable" afii57676 dx=-10 dy=0 dh=-10 dv=0 dx=0 dy=0 dh=0 dv=0
PairPos2: "'kern' Horizontal Kerning in Hebrew lookup 7 subtable" afii57675 dx=10 dy=0 dh=10 dv=0 dx=0 dy=0 dh=0 dv=0
PairPos2: "'kern' Horizontal Kerning in Hebrew lookup 7 subtable" afii57674 dx=-20 dy=0 dh=-20 dv=0 dx=0 dy=0 dh=0 dv=0
PairPos2: "'kern' Horizontal Kerning in Hebrew lookup 7 subtable" afii57673 dx=-20 dy=0 dh=-20 dv=0 dx=0 dy=0 dh=0 dv=0
PairPos2: "'kern' Horizontal Kerning in Hebrew lookup 7 subtable" afii57671 dx=-10 dy=0 dh=-10 dv=0 dx=0 dy=0 dh=0 dv=0
PairPos2: "'kern' Horizontal Kerning in Hebrew lookup 7 subtable" afii57670 dx=-10 dy=0 dh=-10 dv=0 dx=0 dy=0 dh=0 dv=0
PairPos2: "'kern' Horizontal Kerning in Hebrew lookup 7 subtable" afii57667 dx=-10 dy=0 dh=-10 dv=0 dx=0 dy=0 dh=0 dv=0
PairPos2: "'kern' Horizontal Kerning in Hebrew lookup 7 subtable" afii57665 dx=10 dy=0 dh=10 dv=0 dx=0 dy=0 dh=0 dv=0
PairPos2: "'kern' Horizontal Kerning in Hebrew lookup 7 subtable" afii57645 dx=-25 dy=0 dh=-25 dv=0 dx=0 dy=0 dh=0 dv=0
PairPos2: "'kern' Horizontal Kerning in Hebrew lookup 7 subtable" question dx=-5 dy=0 dh=-5 dv=0 dx=0 dy=0 dh=0 dv=0
PairPos2: "'kern' Horizontal Kerning in Hebrew lookup 7 subtable" quotesingle dx=-25 dy=0 dh=-25 dv=0 dx=0 dy=0 dh=0 dv=0
PairPos2: "'kern' Horizontal Kerning in Hebrew lookup 7 subtable" quotedbl dx=-25 dy=0 dh=-25 dv=0 dx=0 dy=0 dh=0 dv=0
EndChar

StartChar: afii57665
Encoding: 1489 1489 156
Width: 704
GlyphClass: 2
Flags: W
AnchorPoint: "Anchor-5" 340.172 0 basechar 0
AnchorPoint: "Anchor-4" 340.172 0 basechar 0
AnchorPoint: "Anchor-3" 340.172 0 basechar 0
AnchorPoint: "Anchor-2" 340.172 0 basechar 0
AnchorPoint: "Anchor-1" 95.1719 0 basechar 0
AnchorPoint: "Anchor-0" 344.172 0 basechar 0
LayerCount: 2
Fore
SplineSet
569.171875 190 m 2,0,1
 584.171875 190 584.171875 190 587.671875 183.5 c 128,-1,2
 591.171875 177 591.171875 177 586.171875 166 c 2,3,-1
 547.171875 20 l 2,4,5
 544.171875 9 544.171875 9 538.671875 4.5 c 128,-1,6
 533.171875 0 533.171875 0 519.171875 0 c 2,7,-1
 135.171875 0 l 2,8,9
 119.171875 0 119.171875 0 116.171875 6.5 c 128,-1,10
 113.171875 13 113.171875 13 117.171875 25 c 2,11,-1
 155.171875 177 l 2,12,13
 157.171875 185 157.171875 185 161.671875 187.5 c 128,-1,14
 166.171875 190 166.171875 190 177.171875 190 c 2,15,-1
 395.171875 190 l 2,16,17
 427.171875 190 427.171875 190 435.171875 195 c 0,18,19
 449.171875 204 449.171875 204 461.671875 235 c 128,-1,20
 474.171875 266 474.171875 266 474.171875 304 c 0,21,22
 474.171875 362 474.171875 362 448.171875 383 c 0,23,24
 435.171875 395 435.171875 395 418.671875 397.5 c 128,-1,25
 402.171875 400 402.171875 400 373.171875 400 c 2,26,-1
 222.171875 400 l 2,27,28
 178.171875 400 178.171875 400 158.171875 427 c 128,-1,29
 138.171875 454 138.171875 454 138.171875 520 c 0,30,31
 138.171875 571 138.171875 571 155.171875 608.5 c 128,-1,32
 172.171875 646 172.171875 646 194.171875 646 c 0,33,34
 202.171875 646 202.171875 646 204.171875 643 c 128,-1,35
 206.171875 640 206.171875 640 205.171875 632 c 128,-1,36
 204.171875 624 204.171875 624 205.171875 619 c 0,37,38
 206.171875 611 206.171875 611 212.171875 605.5 c 128,-1,39
 218.171875 600 218.171875 600 224.171875 600 c 2,40,-1
 446.171875 600 l 2,41,42
 474.171875 600 474.171875 600 494.171875 588.5 c 128,-1,43
 514.171875 577 514.171875 577 525.671875 559 c 128,-1,44
 537.171875 541 537.171875 541 543.671875 512.5 c 128,-1,45
 550.171875 484 550.171875 484 552.171875 457 c 128,-1,46
 554.171875 430 554.171875 430 554.171875 392 c 0,47,48
 554.171875 341 554.171875 341 540.671875 289.5 c 128,-1,49
 527.171875 238 527.171875 238 506.171875 201 c 0,50,51
 504.171875 198 504.171875 198 505.671875 194 c 128,-1,52
 507.171875 190 507.171875 190 511.171875 190 c 2,53,-1
 569.171875 190 l 2,0,1
EndSplineSet
Validated: 524289
PairPos2: "'kern' Horizontal Kerning in Hebrew lookup 7 subtable" uniFB4E dx=-10 dy=0 dh=-10 dv=0 dx=0 dy=0 dh=0 dv=0
PairPos2: "'kern' Horizontal Kerning in Hebrew lookup 7 subtable" uniFB4D dx=-5 dy=0 dh=-5 dv=0 dx=0 dy=0 dh=0 dv=0
PairPos2: "'kern' Horizontal Kerning in Hebrew lookup 7 subtable" uniFB4A dx=5 dy=0 dh=5 dv=0 dx=0 dy=0 dh=0 dv=0
PairPos2: "'kern' Horizontal Kerning in Hebrew lookup 7 subtable" uniFB49 dx=-15 dy=0 dh=-15 dv=0 dx=0 dy=0 dh=0 dv=0
PairPos2: "'kern' Horizontal Kerning in Hebrew lookup 7 subtable" uniFB48 dx=10 dy=0 dh=10 dv=0 dx=0 dy=0 dh=0 dv=0
PairPos2: "'kern' Horizontal Kerning in Hebrew lookup 7 subtable" uniFB47 dx=-10 dy=0 dh=-10 dv=0 dx=0 dy=0 dh=0 dv=0
PairPos2: "'kern' Horizontal Kerning in Hebrew lookup 7 subtable" uniFB46 dx=-10 dy=0 dh=-10 dv=0 dx=0 dy=0 dh=0 dv=0
PairPos2: "'kern' Horizontal Kerning in Hebrew lookup 7 subtable" uniFB45 dx=-20 dy=0 dh=-20 dv=0 dx=0 dy=0 dh=0 dv=0
PairPos2: "'kern' Horizontal Kerning in Hebrew lookup 7 subtable" uniFB44 dx=-10 dy=0 dh=-10 dv=0 dx=0 dy=0 dh=0 dv=0
PairPos2: "'kern' Horizontal Kerning in Hebrew lookup 7 subtable" uniFB3E dx=-10 dy=0 dh=-10 dv=0 dx=0 dy=0 dh=0 dv=0
PairPos2: "'kern' Horizontal Kerning in Hebrew lookup 7 subtable" uniFB3D dx=-10 dy=0 dh=-10 dv=0 dx=0 dy=0 dh=0 dv=0
PairPos2: "'kern' Horizontal Kerning in Hebrew lookup 7 subtable" uniFB3B dx=-5 dy=0 dh=-5 dv=0 dx=0 dy=0 dh=0 dv=0
PairPos2: "'kern' Horizontal Kerning in Hebrew lookup 7 subtable" uniFB3A dx=-10 dy=0 dh=-10 dv=0 dx=0 dy=0 dh=0 dv=0
PairPos2: "'kern' Horizontal Kerning in Hebrew lookup 7 subtable" uniFB39 dx=-10 dy=0 dh=-10 dv=0 dx=0 dy=0 dh=0 dv=0
PairPos2: "'kern' Horizontal Kerning in Hebrew lookup 7 subtable" uniFB38 dx=-20 dy=0 dh=-20 dv=0 dx=0 dy=0 dh=0 dv=0
PairPos2: "'kern' Horizontal Kerning in Hebrew lookup 7 subtable" uniFB37 dx=-5 dy=0 dh=-5 dv=0 dx=0 dy=0 dh=0 dv=0
PairPos2: "'kern' Horizontal Kerning in Hebrew lookup 7 subtable" uniFB36 dx=-10 dy=0 dh=-10 dv=0 dx=0 dy=0 dh=0 dv=0
PairPos2: "'kern' Horizontal Kerning in Hebrew lookup 7 subtable" uniFB34 dx=-10 dy=0 dh=-10 dv=0 dx=0 dy=0 dh=0 dv=0
PairPos2: "'kern' Horizontal Kerning in Hebrew lookup 7 subtable" uniFB33 dx=-10 dy=0 dh=-10 dv=0 dx=0 dy=0 dh=0 dv=0
PairPos2: "'kern' Horizontal Kerning in Hebrew lookup 7 subtable" uniFB30 dx=-10 dy=0 dh=-10 dv=0 dx=0 dy=0 dh=0 dv=0
PairPos2: "'kern' Horizontal Kerning in Hebrew lookup 7 subtable" uniFB2F dx=-10 dy=0 dh=-10 dv=0 dx=0 dy=0 dh=0 dv=0
PairPos2: "'kern' Horizontal Kerning in Hebrew lookup 7 subtable" uniFB2E dx=-10 dy=0 dh=-10 dv=0 dx=0 dy=0 dh=0 dv=0
PairPos2: "'kern' Horizontal Kerning in Hebrew lookup 7 subtable" uniFB2D dx=-15 dy=0 dh=-15 dv=0 dx=0 dy=0 dh=0 dv=0
PairPos2: "'kern' Horizontal Kerning in Hebrew lookup 7 subtable" uniFB2C dx=-15 dy=0 dh=-15 dv=0 dx=0 dy=0 dh=0 dv=0
PairPos2: "'kern' Horizontal Kerning in Hebrew lookup 7 subtable" afii57695 dx=-15 dy=0 dh=-15 dv=0 dx=0 dy=0 dh=0 dv=0
PairPos2: "'kern' Horizontal Kerning in Hebrew lookup 7 subtable" afii57694 dx=-15 dy=0 dh=-15 dv=0 dx=0 dy=0 dh=0 dv=0
PairPos2: "'kern' Horizontal Kerning in Hebrew lookup 7 subtable" uniFB28 dx=5 dy=0 dh=5 dv=0 dx=0 dy=0 dh=0 dv=0
PairPos2: "'kern' Horizontal Kerning in Hebrew lookup 7 subtable" uniFB26 dx=-10 dy=0 dh=-10 dv=0 dx=0 dy=0 dh=0 dv=0
PairPos2: "'kern' Horizontal Kerning in Hebrew lookup 7 subtable" uniFB24 dx=-5 dy=0 dh=-5 dv=0 dx=0 dy=0 dh=0 dv=0
PairPos2: "'kern' Horizontal Kerning in Hebrew lookup 7 subtable" uniFB23 dx=-10 dy=0 dh=-10 dv=0 dx=0 dy=0 dh=0 dv=0
PairPos2: "'kern' Horizontal Kerning in Hebrew lookup 7 subtable" uniFB22 dx=-10 dy=0 dh=-10 dv=0 dx=0 dy=0 dh=0 dv=0
PairPos2: "'kern' Horizontal Kerning in Hebrew lookup 7 subtable" uniFB21 dx=-10 dy=0 dh=-10 dv=0 dx=0 dy=0 dh=0 dv=0
PairPos2: "'kern' Horizontal Kerning in Hebrew lookup 7 subtable" afii57705 dx=-10 dy=0 dh=-10 dv=0 dx=0 dy=0 dh=0 dv=0
PairPos2: "'kern' Horizontal Kerning in Hebrew lookup 7 subtable" uniFB1D dx=-10 dy=0 dh=-10 dv=0 dx=0 dy=0 dh=0 dv=0
PairPos2: "'kern' Horizontal Kerning in Hebrew lookup 7 subtable" uniE804 dx=-10 dy=0 dh=-10 dv=0 dx=0 dy=0 dh=0 dv=0
PairPos2: "'kern' Horizontal Kerning in Hebrew lookup 7 subtable" uniE803 dx=-10 dy=0 dh=-10 dv=0 dx=0 dy=0 dh=0 dv=0
PairPos2: "'kern' Horizontal Kerning in Hebrew lookup 7 subtable" uniE802 dx=-10 dy=0 dh=-10 dv=0 dx=0 dy=0 dh=0 dv=0
PairPos2: "'kern' Horizontal Kerning in Hebrew lookup 7 subtable" quotedblright dx=-20 dy=0 dh=-20 dv=0 dx=0 dy=0 dh=0 dv=0
PairPos2: "'kern' Horizontal Kerning in Hebrew lookup 7 subtable" quoteright dx=-20 dy=0 dh=-20 dv=0 dx=0 dy=0 dh=0 dv=0
PairPos2: "'kern' Horizontal Kerning in Hebrew lookup 7 subtable" uni05F4 dx=-20 dy=0 dh=-20 dv=0 dx=0 dy=0 dh=0 dv=0
PairPos2: "'kern' Horizontal Kerning in Hebrew lookup 7 subtable" uni05F3 dx=-20 dy=0 dh=-20 dv=0 dx=0 dy=0 dh=0 dv=0
PairPos2: "'kern' Horizontal Kerning in Hebrew lookup 7 subtable" afii57718 dx=-10 dy=0 dh=-10 dv=0 dx=0 dy=0 dh=0 dv=0
PairPos2: "'kern' Horizontal Kerning in Hebrew lookup 7 subtable" afii57717 dx=-10 dy=0 dh=-10 dv=0 dx=0 dy=0 dh=0 dv=0
PairPos2: "'kern' Horizontal Kerning in Hebrew lookup 7 subtable" afii57690 dx=5 dy=0 dh=5 dv=0 dx=0 dy=0 dh=0 dv=0
PairPos2: "'kern' Horizontal Kerning in Hebrew lookup 7 subtable" afii57689 dx=-15 dy=0 dh=-15 dv=0 dx=0 dy=0 dh=0 dv=0
PairPos2: "'kern' Horizontal Kerning in Hebrew lookup 7 subtable" afii57688 dx=10 dy=0 dh=10 dv=0 dx=0 dy=0 dh=0 dv=0
PairPos2: "'kern' Horizontal Kerning in Hebrew lookup 7 subtable" afii57687 dx=-10 dy=0 dh=-10 dv=0 dx=0 dy=0 dh=0 dv=0
PairPos2: "'kern' Horizontal Kerning in Hebrew lookup 7 subtable" afii57686 dx=-10 dy=0 dh=-10 dv=0 dx=0 dy=0 dh=0 dv=0
PairPos2: "'kern' Horizontal Kerning in Hebrew lookup 7 subtable" afii57685 dx=-20 dy=0 dh=-20 dv=0 dx=0 dy=0 dh=0 dv=0
PairPos2: "'kern' Horizontal Kerning in Hebrew lookup 7 subtable" afii57684 dx=-10 dy=0 dh=-10 dv=0 dx=0 dy=0 dh=0 dv=0
PairPos2: "'kern' Horizontal Kerning in Hebrew lookup 7 subtable" afii57678 dx=-10 dy=0 dh=-10 dv=0 dx=0 dy=0 dh=0 dv=0
PairPos2: "'kern' Horizontal Kerning in Hebrew lookup 7 subtable" afii57677 dx=-10 dy=0 dh=-10 dv=0 dx=0 dy=0 dh=0 dv=0
PairPos2: "'kern' Horizontal Kerning in Hebrew lookup 7 subtable" afii57675 dx=-5 dy=0 dh=-5 dv=0 dx=0 dy=0 dh=0 dv=0
PairPos2: "'kern' Horizontal Kerning in Hebrew lookup 7 subtable" afii57674 dx=-10 dy=0 dh=-10 dv=0 dx=0 dy=0 dh=0 dv=0
PairPos2: "'kern' Horizontal Kerning in Hebrew lookup 7 subtable" afii57673 dx=-10 dy=0 dh=-10 dv=0 dx=0 dy=0 dh=0 dv=0
PairPos2: "'kern' Horizontal Kerning in Hebrew lookup 7 subtable" afii57672 dx=-20 dy=0 dh=-20 dv=0 dx=0 dy=0 dh=0 dv=0
PairPos2: "'kern' Horizontal Kerning in Hebrew lookup 7 subtable" afii57671 dx=-5 dy=0 dh=-5 dv=0 dx=0 dy=0 dh=0 dv=0
PairPos2: "'kern' Horizontal Kerning in Hebrew lookup 7 subtable" afii57670 dx=-10 dy=0 dh=-10 dv=0 dx=0 dy=0 dh=0 dv=0
PairPos2: "'kern' Horizontal Kerning in Hebrew lookup 7 subtable" afii57668 dx=-10 dy=0 dh=-10 dv=0 dx=0 dy=0 dh=0 dv=0
PairPos2: "'kern' Horizontal Kerning in Hebrew lookup 7 subtable" afii57667 dx=-10 dy=0 dh=-10 dv=0 dx=0 dy=0 dh=0 dv=0
PairPos2: "'kern' Horizontal Kerning in Hebrew lookup 7 subtable" afii57664 dx=-10 dy=0 dh=-10 dv=0 dx=0 dy=0 dh=0 dv=0
PairPos2: "'kern' Horizontal Kerning in Hebrew lookup 7 subtable" afii57645 dx=-20 dy=0 dh=-20 dv=0 dx=0 dy=0 dh=0 dv=0
PairPos2: "'kern' Horizontal Kerning in Hebrew lookup 7 subtable" question dx=-5 dy=0 dh=-5 dv=0 dx=0 dy=0 dh=0 dv=0
PairPos2: "'kern' Horizontal Kerning in Hebrew lookup 7 subtable" quotesingle dx=-20 dy=0 dh=-20 dv=0 dx=0 dy=0 dh=0 dv=0
PairPos2: "'kern' Horizontal Kerning in Hebrew lookup 7 subtable" quotedbl dx=-20 dy=0 dh=-20 dv=0 dx=0 dy=0 dh=0 dv=0
EndChar

StartChar: afii57666
Encoding: 1490 1490 157
Width: 564
GlyphClass: 2
Flags: W
AnchorPoint: "Anchor-5" 289.143 0 basechar 0
AnchorPoint: "Anchor-4" 274.143 0 basechar 0
AnchorPoint: "Anchor-3" 279.143 0 basechar 0
AnchorPoint: "Anchor-2" 279.143 0 basechar 0
AnchorPoint: "Anchor-1" 119.143 0 basechar 0
AnchorPoint: "Anchor-0" 227.143 2 basechar 0
LayerCount: 2
Fore
SplineSet
166.142578125 190 m 2,0,-1
 203.142578125 190 l 2,1,2
 261.142578125 190 261.142578125 190 288.642578125 214.5 c 128,-1,3
 316.142578125 239 316.142578125 239 323.142578125 286 c 0,4,5
 330.142578125 344 330.142578125 344 319.142578125 372 c 128,-1,6
 308.142578125 400 308.142578125 400 269.142578125 400 c 2,7,-1
 245.142578125 400 l 2,8,9
 201.142578125 400 201.142578125 400 181.142578125 427 c 128,-1,10
 161.142578125 454 161.142578125 454 161.142578125 520 c 0,11,12
 161.142578125 571 161.142578125 571 178.142578125 608.5 c 128,-1,13
 195.142578125 646 195.142578125 646 217.142578125 646 c 0,14,15
 225.142578125 646 225.142578125 646 227.142578125 643 c 128,-1,16
 229.142578125 640 229.142578125 640 228.142578125 632 c 128,-1,17
 227.142578125 624 227.142578125 624 228.142578125 619 c 0,18,19
 229.142578125 611 229.142578125 611 235.142578125 605.5 c 128,-1,20
 241.142578125 600 241.142578125 600 247.142578125 600 c 2,21,-1
 314.142578125 600 l 2,22,23
 321.142578125 600 321.142578125 600 329.142578125 599 c 128,-1,24
 337.142578125 598 337.142578125 598 352.142578125 592 c 128,-1,25
 367.142578125 586 367.142578125 586 377.142578125 576 c 128,-1,26
 387.142578125 566 387.142578125 566 393.142578125 545 c 128,-1,27
 399.142578125 524 399.142578125 524 396.142578125 495 c 0,28,29
 393.142578125 471 393.142578125 471 388.142578125 447 c 128,-1,30
 383.142578125 423 383.142578125 423 380.642578125 405.5 c 128,-1,31
 378.142578125 388 378.142578125 388 378.142578125 365 c 0,32,33
 379.142578125 334 379.142578125 334 391.642578125 305.5 c 128,-1,34
 404.142578125 277 404.142578125 277 419.642578125 256.5 c 128,-1,35
 435.142578125 236 435.142578125 236 447.642578125 200 c 128,-1,36
 460.142578125 164 460.142578125 164 460.142578125 120 c 0,37,38
 460.142578125 77 460.142578125 77 451.142578125 36.5 c 128,-1,39
 442.142578125 -4 442.142578125 -4 428.142578125 -4 c 0,40,41
 422.142578125 -4 422.142578125 -4 416.642578125 -1.5 c 128,-1,42
 411.142578125 1 411.142578125 1 407.142578125 6.5 c 128,-1,43
 403.142578125 12 403.142578125 12 400.142578125 16.5 c 128,-1,44
 397.142578125 21 397.142578125 21 393.142578125 31 c 128,-1,45
 389.142578125 41 389.142578125 41 387.642578125 46 c 128,-1,46
 386.142578125 51 386.142578125 51 382.642578125 63 c 128,-1,47
 379.142578125 75 379.142578125 75 378.142578125 79 c 0,48,49
 354.142578125 157 354.142578125 157 334.142578125 157 c 0,50,51
 319.142578125 157 319.142578125 157 290.142578125 74 c 2,52,-1
 270.142578125 20 l 2,53,54
 266.142578125 8 266.142578125 8 260.642578125 4 c 128,-1,55
 255.142578125 0 255.142578125 0 240.142578125 0 c 2,56,-1
 124.142578125 0 l 2,57,58
 108.142578125 0 108.142578125 0 105.142578125 6.5 c 128,-1,59
 102.142578125 13 102.142578125 13 106.142578125 25 c 2,60,-1
 145.142578125 177 l 2,61,62
 147.142578125 185 147.142578125 185 151.642578125 187.5 c 128,-1,63
 156.142578125 190 156.142578125 190 166.142578125 190 c 2,0,-1
EndSplineSet
Validated: 524321
PairPos2: "'kern' Horizontal Kerning in Hebrew lookup 7 subtable" uniFB4E dx=-10 dy=0 dh=-10 dv=0 dx=0 dy=0 dh=0 dv=0
PairPos2: "'kern' Horizontal Kerning in Hebrew lookup 7 subtable" uniFB4A dx=10 dy=0 dh=10 dv=0 dx=0 dy=0 dh=0 dv=0
PairPos2: "'kern' Horizontal Kerning in Hebrew lookup 7 subtable" uniFB49 dx=-40 dy=0 dh=-40 dv=0 dx=0 dy=0 dh=0 dv=0
PairPos2: "'kern' Horizontal Kerning in Hebrew lookup 7 subtable" uniFB48 dx=10 dy=0 dh=10 dv=0 dx=0 dy=0 dh=0 dv=0
PairPos2: "'kern' Horizontal Kerning in Hebrew lookup 7 subtable" uniFB47 dx=-25 dy=0 dh=-25 dv=0 dx=0 dy=0 dh=0 dv=0
PairPos2: "'kern' Horizontal Kerning in Hebrew lookup 7 subtable" uniFB46 dx=-10 dy=0 dh=-10 dv=0 dx=0 dy=0 dh=0 dv=0
PairPos2: "'kern' Horizontal Kerning in Hebrew lookup 7 subtable" uniFB45 dx=-25 dy=0 dh=-25 dv=0 dx=0 dy=0 dh=0 dv=0
PairPos2: "'kern' Horizontal Kerning in Hebrew lookup 7 subtable" uniFB44 dx=-10 dy=0 dh=-10 dv=0 dx=0 dy=0 dh=0 dv=0
PairPos2: "'kern' Horizontal Kerning in Hebrew lookup 7 subtable" uniFB42 dx=-25 dy=0 dh=-25 dv=0 dx=0 dy=0 dh=0 dv=0
PairPos2: "'kern' Horizontal Kerning in Hebrew lookup 7 subtable" uniFB40 dx=10 dy=0 dh=10 dv=0 dx=0 dy=0 dh=0 dv=0
PairPos2: "'kern' Horizontal Kerning in Hebrew lookup 7 subtable" uniFB3F dx=-20 dy=0 dh=-20 dv=0 dx=0 dy=0 dh=0 dv=0
PairPos2: "'kern' Horizontal Kerning in Hebrew lookup 7 subtable" uniFB3D dx=10 dy=0 dh=10 dv=0 dx=0 dy=0 dh=0 dv=0
PairPos2: "'kern' Horizontal Kerning in Hebrew lookup 7 subtable" uniFB3C dx=-20 dy=0 dh=-20 dv=0 dx=0 dy=0 dh=0 dv=0
PairPos2: "'kern' Horizontal Kerning in Hebrew lookup 7 subtable" uniFB3A dx=-10 dy=0 dh=-10 dv=0 dx=0 dy=0 dh=0 dv=0
PairPos2: "'kern' Horizontal Kerning in Hebrew lookup 7 subtable" uniFB39 dx=-30 dy=0 dh=-30 dv=0 dx=0 dy=0 dh=0 dv=0
PairPos2: "'kern' Horizontal Kerning in Hebrew lookup 7 subtable" uniFB38 dx=-10 dy=0 dh=-10 dv=0 dx=0 dy=0 dh=0 dv=0
PairPos2: "'kern' Horizontal Kerning in Hebrew lookup 7 subtable" uniFB37 dx=-10 dy=0 dh=-10 dv=0 dx=0 dy=0 dh=0 dv=0
PairPos2: "'kern' Horizontal Kerning in Hebrew lookup 7 subtable" uniFB36 dx=-25 dy=0 dh=-25 dv=0 dx=0 dy=0 dh=0 dv=0
PairPos2: "'kern' Horizontal Kerning in Hebrew lookup 7 subtable" uniFB33 dx=-10 dy=0 dh=-10 dv=0 dx=0 dy=0 dh=0 dv=0
PairPos2: "'kern' Horizontal Kerning in Hebrew lookup 7 subtable" uniFB32 dx=10 dy=0 dh=10 dv=0 dx=0 dy=0 dh=0 dv=0
PairPos2: "'kern' Horizontal Kerning in Hebrew lookup 7 subtable" uniFB2D dx=-40 dy=0 dh=-40 dv=0 dx=0 dy=0 dh=0 dv=0
PairPos2: "'kern' Horizontal Kerning in Hebrew lookup 7 subtable" uniFB2C dx=-40 dy=0 dh=-40 dv=0 dx=0 dy=0 dh=0 dv=0
PairPos2: "'kern' Horizontal Kerning in Hebrew lookup 7 subtable" afii57695 dx=-40 dy=0 dh=-40 dv=0 dx=0 dy=0 dh=0 dv=0
PairPos2: "'kern' Horizontal Kerning in Hebrew lookup 7 subtable" afii57694 dx=-40 dy=0 dh=-40 dv=0 dx=0 dy=0 dh=0 dv=0
PairPos2: "'kern' Horizontal Kerning in Hebrew lookup 7 subtable" uniFB28 dx=10 dy=0 dh=10 dv=0 dx=0 dy=0 dh=0 dv=0
PairPos2: "'kern' Horizontal Kerning in Hebrew lookup 7 subtable" uniFB26 dx=10 dy=0 dh=10 dv=0 dx=0 dy=0 dh=0 dv=0
PairPos2: "'kern' Horizontal Kerning in Hebrew lookup 7 subtable" uniFB25 dx=-20 dy=0 dh=-20 dv=0 dx=0 dy=0 dh=0 dv=0
PairPos2: "'kern' Horizontal Kerning in Hebrew lookup 7 subtable" uniFB22 dx=-10 dy=0 dh=-10 dv=0 dx=0 dy=0 dh=0 dv=0
PairPos2: "'kern' Horizontal Kerning in Hebrew lookup 7 subtable" afii57705 dx=-30 dy=0 dh=-30 dv=0 dx=0 dy=0 dh=0 dv=0
PairPos2: "'kern' Horizontal Kerning in Hebrew lookup 7 subtable" uniFB1D dx=-30 dy=0 dh=-30 dv=0 dx=0 dy=0 dh=0 dv=0
PairPos2: "'kern' Horizontal Kerning in Hebrew lookup 7 subtable" uniE804 dx=-30 dy=0 dh=-30 dv=0 dx=0 dy=0 dh=0 dv=0
PairPos2: "'kern' Horizontal Kerning in Hebrew lookup 7 subtable" uniE803 dx=-10 dy=0 dh=-10 dv=0 dx=0 dy=0 dh=0 dv=0
PairPos2: "'kern' Horizontal Kerning in Hebrew lookup 7 subtable" uniE802 dx=-10 dy=0 dh=-10 dv=0 dx=0 dy=0 dh=0 dv=0
PairPos2: "'kern' Horizontal Kerning in Hebrew lookup 7 subtable" ellipsis dx=20 dy=0 dh=20 dv=0 dx=0 dy=0 dh=0 dv=0
PairPos2: "'kern' Horizontal Kerning in Hebrew lookup 7 subtable" quotedblright dx=-35 dy=0 dh=-35 dv=0 dx=0 dy=0 dh=0 dv=0
PairPos2: "'kern' Horizontal Kerning in Hebrew lookup 7 subtable" quoteright dx=-35 dy=0 dh=-35 dv=0 dx=0 dy=0 dh=0 dv=0
PairPos2: "'kern' Horizontal Kerning in Hebrew lookup 7 subtable" uni05F4 dx=-35 dy=0 dh=-35 dv=0 dx=0 dy=0 dh=0 dv=0
PairPos2: "'kern' Horizontal Kerning in Hebrew lookup 7 subtable" uni05F3 dx=-35 dy=0 dh=-35 dv=0 dx=0 dy=0 dh=0 dv=0
PairPos2: "'kern' Horizontal Kerning in Hebrew lookup 7 subtable" afii57718 dx=-30 dy=0 dh=-30 dv=0 dx=0 dy=0 dh=0 dv=0
PairPos2: "'kern' Horizontal Kerning in Hebrew lookup 7 subtable" afii57717 dx=-30 dy=0 dh=-30 dv=0 dx=0 dy=0 dh=0 dv=0
PairPos2: "'kern' Horizontal Kerning in Hebrew lookup 7 subtable" afii57690 dx=10 dy=0 dh=10 dv=0 dx=0 dy=0 dh=0 dv=0
PairPos2: "'kern' Horizontal Kerning in Hebrew lookup 7 subtable" afii57689 dx=-40 dy=0 dh=-40 dv=0 dx=0 dy=0 dh=0 dv=0
PairPos2: "'kern' Horizontal Kerning in Hebrew lookup 7 subtable" afii57688 dx=10 dy=0 dh=10 dv=0 dx=0 dy=0 dh=0 dv=0
PairPos2: "'kern' Horizontal Kerning in Hebrew lookup 7 subtable" afii57687 dx=-25 dy=0 dh=-25 dv=0 dx=0 dy=0 dh=0 dv=0
PairPos2: "'kern' Horizontal Kerning in Hebrew lookup 7 subtable" afii57686 dx=-10 dy=0 dh=-10 dv=0 dx=0 dy=0 dh=0 dv=0
PairPos2: "'kern' Horizontal Kerning in Hebrew lookup 7 subtable" afii57685 dx=-25 dy=0 dh=-25 dv=0 dx=0 dy=0 dh=0 dv=0
PairPos2: "'kern' Horizontal Kerning in Hebrew lookup 7 subtable" afii57684 dx=-10 dy=0 dh=-10 dv=0 dx=0 dy=0 dh=0 dv=0
PairPos2: "'kern' Horizontal Kerning in Hebrew lookup 7 subtable" afii57682 dx=-25 dy=0 dh=-25 dv=0 dx=0 dy=0 dh=0 dv=0
PairPos2: "'kern' Horizontal Kerning in Hebrew lookup 7 subtable" afii57680 dx=10 dy=0 dh=10 dv=0 dx=0 dy=0 dh=0 dv=0
PairPos2: "'kern' Horizontal Kerning in Hebrew lookup 7 subtable" afii57679 dx=-20 dy=0 dh=-20 dv=0 dx=0 dy=0 dh=0 dv=0
PairPos2: "'kern' Horizontal Kerning in Hebrew lookup 7 subtable" afii57677 dx=10 dy=0 dh=10 dv=0 dx=0 dy=0 dh=0 dv=0
PairPos2: "'kern' Horizontal Kerning in Hebrew lookup 7 subtable" afii57676 dx=-20 dy=0 dh=-20 dv=0 dx=0 dy=0 dh=0 dv=0
PairPos2: "'kern' Horizontal Kerning in Hebrew lookup 7 subtable" afii57674 dx=-10 dy=0 dh=-10 dv=0 dx=0 dy=0 dh=0 dv=0
PairPos2: "'kern' Horizontal Kerning in Hebrew lookup 7 subtable" afii57673 dx=-30 dy=0 dh=-30 dv=0 dx=0 dy=0 dh=0 dv=0
PairPos2: "'kern' Horizontal Kerning in Hebrew lookup 7 subtable" afii57672 dx=-10 dy=0 dh=-10 dv=0 dx=0 dy=0 dh=0 dv=0
PairPos2: "'kern' Horizontal Kerning in Hebrew lookup 7 subtable" afii57671 dx=-10 dy=0 dh=-10 dv=0 dx=0 dy=0 dh=0 dv=0
PairPos2: "'kern' Horizontal Kerning in Hebrew lookup 7 subtable" afii57670 dx=-25 dy=0 dh=-25 dv=0 dx=0 dy=0 dh=0 dv=0
PairPos2: "'kern' Horizontal Kerning in Hebrew lookup 7 subtable" afii57667 dx=-10 dy=0 dh=-10 dv=0 dx=0 dy=0 dh=0 dv=0
PairPos2: "'kern' Horizontal Kerning in Hebrew lookup 7 subtable" afii57666 dx=10 dy=0 dh=10 dv=0 dx=0 dy=0 dh=0 dv=0
PairPos2: "'kern' Horizontal Kerning in Hebrew lookup 7 subtable" afii57645 dx=-35 dy=0 dh=-35 dv=0 dx=0 dy=0 dh=0 dv=0
PairPos2: "'kern' Horizontal Kerning in Hebrew lookup 7 subtable" question dx=-15 dy=0 dh=-15 dv=0 dx=0 dy=0 dh=0 dv=0
PairPos2: "'kern' Horizontal Kerning in Hebrew lookup 7 subtable" period dx=20 dy=0 dh=20 dv=0 dx=0 dy=0 dh=0 dv=0
PairPos2: "'kern' Horizontal Kerning in Hebrew lookup 7 subtable" comma dx=20 dy=0 dh=20 dv=0 dx=0 dy=0 dh=0 dv=0
PairPos2: "'kern' Horizontal Kerning in Hebrew lookup 7 subtable" quotesingle dx=-35 dy=0 dh=-35 dv=0 dx=0 dy=0 dh=0 dv=0
PairPos2: "'kern' Horizontal Kerning in Hebrew lookup 7 subtable" quotedbl dx=-35 dy=0 dh=-35 dv=0 dx=0 dy=0 dh=0 dv=0
EndChar

StartChar: afii57667
Encoding: 1491 1491 158
Width: 700
GlyphClass: 2
Flags: W
AnchorPoint: "Anchor-5" 457.5 0 basechar 0
AnchorPoint: "Anchor-4" 447.5 0 basechar 0
AnchorPoint: "Anchor-3" 387.5 0 basechar 0
AnchorPoint: "Anchor-2" 407.5 0 basechar 0
AnchorPoint: "Anchor-1" 72.5 0 basechar 0
AnchorPoint: "Anchor-0" 347.5 0 basechar 0
LayerCount: 2
Fore
SplineSet
202.5 600 m 2,0,-1
 536.5 600 l 2,1,2
 557.5 600 557.5 600 570 587.5 c 128,-1,3
 582.5 575 582.5 575 583.5 550 c 2,4,-1
 582.5 440 l 2,5,6
 582.5 430 582.5 430 581 423.5 c 128,-1,7
 579.5 417 579.5 417 575 411.5 c 128,-1,8
 570.5 406 570.5 406 568.5 404 c 128,-1,9
 566.5 402 566.5 402 558 396 c 128,-1,10
 549.5 390 549.5 390 547.5 388 c 0,11,12
 525.5 371 525.5 371 514 342.5 c 128,-1,13
 502.5 314 502.5 314 502.5 288 c 0,14,15
 502.5 259 502.5 259 518 213 c 128,-1,16
 533.5 167 533.5 167 536.5 147 c 0,17,18
 546.5 83 546.5 83 515.5 36 c 0,19,20
 504.5 19 504.5 19 482.5 8 c 128,-1,21
 460.5 -3 460.5 -3 445 -3 c 128,-1,22
 429.5 -3 429.5 -3 423.5 4 c 0,23,24
 421.5 8 421.5 8 421.5 10 c 128,-1,25
 421.5 12 421.5 12 422 14.5 c 128,-1,26
 422.5 17 422.5 17 424.5 25.5 c 128,-1,27
 426.5 34 426.5 34 428 47 c 128,-1,28
 429.5 60 429.5 60 430.5 88 c 128,-1,29
 431.5 116 431.5 116 432.5 152 c 0,30,31
 432.5 157 432.5 157 431.5 181 c 128,-1,32
 430.5 205 430.5 205 430.5 224 c 128,-1,33
 430.5 243 430.5 243 434.5 273 c 128,-1,34
 438.5 303 438.5 303 448.5 330 c 0,35,36
 455.5 350 455.5 350 464.5 364 c 128,-1,37
 473.5 378 473.5 378 479 383.5 c 128,-1,38
 484.5 389 484.5 389 484.5 392 c 0,39,40
 484.5 397 484.5 397 480 398.5 c 128,-1,41
 475.5 400 475.5 400 463.5 400 c 2,42,-1
 200.5 400 l 2,43,44
 156.5 400 156.5 400 136.5 427 c 128,-1,45
 116.5 454 116.5 454 116.5 520 c 0,46,47
 116.5 571 116.5 571 133.5 608.5 c 128,-1,48
 150.5 646 150.5 646 172.5 646 c 0,49,50
 180.5 646 180.5 646 182.5 643 c 128,-1,51
 184.5 640 184.5 640 183.5 632 c 128,-1,52
 182.5 624 182.5 624 183.5 619 c 0,53,54
 184.5 611 184.5 611 190.5 605.5 c 128,-1,55
 196.5 600 196.5 600 202.5 600 c 2,0,-1
EndSplineSet
Validated: 524321
Substitution2: "'jalt' Justification Alternatives in Hebrew lookup 8 subtable" uniFB22
PairPos2: "'kern' Horizontal Kerning in Hebrew lookup 7 subtable" uniFB4D dx=10 dy=0 dh=10 dv=0 dx=0 dy=0 dh=0 dv=0
PairPos2: "'kern' Horizontal Kerning in Hebrew lookup 7 subtable" uniFB4C dx=-10 dy=0 dh=-10 dv=0 dx=0 dy=0 dh=0 dv=0
PairPos2: "'kern' Horizontal Kerning in Hebrew lookup 7 subtable" uniFB4A dx=10 dy=0 dh=10 dv=0 dx=0 dy=0 dh=0 dv=0
PairPos2: "'kern' Horizontal Kerning in Hebrew lookup 7 subtable" uniFB49 dx=10 dy=0 dh=10 dv=0 dx=0 dy=0 dh=0 dv=0
PairPos2: "'kern' Horizontal Kerning in Hebrew lookup 7 subtable" uniFB48 dx=10 dy=0 dh=10 dv=0 dx=0 dy=0 dh=0 dv=0
PairPos2: "'kern' Horizontal Kerning in Hebrew lookup 7 subtable" uniFB47 dx=10 dy=0 dh=10 dv=0 dx=0 dy=0 dh=0 dv=0
PairPos2: "'kern' Horizontal Kerning in Hebrew lookup 7 subtable" uniFB46 dx=10 dy=0 dh=10 dv=0 dx=0 dy=0 dh=0 dv=0
PairPos2: "'kern' Horizontal Kerning in Hebrew lookup 7 subtable" uniFB45 dx=10 dy=0 dh=10 dv=0 dx=0 dy=0 dh=0 dv=0
PairPos2: "'kern' Horizontal Kerning in Hebrew lookup 7 subtable" uniFB43 dx=-10 dy=0 dh=-10 dv=0 dx=0 dy=0 dh=0 dv=0
PairPos2: "'kern' Horizontal Kerning in Hebrew lookup 7 subtable" uniFB41 dx=10 dy=0 dh=10 dv=0 dx=0 dy=0 dh=0 dv=0
PairPos2: "'kern' Horizontal Kerning in Hebrew lookup 7 subtable" uniFB3D dx=-10 dy=0 dh=-10 dv=0 dx=0 dy=0 dh=0 dv=0
PairPos2: "'kern' Horizontal Kerning in Hebrew lookup 7 subtable" uniFB3C dx=20 dy=0 dh=20 dv=0 dx=0 dy=0 dh=0 dv=0
PairPos2: "'kern' Horizontal Kerning in Hebrew lookup 7 subtable" uniFB3B dx=10 dy=0 dh=10 dv=0 dx=0 dy=0 dh=0 dv=0
PairPos2: "'kern' Horizontal Kerning in Hebrew lookup 7 subtable" uniFB3A dx=10 dy=0 dh=10 dv=0 dx=0 dy=0 dh=0 dv=0
PairPos2: "'kern' Horizontal Kerning in Hebrew lookup 7 subtable" uniFB39 dx=10 dy=0 dh=10 dv=0 dx=0 dy=0 dh=0 dv=0
PairPos2: "'kern' Horizontal Kerning in Hebrew lookup 7 subtable" uniFB38 dx=10 dy=0 dh=10 dv=0 dx=0 dy=0 dh=0 dv=0
PairPos2: "'kern' Horizontal Kerning in Hebrew lookup 7 subtable" uniFB37 dx=10 dy=0 dh=10 dv=0 dx=0 dy=0 dh=0 dv=0
PairPos2: "'kern' Horizontal Kerning in Hebrew lookup 7 subtable" uniFB36 dx=10 dy=0 dh=10 dv=0 dx=0 dy=0 dh=0 dv=0
PairPos2: "'kern' Horizontal Kerning in Hebrew lookup 7 subtable" uniFB34 dx=10 dy=0 dh=10 dv=0 dx=0 dy=0 dh=0 dv=0
PairPos2: "'kern' Horizontal Kerning in Hebrew lookup 7 subtable" uniFB33 dx=10 dy=0 dh=10 dv=0 dx=0 dy=0 dh=0 dv=0
PairPos2: "'kern' Horizontal Kerning in Hebrew lookup 7 subtable" uniFB32 dx=-25 dy=0 dh=-25 dv=0 dx=0 dy=0 dh=0 dv=0
PairPos2: "'kern' Horizontal Kerning in Hebrew lookup 7 subtable" uniFB31 dx=-10 dy=0 dh=-10 dv=0 dx=0 dy=0 dh=0 dv=0
PairPos2: "'kern' Horizontal Kerning in Hebrew lookup 7 subtable" uniFB2D dx=10 dy=0 dh=10 dv=0 dx=0 dy=0 dh=0 dv=0
PairPos2: "'kern' Horizontal Kerning in Hebrew lookup 7 subtable" uniFB2C dx=10 dy=0 dh=10 dv=0 dx=0 dy=0 dh=0 dv=0
PairPos2: "'kern' Horizontal Kerning in Hebrew lookup 7 subtable" afii57695 dx=10 dy=0 dh=10 dv=0 dx=0 dy=0 dh=0 dv=0
PairPos2: "'kern' Horizontal Kerning in Hebrew lookup 7 subtable" afii57694 dx=10 dy=0 dh=10 dv=0 dx=0 dy=0 dh=0 dv=0
PairPos2: "'kern' Horizontal Kerning in Hebrew lookup 7 subtable" uniFB28 dx=10 dy=0 dh=10 dv=0 dx=0 dy=0 dh=0 dv=0
PairPos2: "'kern' Horizontal Kerning in Hebrew lookup 7 subtable" uniFB26 dx=-10 dy=0 dh=-10 dv=0 dx=0 dy=0 dh=0 dv=0
PairPos2: "'kern' Horizontal Kerning in Hebrew lookup 7 subtable" uniFB25 dx=20 dy=0 dh=20 dv=0 dx=0 dy=0 dh=0 dv=0
PairPos2: "'kern' Horizontal Kerning in Hebrew lookup 7 subtable" uniFB24 dx=10 dy=0 dh=10 dv=0 dx=0 dy=0 dh=0 dv=0
PairPos2: "'kern' Horizontal Kerning in Hebrew lookup 7 subtable" uniFB23 dx=10 dy=0 dh=10 dv=0 dx=0 dy=0 dh=0 dv=0
PairPos2: "'kern' Horizontal Kerning in Hebrew lookup 7 subtable" uniFB22 dx=10 dy=0 dh=10 dv=0 dx=0 dy=0 dh=0 dv=0
PairPos2: "'kern' Horizontal Kerning in Hebrew lookup 7 subtable" afii57705 dx=10 dy=0 dh=10 dv=0 dx=0 dy=0 dh=0 dv=0
PairPos2: "'kern' Horizontal Kerning in Hebrew lookup 7 subtable" uniFB1D dx=10 dy=0 dh=10 dv=0 dx=0 dy=0 dh=0 dv=0
PairPos2: "'kern' Horizontal Kerning in Hebrew lookup 7 subtable" uniE804 dx=10 dy=0 dh=10 dv=0 dx=0 dy=0 dh=0 dv=0
PairPos2: "'kern' Horizontal Kerning in Hebrew lookup 7 subtable" uniE803 dx=10 dy=0 dh=10 dv=0 dx=0 dy=0 dh=0 dv=0
PairPos2: "'kern' Horizontal Kerning in Hebrew lookup 7 subtable" uniE802 dx=10 dy=0 dh=10 dv=0 dx=0 dy=0 dh=0 dv=0
PairPos2: "'kern' Horizontal Kerning in Hebrew lookup 7 subtable" ellipsis dx=-80 dy=0 dh=-80 dv=0 dx=0 dy=0 dh=0 dv=0
PairPos2: "'kern' Horizontal Kerning in Hebrew lookup 7 subtable" quotedblright dx=10 dy=0 dh=10 dv=0 dx=0 dy=0 dh=0 dv=0
PairPos2: "'kern' Horizontal Kerning in Hebrew lookup 7 subtable" quoteright dx=10 dy=0 dh=10 dv=0 dx=0 dy=0 dh=0 dv=0
PairPos2: "'kern' Horizontal Kerning in Hebrew lookup 7 subtable" uni05F4 dx=10 dy=0 dh=10 dv=0 dx=0 dy=0 dh=0 dv=0
PairPos2: "'kern' Horizontal Kerning in Hebrew lookup 7 subtable" uni05F3 dx=10 dy=0 dh=10 dv=0 dx=0 dy=0 dh=0 dv=0
PairPos2: "'kern' Horizontal Kerning in Hebrew lookup 7 subtable" afii57718 dx=10 dy=0 dh=10 dv=0 dx=0 dy=0 dh=0 dv=0
PairPos2: "'kern' Horizontal Kerning in Hebrew lookup 7 subtable" afii57717 dx=10 dy=0 dh=10 dv=0 dx=0 dy=0 dh=0 dv=0
PairPos2: "'kern' Horizontal Kerning in Hebrew lookup 7 subtable" afii57690 dx=10 dy=0 dh=10 dv=0 dx=0 dy=0 dh=0 dv=0
PairPos2: "'kern' Horizontal Kerning in Hebrew lookup 7 subtable" afii57689 dx=10 dy=0 dh=10 dv=0 dx=0 dy=0 dh=0 dv=0
PairPos2: "'kern' Horizontal Kerning in Hebrew lookup 7 subtable" afii57688 dx=10 dy=0 dh=10 dv=0 dx=0 dy=0 dh=0 dv=0
PairPos2: "'kern' Horizontal Kerning in Hebrew lookup 7 subtable" afii57687 dx=10 dy=0 dh=10 dv=0 dx=0 dy=0 dh=0 dv=0
PairPos2: "'kern' Horizontal Kerning in Hebrew lookup 7 subtable" afii57686 dx=10 dy=0 dh=10 dv=0 dx=0 dy=0 dh=0 dv=0
PairPos2: "'kern' Horizontal Kerning in Hebrew lookup 7 subtable" afii57685 dx=10 dy=0 dh=10 dv=0 dx=0 dy=0 dh=0 dv=0
PairPos2: "'kern' Horizontal Kerning in Hebrew lookup 7 subtable" afii57683 dx=-10 dy=0 dh=-10 dv=0 dx=0 dy=0 dh=0 dv=0
PairPos2: "'kern' Horizontal Kerning in Hebrew lookup 7 subtable" afii57681 dx=10 dy=0 dh=10 dv=0 dx=0 dy=0 dh=0 dv=0
PairPos2: "'kern' Horizontal Kerning in Hebrew lookup 7 subtable" afii57677 dx=-10 dy=0 dh=-10 dv=0 dx=0 dy=0 dh=0 dv=0
PairPos2: "'kern' Horizontal Kerning in Hebrew lookup 7 subtable" afii57676 dx=20 dy=0 dh=20 dv=0 dx=0 dy=0 dh=0 dv=0
PairPos2: "'kern' Horizontal Kerning in Hebrew lookup 7 subtable" afii57675 dx=10 dy=0 dh=10 dv=0 dx=0 dy=0 dh=0 dv=0
PairPos2: "'kern' Horizontal Kerning in Hebrew lookup 7 subtable" afii57674 dx=10 dy=0 dh=10 dv=0 dx=0 dy=0 dh=0 dv=0
PairPos2: "'kern' Horizontal Kerning in Hebrew lookup 7 subtable" afii57673 dx=10 dy=0 dh=10 dv=0 dx=0 dy=0 dh=0 dv=0
PairPos2: "'kern' Horizontal Kerning in Hebrew lookup 7 subtable" afii57672 dx=10 dy=0 dh=10 dv=0 dx=0 dy=0 dh=0 dv=0
PairPos2: "'kern' Horizontal Kerning in Hebrew lookup 7 subtable" afii57671 dx=10 dy=0 dh=10 dv=0 dx=0 dy=0 dh=0 dv=0
PairPos2: "'kern' Horizontal Kerning in Hebrew lookup 7 subtable" afii57670 dx=10 dy=0 dh=10 dv=0 dx=0 dy=0 dh=0 dv=0
PairPos2: "'kern' Horizontal Kerning in Hebrew lookup 7 subtable" afii57668 dx=10 dy=0 dh=10 dv=0 dx=0 dy=0 dh=0 dv=0
PairPos2: "'kern' Horizontal Kerning in Hebrew lookup 7 subtable" afii57667 dx=10 dy=0 dh=10 dv=0 dx=0 dy=0 dh=0 dv=0
PairPos2: "'kern' Horizontal Kerning in Hebrew lookup 7 subtable" afii57666 dx=-25 dy=0 dh=-25 dv=0 dx=0 dy=0 dh=0 dv=0
PairPos2: "'kern' Horizontal Kerning in Hebrew lookup 7 subtable" afii57665 dx=-10 dy=0 dh=-10 dv=0 dx=0 dy=0 dh=0 dv=0
PairPos2: "'kern' Horizontal Kerning in Hebrew lookup 7 subtable" afii57645 dx=10 dy=0 dh=10 dv=0 dx=0 dy=0 dh=0 dv=0
PairPos2: "'kern' Horizontal Kerning in Hebrew lookup 7 subtable" question dx=30 dy=0 dh=30 dv=0 dx=0 dy=0 dh=0 dv=0
PairPos2: "'kern' Horizontal Kerning in Hebrew lookup 7 subtable" period dx=-80 dy=0 dh=-80 dv=0 dx=0 dy=0 dh=0 dv=0
PairPos2: "'kern' Horizontal Kerning in Hebrew lookup 7 subtable" hyphen dx=20 dy=0 dh=20 dv=0 dx=0 dy=0 dh=0 dv=0
PairPos2: "'kern' Horizontal Kerning in Hebrew lookup 7 subtable" comma dx=-80 dy=0 dh=-80 dv=0 dx=0 dy=0 dh=0 dv=0
PairPos2: "'kern' Horizontal Kerning in Hebrew lookup 7 subtable" quotesingle dx=10 dy=0 dh=10 dv=0 dx=0 dy=0 dh=0 dv=0
PairPos2: "'kern' Horizontal Kerning in Hebrew lookup 7 subtable" quotedbl dx=10 dy=0 dh=10 dv=0 dx=0 dy=0 dh=0 dv=0
EndChar

StartChar: afii57668
Encoding: 1492 1492 159
Width: 737
GlyphClass: 2
Flags: W
AnchorPoint: "Anchor-5" 357 0 basechar 0
AnchorPoint: "Anchor-4" 347 0 basechar 0
AnchorPoint: "Anchor-3" 362 0 basechar 0
AnchorPoint: "Anchor-2" 357 0 basechar 0
AnchorPoint: "Anchor-0" 364 0 basechar 0
LayerCount: 2
Fore
SplineSet
216 600 m 2,0,-1
 560 600 l 2,1,2
 582 600 582 600 594.5 587.5 c 128,-1,3
 607 575 607 575 607 550 c 2,4,-1
 607 453 l 2,5,6
 607 430 607 430 601.5 416 c 128,-1,7
 596 402 596 402 587 390 c 128,-1,8
 578 378 578 378 574 369 c 0,9,10
 560 334 560 334 559 302 c 128,-1,11
 558 270 558 270 564 250 c 128,-1,12
 570 230 570 230 581 199 c 128,-1,13
 592 168 592 168 596 147 c 0,14,15
 609 83 609 83 579 36 c 0,16,17
 568 19 568 19 546.5 8 c 128,-1,18
 525 -3 525 -3 509.5 -3 c 128,-1,19
 494 -3 494 -3 488 4 c 0,20,21
 486 8 486 8 485.5 9.5 c 128,-1,22
 485 11 485 11 486 14.5 c 128,-1,23
 487 18 487 18 488.5 25 c 128,-1,24
 490 32 490 32 491 47 c 128,-1,25
 492 62 492 62 492.5 87.5 c 128,-1,26
 493 113 493 113 491 152 c 0,27,28
 491 157 491 157 489 181 c 128,-1,29
 487 205 487 205 486.5 224 c 128,-1,30
 486 243 486 243 489.5 273 c 128,-1,31
 493 303 493 303 501 330 c 0,32,33
 508 350 508 350 517 364 c 128,-1,34
 526 378 526 378 531.5 383.5 c 128,-1,35
 537 389 537 389 537 392 c 0,36,37
 537 397 537 397 533 398.5 c 128,-1,38
 529 400 529 400 516 400 c 2,39,-1
 214 400 l 2,40,41
 170 400 170 400 150 427 c 128,-1,42
 130 454 130 454 130 520 c 0,43,44
 130 571 130 571 147 608.5 c 128,-1,45
 164 646 164 646 186 646 c 0,46,47
 194 646 194 646 196 643 c 128,-1,48
 198 640 198 640 197 632 c 128,-1,49
 196 624 196 624 197 619 c 0,50,51
 198 611 198 611 204 605.5 c 128,-1,52
 210 600 210 600 216 600 c 2,0,-1
246 294 m 0,53,54
 253 294 253 294 255.5 292 c 128,-1,55
 258 290 258 290 256 286 c 0,56,57
 246 267 246 267 250 155 c 0,58,59
 250 134 250 134 250 115.5 c 128,-1,60
 250 97 250 97 245 78 c 128,-1,61
 240 59 240 59 230 45 c 0,62,63
 214 23 214 23 185.5 11 c 128,-1,64
 157 -1 157 -1 144 0 c 0,65,66
 128 1 128 1 134 10 c 0,67,68
 141 23 141 23 142 113 c 0,69,70
 143 121 143 121 142.5 145.5 c 128,-1,71
 142 170 142 170 143 179.5 c 128,-1,72
 144 189 144 189 145.5 206 c 128,-1,73
 147 223 147 223 151 233.5 c 128,-1,74
 155 244 155 244 162 252 c 0,75,76
 198 294 198 294 246 294 c 0,53,54
EndSplineSet
Validated: 33
Substitution2: "'jalt' Justification Alternatives in Hebrew lookup 8 subtable" uniFB23
PairPos2: "'kern' Horizontal Kerning in Hebrew lookup 7 subtable" uniFB4D dx=20 dy=0 dh=20 dv=0 dx=0 dy=0 dh=0 dv=0
PairPos2: "'kern' Horizontal Kerning in Hebrew lookup 7 subtable" uniFB4C dx=10 dy=0 dh=10 dv=0 dx=0 dy=0 dh=0 dv=0
PairPos2: "'kern' Horizontal Kerning in Hebrew lookup 7 subtable" afii57700 dx=10 dy=0 dh=10 dv=0 dx=0 dy=0 dh=0 dv=0
PairPos2: "'kern' Horizontal Kerning in Hebrew lookup 7 subtable" uniFB4A dx=10 dy=0 dh=10 dv=0 dx=0 dy=0 dh=0 dv=0
PairPos2: "'kern' Horizontal Kerning in Hebrew lookup 7 subtable" uniFB48 dx=20 dy=0 dh=20 dv=0 dx=0 dy=0 dh=0 dv=0
PairPos2: "'kern' Horizontal Kerning in Hebrew lookup 7 subtable" uniFB47 dx=10 dy=0 dh=10 dv=0 dx=0 dy=0 dh=0 dv=0
PairPos2: "'kern' Horizontal Kerning in Hebrew lookup 7 subtable" uniFB41 dx=10 dy=0 dh=10 dv=0 dx=0 dy=0 dh=0 dv=0
PairPos2: "'kern' Horizontal Kerning in Hebrew lookup 7 subtable" uniFB40 dx=10 dy=0 dh=10 dv=0 dx=0 dy=0 dh=0 dv=0
PairPos2: "'kern' Horizontal Kerning in Hebrew lookup 7 subtable" uniFB3E dx=10 dy=0 dh=10 dv=0 dx=0 dy=0 dh=0 dv=0
PairPos2: "'kern' Horizontal Kerning in Hebrew lookup 7 subtable" uniFB3D dx=10 dy=0 dh=10 dv=0 dx=0 dy=0 dh=0 dv=0
PairPos2: "'kern' Horizontal Kerning in Hebrew lookup 7 subtable" uniFB3C dx=20 dy=0 dh=20 dv=0 dx=0 dy=0 dh=0 dv=0
PairPos2: "'kern' Horizontal Kerning in Hebrew lookup 7 subtable" uniFB3B dx=20 dy=0 dh=20 dv=0 dx=0 dy=0 dh=0 dv=0
PairPos2: "'kern' Horizontal Kerning in Hebrew lookup 7 subtable" afii57723 dx=10 dy=0 dh=10 dv=0 dx=0 dy=0 dh=0 dv=0
PairPos2: "'kern' Horizontal Kerning in Hebrew lookup 7 subtable" uniFB33 dx=10 dy=0 dh=10 dv=0 dx=0 dy=0 dh=0 dv=0
PairPos2: "'kern' Horizontal Kerning in Hebrew lookup 7 subtable" uniFB32 dx=10 dy=0 dh=10 dv=0 dx=0 dy=0 dh=0 dv=0
PairPos2: "'kern' Horizontal Kerning in Hebrew lookup 7 subtable" uniFB31 dx=10 dy=0 dh=10 dv=0 dx=0 dy=0 dh=0 dv=0
PairPos2: "'kern' Horizontal Kerning in Hebrew lookup 7 subtable" uniFB28 dx=10 dy=0 dh=10 dv=0 dx=0 dy=0 dh=0 dv=0
PairPos2: "'kern' Horizontal Kerning in Hebrew lookup 7 subtable" uniFB26 dx=10 dy=0 dh=10 dv=0 dx=0 dy=0 dh=0 dv=0
PairPos2: "'kern' Horizontal Kerning in Hebrew lookup 7 subtable" uniFB25 dx=20 dy=0 dh=20 dv=0 dx=0 dy=0 dh=0 dv=0
PairPos2: "'kern' Horizontal Kerning in Hebrew lookup 7 subtable" uniFB24 dx=20 dy=0 dh=20 dv=0 dx=0 dy=0 dh=0 dv=0
PairPos2: "'kern' Horizontal Kerning in Hebrew lookup 7 subtable" uniFB22 dx=10 dy=0 dh=10 dv=0 dx=0 dy=0 dh=0 dv=0
PairPos2: "'kern' Horizontal Kerning in Hebrew lookup 7 subtable" uniE801 dx=10 dy=0 dh=10 dv=0 dx=0 dy=0 dh=0 dv=0
PairPos2: "'kern' Horizontal Kerning in Hebrew lookup 7 subtable" quotedblright dx=5 dy=0 dh=5 dv=0 dx=0 dy=0 dh=0 dv=0
PairPos2: "'kern' Horizontal Kerning in Hebrew lookup 7 subtable" quoteright dx=5 dy=0 dh=5 dv=0 dx=0 dy=0 dh=0 dv=0
PairPos2: "'kern' Horizontal Kerning in Hebrew lookup 7 subtable" uni05F4 dx=5 dy=0 dh=5 dv=0 dx=0 dy=0 dh=0 dv=0
PairPos2: "'kern' Horizontal Kerning in Hebrew lookup 7 subtable" uni05F3 dx=5 dy=0 dh=5 dv=0 dx=0 dy=0 dh=0 dv=0
PairPos2: "'kern' Horizontal Kerning in Hebrew lookup 7 subtable" afii57716 dx=10 dy=0 dh=10 dv=0 dx=0 dy=0 dh=0 dv=0
PairPos2: "'kern' Horizontal Kerning in Hebrew lookup 7 subtable" afii57690 dx=10 dy=0 dh=10 dv=0 dx=0 dy=0 dh=0 dv=0
PairPos2: "'kern' Horizontal Kerning in Hebrew lookup 7 subtable" afii57688 dx=20 dy=0 dh=20 dv=0 dx=0 dy=0 dh=0 dv=0
PairPos2: "'kern' Horizontal Kerning in Hebrew lookup 7 subtable" afii57687 dx=10 dy=0 dh=10 dv=0 dx=0 dy=0 dh=0 dv=0
PairPos2: "'kern' Horizontal Kerning in Hebrew lookup 7 subtable" afii57681 dx=10 dy=0 dh=10 dv=0 dx=0 dy=0 dh=0 dv=0
PairPos2: "'kern' Horizontal Kerning in Hebrew lookup 7 subtable" afii57680 dx=10 dy=0 dh=10 dv=0 dx=0 dy=0 dh=0 dv=0
PairPos2: "'kern' Horizontal Kerning in Hebrew lookup 7 subtable" afii57678 dx=10 dy=0 dh=10 dv=0 dx=0 dy=0 dh=0 dv=0
PairPos2: "'kern' Horizontal Kerning in Hebrew lookup 7 subtable" afii57677 dx=10 dy=0 dh=10 dv=0 dx=0 dy=0 dh=0 dv=0
PairPos2: "'kern' Horizontal Kerning in Hebrew lookup 7 subtable" afii57676 dx=20 dy=0 dh=20 dv=0 dx=0 dy=0 dh=0 dv=0
PairPos2: "'kern' Horizontal Kerning in Hebrew lookup 7 subtable" afii57675 dx=20 dy=0 dh=20 dv=0 dx=0 dy=0 dh=0 dv=0
PairPos2: "'kern' Horizontal Kerning in Hebrew lookup 7 subtable" afii57669 dx=10 dy=0 dh=10 dv=0 dx=0 dy=0 dh=0 dv=0
PairPos2: "'kern' Horizontal Kerning in Hebrew lookup 7 subtable" afii57667 dx=10 dy=0 dh=10 dv=0 dx=0 dy=0 dh=0 dv=0
PairPos2: "'kern' Horizontal Kerning in Hebrew lookup 7 subtable" afii57666 dx=10 dy=0 dh=10 dv=0 dx=0 dy=0 dh=0 dv=0
PairPos2: "'kern' Horizontal Kerning in Hebrew lookup 7 subtable" afii57665 dx=10 dy=0 dh=10 dv=0 dx=0 dy=0 dh=0 dv=0
PairPos2: "'kern' Horizontal Kerning in Hebrew lookup 7 subtable" afii57645 dx=-5 dy=0 dh=-5 dv=0 dx=0 dy=0 dh=0 dv=0
PairPos2: "'kern' Horizontal Kerning in Hebrew lookup 7 subtable" question dx=15 dy=0 dh=15 dv=0 dx=0 dy=0 dh=0 dv=0
PairPos2: "'kern' Horizontal Kerning in Hebrew lookup 7 subtable" quotesingle dx=5 dy=0 dh=5 dv=0 dx=0 dy=0 dh=0 dv=0
PairPos2: "'kern' Horizontal Kerning in Hebrew lookup 7 subtable" quotedbl dx=5 dy=0 dh=5 dv=0 dx=0 dy=0 dh=0 dv=0
EndChar

StartChar: afii57669
Encoding: 1493 1493 160
Width: 509
GlyphClass: 2
Flags: W
AnchorPoint: "Anchor-5" 327 0 basechar 0
AnchorPoint: "Anchor-4" 292 0 basechar 0
AnchorPoint: "Anchor-3" 272 0 basechar 0
AnchorPoint: "Anchor-2" 272 0 basechar 0
AnchorPoint: "Anchor-0" 231 2 basechar 0
LayerCount: 2
Fore
SplineSet
218 600 m 2,0,-1
 275 600 l 2,1,2
 302 600 302 600 321.5 591.5 c 128,-1,3
 341 583 341 583 351.5 570 c 128,-1,4
 362 557 362 557 368.5 538 c 128,-1,5
 375 519 375 519 376.5 503.5 c 128,-1,6
 378 488 378 488 378 468 c 2,7,-1
 378 73 l 2,8,9
 378 50 378 50 372 32 c 0,10,11
 367 17 367 17 348 5 c 128,-1,12
 329 -7 329 -7 320 -6 c 0,13,14
 308 -5 308 -5 308 6 c 2,15,-1
 308 317 l 2,16,17
 308 333 308 333 306.5 344 c 128,-1,18
 305 355 305 355 298.5 369.5 c 128,-1,19
 292 384 292 384 276 392 c 128,-1,20
 260 400 260 400 236 400 c 2,21,-1
 215 400 l 2,22,23
 171 400 171 400 151 427 c 128,-1,24
 131 454 131 454 131 520 c 0,25,26
 131 571 131 571 148.5 608.5 c 128,-1,27
 166 646 166 646 188 646 c 0,28,29
 196 646 196 646 198 643 c 128,-1,30
 200 640 200 640 199 632 c 128,-1,31
 198 624 198 624 198 619 c 0,32,33
 199 611 199 611 205.5 605.5 c 128,-1,34
 212 600 212 600 218 600 c 2,0,-1
EndSplineSet
Validated: 1
PairPos2: "'kern' Horizontal Kerning in Hebrew lookup 7 subtable" uniFB4E dx=-10 dy=0 dh=-10 dv=0 dx=0 dy=0 dh=0 dv=0
PairPos2: "'kern' Horizontal Kerning in Hebrew lookup 7 subtable" uniFB4D dx=-5 dy=0 dh=-5 dv=0 dx=0 dy=0 dh=0 dv=0
PairPos2: "'kern' Horizontal Kerning in Hebrew lookup 7 subtable" uniFB4C dx=-10 dy=0 dh=-10 dv=0 dx=0 dy=0 dh=0 dv=0
PairPos2: "'kern' Horizontal Kerning in Hebrew lookup 7 subtable" uniFB44 dx=-10 dy=0 dh=-10 dv=0 dx=0 dy=0 dh=0 dv=0
PairPos2: "'kern' Horizontal Kerning in Hebrew lookup 7 subtable" uniFB43 dx=-20 dy=0 dh=-20 dv=0 dx=0 dy=0 dh=0 dv=0
PairPos2: "'kern' Horizontal Kerning in Hebrew lookup 7 subtable" uniFB40 dx=-5 dy=0 dh=-5 dv=0 dx=0 dy=0 dh=0 dv=0
PairPos2: "'kern' Horizontal Kerning in Hebrew lookup 7 subtable" uniFB3D dx=-20 dy=0 dh=-20 dv=0 dx=0 dy=0 dh=0 dv=0
PairPos2: "'kern' Horizontal Kerning in Hebrew lookup 7 subtable" uniFB3C dx=10 dy=0 dh=10 dv=0 dx=0 dy=0 dh=0 dv=0
PairPos2: "'kern' Horizontal Kerning in Hebrew lookup 7 subtable" uniFB3B dx=-5 dy=0 dh=-5 dv=0 dx=0 dy=0 dh=0 dv=0
PairPos2: "'kern' Horizontal Kerning in Hebrew lookup 7 subtable" uniFB32 dx=-35 dy=0 dh=-35 dv=0 dx=0 dy=0 dh=0 dv=0
PairPos2: "'kern' Horizontal Kerning in Hebrew lookup 7 subtable" uniFB31 dx=-10 dy=0 dh=-10 dv=0 dx=0 dy=0 dh=0 dv=0
PairPos2: "'kern' Horizontal Kerning in Hebrew lookup 7 subtable" uniFB26 dx=-20 dy=0 dh=-20 dv=0 dx=0 dy=0 dh=0 dv=0
PairPos2: "'kern' Horizontal Kerning in Hebrew lookup 7 subtable" uniFB25 dx=10 dy=0 dh=10 dv=0 dx=0 dy=0 dh=0 dv=0
PairPos2: "'kern' Horizontal Kerning in Hebrew lookup 7 subtable" uniFB24 dx=-5 dy=0 dh=-5 dv=0 dx=0 dy=0 dh=0 dv=0
PairPos2: "'kern' Horizontal Kerning in Hebrew lookup 7 subtable" ellipsis dx=-80 dy=0 dh=-80 dv=0 dx=0 dy=0 dh=0 dv=0
PairPos2: "'kern' Horizontal Kerning in Hebrew lookup 7 subtable" quotedblright dx=-5 dy=0 dh=-5 dv=0 dx=0 dy=0 dh=0 dv=0
PairPos2: "'kern' Horizontal Kerning in Hebrew lookup 7 subtable" quoteright dx=-5 dy=0 dh=-5 dv=0 dx=0 dy=0 dh=0 dv=0
PairPos2: "'kern' Horizontal Kerning in Hebrew lookup 7 subtable" uni05F4 dx=-5 dy=0 dh=-5 dv=0 dx=0 dy=0 dh=0 dv=0
PairPos2: "'kern' Horizontal Kerning in Hebrew lookup 7 subtable" uni05F3 dx=-5 dy=0 dh=-5 dv=0 dx=0 dy=0 dh=0 dv=0
PairPos2: "'kern' Horizontal Kerning in Hebrew lookup 7 subtable" afii57684 dx=-10 dy=0 dh=-10 dv=0 dx=0 dy=0 dh=0 dv=0
PairPos2: "'kern' Horizontal Kerning in Hebrew lookup 7 subtable" afii57683 dx=-20 dy=0 dh=-20 dv=0 dx=0 dy=0 dh=0 dv=0
PairPos2: "'kern' Horizontal Kerning in Hebrew lookup 7 subtable" afii57680 dx=-5 dy=0 dh=-5 dv=0 dx=0 dy=0 dh=0 dv=0
PairPos2: "'kern' Horizontal Kerning in Hebrew lookup 7 subtable" afii57677 dx=-20 dy=0 dh=-20 dv=0 dx=0 dy=0 dh=0 dv=0
PairPos2: "'kern' Horizontal Kerning in Hebrew lookup 7 subtable" afii57676 dx=10 dy=0 dh=10 dv=0 dx=0 dy=0 dh=0 dv=0
PairPos2: "'kern' Horizontal Kerning in Hebrew lookup 7 subtable" afii57675 dx=-5 dy=0 dh=-5 dv=0 dx=0 dy=0 dh=0 dv=0
PairPos2: "'kern' Horizontal Kerning in Hebrew lookup 7 subtable" afii57666 dx=-35 dy=0 dh=-35 dv=0 dx=0 dy=0 dh=0 dv=0
PairPos2: "'kern' Horizontal Kerning in Hebrew lookup 7 subtable" afii57665 dx=-10 dy=0 dh=-10 dv=0 dx=0 dy=0 dh=0 dv=0
PairPos2: "'kern' Horizontal Kerning in Hebrew lookup 7 subtable" question dx=15 dy=0 dh=15 dv=0 dx=0 dy=0 dh=0 dv=0
PairPos2: "'kern' Horizontal Kerning in Hebrew lookup 7 subtable" period dx=-80 dy=0 dh=-80 dv=0 dx=0 dy=0 dh=0 dv=0
PairPos2: "'kern' Horizontal Kerning in Hebrew lookup 7 subtable" comma dx=-80 dy=0 dh=-80 dv=0 dx=0 dy=0 dh=0 dv=0
PairPos2: "'kern' Horizontal Kerning in Hebrew lookup 7 subtable" quotesingle dx=-5 dy=0 dh=-5 dv=0 dx=0 dy=0 dh=0 dv=0
PairPos2: "'kern' Horizontal Kerning in Hebrew lookup 7 subtable" quotedbl dx=-5 dy=0 dh=-5 dv=0 dx=0 dy=0 dh=0 dv=0
EndChar

